Sprat-Extended Black.ufo
<glyph name="exclam" format="2">
  <advance width="409"/>
  <unicode hex="0021"/>
  <outline>
    <contour>
      <point x="128" y="239" type="line"/>
      <point x="278" y="239" type="line"/>
      <point x="348" y="700" type="line"/>
      <point x="58" y="700" type="line"/>
    </contour>
    <contour>
      <point x="202" y="-15" type="curve" smooth="yes"/>
      <point x="268" y="-15"/>
      <point x="313" y="15"/>
      <point x="313" y="74" type="curve" smooth="yes"/>
      <point x="313" y="134"/>
      <point x="268" y="165"/>
      <point x="203" y="165" type="curve" smooth="yes"/>
      <point x="137" y="165"/>
      <point x="90" y="134"/>
      <point x="90" y="74" type="curve" smooth="yes"/>
      <point x="90" y="15"/>
      <point x="137" y="-15"/>
    </contour>
  </outline>
</glyph>
<glyph name="numbersign" format="2">
  <advance width="783"/>
  <unicode hex="0023"/>
  <outline>
    <contour>
      <point x="244" y="610" type="line"/>
      <point x="69" y="0" type="line"/>
      <point x="182" y="0" type="line"/>
      <point x="357" y="610" type="line"/>
    </contour>
    <contour>
      <point x="594" y="610" type="line"/>
      <point x="419" y="0" type="line"/>
      <point x="532" y="0" type="line"/>
      <point x="707" y="610" type="line"/>
    </contour>
    <contour>
      <point x="96" y="430" type="line"/>
      <point x="96" y="385" type="line"/>
      <point x="731" y="385" type="line"/>
      <point x="731" y="430" type="line"/>
    </contour>
    <contour>
      <point x="56" y="230" type="line"/>
      <point x="56" y="185" type="line"/>
      <point x="686" y="185" type="line"/>
      <point x="686" y="230" type="line"/>
    </contour>
  </outline>
</glyph>
<glyph name="dollar" format="2">
  <advance width="1003"/>
  <unicode hex="0024"/>
  <outline>
    <contour>
      <point x="68" y="247" type="line"/>
      <point x="109" y="28" type="line"/>
      <point x="218" y="-49"/>
      <point x="426" y="-77"/>
      <point x="511" y="-77" type="curve" smooth="yes"/>
      <point x="742" y="-77"/>
      <point x="931" y="-11"/>
      <point x="931" y="156" type="curve" smooth="yes"/>
      <point x="931" y="467"/>
      <point x="297" y="289"/>
      <point x="297" y="484" type="curve" smooth="yes"/>
      <point x="297" y="548"/>
      <point x="387" y="580"/>
      <point x="510" y="580" type="curve" smooth="yes"/>
      <point x="663" y="580"/>
      <point x="833" y="500"/>
      <point x="896" y="332" type="curve"/>
      <point x="926" y="332" type="line"/>
      <point x="887" y="547" type="line"/>
      <point x="813" y="598"/>
      <point x="602" y="627"/>
      <point x="511" y="627" type="curve" smooth="yes"/>
      <point x="274" y="627"/>
      <point x="85" y="560"/>
      <point x="85" y="390" type="curve" smooth="yes"/>
      <point x="85" y="81"/>
      <point x="719" y="225"/>
      <point x="719" y="56" type="curve" smooth="yes"/>
      <point x="719" y="7"/>
      <point x="629" y="-31"/>
      <point x="512" y="-31" type="curve" smooth="yes"/>
      <point x="353" y="-31"/>
      <point x="161" y="80"/>
      <point x="98" y="247" type="curve"/>
    </contour>
    <contour>
      <point x="337" y="597" type="line"/>
      <point x="372" y="597" type="line"/>
      <point x="372" y="760" type="line"/>
      <point x="337" y="760" type="line"/>
    </contour>
    <contour>
      <point x="633" y="597" type="line"/>
      <point x="668" y="597" type="line"/>
      <point x="668" y="760" type="line"/>
      <point x="633" y="760" type="line"/>
    </contour>
    <contour>
      <point x="337" y="-213" type="line"/>
      <point x="372" y="-213" type="line"/>
      <point x="372" y="-50" type="line"/>
      <point x="337" y="-50" type="line"/>
    </contour>
    <contour>
      <point x="633" y="-213" type="line"/>
      <point x="668" y="-213" type="line"/>
      <point x="668" y="-50" type="line"/>
      <point x="633" y="-50" type="line"/>
    </contour>
  </outline>
</glyph>
<glyph name="ampersand" format="2">
  <advance width="1303"/>
  <unicode hex="0026"/>
  <outline>
    <contour>
      <point x="1228" y="135" type="curve"/>
      <point x="1197" y="143" type="line"/>
      <point x="1178" y="99"/>
      <point x="1156" y="82"/>
      <point x="1132" y="82" type="curve" smooth="yes"/>
      <point x="1106" y="82"/>
      <point x="1076" y="100"/>
      <point x="1042" y="124" type="curve" smooth="yes"/>
      <point x="533" y="469" type="line" smooth="yes"/>
      <point x="464" y="516"/>
      <point x="436" y="559"/>
      <point x="436" y="593" type="curve" smooth="yes"/>
      <point x="436" y="645"/>
      <point x="500" y="683"/>
      <point x="582" y="683" type="curve" smooth="yes"/>
      <point x="673" y="683"/>
      <point x="787" y="639"/>
      <point x="866" y="538" type="curve"/>
      <point x="896" y="538" type="line"/>
      <point x="855" y="677" type="line"/>
      <point x="786" y="704"/>
      <point x="686" y="718"/>
      <point x="584" y="718" type="curve" smooth="yes"/>
      <point x="389" y="718"/>
      <point x="188" y="666"/>
      <point x="188" y="545" type="curve" smooth="yes"/>
      <point x="188" y="500"/>
      <point x="221" y="450"/>
      <point x="286" y="405" type="curve" smooth="yes"/>
      <point x="805" y="45" type="line" smooth="yes"/>
      <point x="879" y="-6"/>
      <point x="972" y="-14"/>
      <point x="1018" y="-14" type="curve" smooth="yes"/>
      <point x="1118" y="-14"/>
      <point x="1212" y="41"/>
    </contour>
    <contour>
      <point x="540" y="-14" type="curve" smooth="yes"/>
      <point x="824" y="-14"/>
      <point x="1152" y="92"/>
      <point x="1152" y="421" type="curve"/>
      <point x="883" y="421" type="line"/>
      <point x="887" y="114"/>
      <point x="713" y="21"/>
      <point x="569" y="21" type="curve" smooth="yes"/>
      <point x="418" y="21"/>
      <point x="330" y="116"/>
      <point x="330" y="232" type="curve" smooth="yes"/>
      <point x="330" y="307"/>
      <point x="347" y="373"/>
      <point x="418" y="417" type="curve"/>
      <point x="364" y="422" type="line"/>
      <point x="162" y="381"/>
      <point x="70" y="296"/>
      <point x="70" y="203" type="curve" smooth="yes"/>
      <point x="70" y="81"/>
      <point x="242" y="-14"/>
    </contour>
    <contour>
      <point x="718" y="421" type="line"/>
      <point x="1152" y="421" type="line"/>
      <point x="1152" y="456" type="line"/>
      <point x="718" y="456" type="line"/>
    </contour>
  </outline>
</glyph>
<glyph name="quotesingle" format="2">
  <advance width="297"/>
  <unicode hex="0027"/>
  <outline>
    <contour>
      <point x="122" y="439" type="line"/>
      <point x="205" y="473"/>
      <point x="233" y="541"/>
      <point x="226" y="645" type="curve" smooth="yes"/>
      <point x="222" y="689"/>
      <point x="190" y="717"/>
      <point x="136" y="717" type="curve" smooth="yes"/>
      <point x="80" y="717"/>
      <point x="47" y="687"/>
      <point x="47" y="645" type="curve" smooth="yes"/>
      <point x="47" y="603"/>
      <point x="78" y="573"/>
      <point x="136" y="573" type="curve" smooth="yes"/>
      <point x="153" y="573"/>
      <point x="173" y="575"/>
      <point x="189" y="584" type="curve"/>
      <point x="196" y="519"/>
      <point x="156" y="478"/>
      <point x="113" y="458" type="curve"/>
    </contour>
  </outline>
</glyph>
<glyph name="parenleft" format="2">
  <advance width="408"/>
  <unicode hex="0028"/>
  <outline>
    <contour>
      <point x="372" y="-162" type="curve"/>
      <point x="385" y="-135" type="line"/>
      <point x="208" y="-45"/>
      <point x="151" y="110"/>
      <point x="150" y="300" type="curve" smooth="yes"/>
      <point x="149" y="492"/>
      <point x="206" y="648"/>
      <point x="388" y="735" type="curve"/>
      <point x="375" y="762" type="line"/>
      <point x="181" y="679"/>
      <point x="41" y="505"/>
      <point x="40" y="300" type="curve" smooth="yes"/>
      <point x="39" y="95"/>
      <point x="179" y="-79"/>
    </contour>
  </outline>
</glyph>
<glyph name="parenright" format="2">
  <advance width="408"/>
  <unicode hex="0029"/>
  <outline>
    <contour>
      <point x="36" y="-162" type="line"/>
      <point x="229" y="-79"/>
      <point x="369" y="95"/>
      <point x="368" y="300" type="curve" smooth="yes"/>
      <point x="367" y="505"/>
      <point x="227" y="679"/>
      <point x="33" y="762" type="curve"/>
      <point x="20" y="735" type="line"/>
      <point x="202" y="648"/>
      <point x="259" y="492"/>
      <point x="258" y="300" type="curve" smooth="yes"/>
      <point x="257" y="110"/>
      <point x="200" y="-45"/>
      <point x="23" y="-135" type="curve"/>
    </contour>
  </outline>
</glyph>
<glyph name="asterisk" format="2">
  <advance width="527"/>
  <unicode hex="002A"/>
  <outline>
    <contour>
      <point x="463" y="563" type="line"/>
      <point x="434" y="626" type="line"/>
      <point x="286" y="545" type="line"/>
      <point x="299" y="715" type="line"/>
      <point x="229" y="715" type="line"/>
      <point x="241" y="549" type="line"/>
      <point x="93" y="630" type="line"/>
      <point x="64" y="567" type="line"/>
      <point x="212" y="513" type="line"/>
      <point x="64" y="459" type="line"/>
      <point x="93" y="395" type="line"/>
      <point x="241" y="476" type="line"/>
      <point x="229" y="309" type="line"/>
      <point x="299" y="309" type="line"/>
      <point x="285" y="480" type="line"/>
      <point x="434" y="399" type="line"/>
      <point x="463" y="463" type="line"/>
      <point x="326" y="513" type="line"/>
    </contour>
  </outline>
</glyph>
<glyph name="plus" format="2">
  <advance width="973"/>
  <unicode hex="002B"/>
  <outline>
    <contour>
      <point x="80" y="276" type="line"/>
      <point x="80" y="236" type="line"/>
      <point x="893" y="236" type="line"/>
      <point x="893" y="276" type="line"/>
    </contour>
    <contour>
      <point x="469" y="10" type="line"/>
      <point x="504" y="10" type="line"/>
      <point x="504" y="492" type="line"/>
      <point x="469" y="492" type="line"/>
    </contour>
  </outline>
</glyph>
<glyph name="comma" format="2">
  <advance width="324"/>
  <unicode hex="002C"/>
  <outline>
    <contour>
      <point x="99" y="-179" type="line"/>
      <point x="224" y="-130"/>
      <point x="251" y="-61"/>
      <point x="243" y="57" type="curve" smooth="yes"/>
      <point x="240" y="101"/>
      <point x="207" y="129"/>
      <point x="153" y="129" type="curve" smooth="yes"/>
      <point x="97" y="129"/>
      <point x="64" y="99"/>
      <point x="64" y="57" type="curve" smooth="yes"/>
      <point x="64" y="15"/>
      <point x="95" y="-15"/>
      <point x="153" y="-15" type="curve" smooth="yes"/>
      <point x="170" y="-15"/>
      <point x="190" y="-13"/>
      <point x="206" y="-4" type="curve"/>
      <point x="214" y="-72"/>
      <point x="153" y="-140"/>
      <point x="90" y="-160" type="curve"/>
    </contour>
  </outline>
</glyph>
<glyph name="hyphen" format="2">
  <advance width="460"/>
  <unicode hex="002D"/>
  <outline>
    <contour>
      <point x="74" y="286" type="line"/>
      <point x="74" y="226" type="line"/>
      <point x="386" y="226" type="line"/>
      <point x="386" y="286" type="line"/>
    </contour>
  </outline>
</glyph>
<glyph name="period" format="2">
  <advance width="396"/>
  <unicode hex="002E"/>
  <outline>
    <contour>
      <point x="198" y="-14" type="curve" smooth="yes"/>
      <point x="264" y="-14"/>
      <point x="309" y="16"/>
      <point x="309" y="75" type="curve" smooth="yes"/>
      <point x="309" y="135"/>
      <point x="264" y="166"/>
      <point x="199" y="166" type="curve" smooth="yes"/>
      <point x="133" y="166"/>
      <point x="86" y="135"/>
      <point x="86" y="75" type="curve" smooth="yes"/>
      <point x="86" y="16"/>
      <point x="133" y="-14"/>
    </contour>
  </outline>
</glyph>
<glyph name="slash" format="2">
  <advance width="333"/>
  <unicode hex="002F"/>
  <outline>
    <contour>
      <point x="256" y="722" type="line"/>
      <point x="7" y="-10" type="line"/>
      <point x="76" y="-10" type="line"/>
      <point x="325" y="722" type="line"/>
    </contour>
  </outline>
</glyph>
<glyph name="zero" format="2">
  <advance width="1067"/>
  <unicode hex="0030"/>
  <outline>
    <contour>
      <point x="535" y="-15" type="curve" smooth="yes"/>
      <point x="798" y="-15"/>
      <point x="1025" y="123"/>
      <point x="1025" y="345" type="curve" smooth="yes"/>
      <point x="1025" y="566"/>
      <point x="798" y="715"/>
      <point x="535" y="715" type="curve" smooth="yes"/>
      <point x="271" y="715"/>
      <point x="42" y="566"/>
      <point x="42" y="345" type="curve" smooth="yes"/>
      <point x="42" y="123"/>
      <point x="271" y="-15"/>
    </contour>
    <contour>
      <point x="536" y="225" type="curve" smooth="yes"/>
      <point x="302" y="225"/>
      <point x="67" y="236"/>
      <point x="67" y="347" type="curve" smooth="yes"/>
      <point x="67" y="459"/>
      <point x="306" y="475"/>
      <point x="543" y="475" type="curve" smooth="yes"/>
      <point x="773" y="475"/>
      <point x="1000" y="459"/>
      <point x="1000" y="347" type="curve" smooth="yes"/>
      <point x="1000" y="235"/>
      <point x="768" y="225"/>
    </contour>
  </outline>
</glyph>
<glyph name="one" format="2">
  <advance width="747"/>
  <unicode hex="0031"/>
  <outline>
    <contour>
      <point x="561" y="124" type="curve" smooth="yes"/>
      <point x="561" y="700" type="line"/>
      <point x="361" y="700" type="line"/>
      <point x="285" y="610"/>
      <point x="121" y="542"/>
      <point x="22" y="547" type="curve"/>
      <point x="22" y="512" type="line"/>
      <point x="117" y="506"/>
      <point x="221" y="531"/>
      <point x="281" y="570" type="curve"/>
      <point x="281" y="124" type="line" smooth="yes"/>
      <point x="281" y="24"/>
      <point x="197" y="31"/>
      <point x="111" y="24" type="curve"/>
      <point x="111" y="0" type="line"/>
      <point x="731" y="0" type="line"/>
      <point x="731" y="24" type="line"/>
      <point x="657" y="31"/>
      <point x="561" y="22"/>
    </contour>
  </outline>
</glyph>
<glyph name="two" format="2">
  <advance width="979"/>
  <unicode hex="0032"/>
  <outline>
    <contour>
      <point x="729" y="-15" type="curve" smooth="yes"/>
      <point x="878" y="-6"/>
      <point x="913" y="135"/>
      <point x="913" y="284" type="curve"/>
      <point x="878" y="284" type="line"/>
      <point x="878" y="207"/>
      <point x="844" y="190"/>
      <point x="798" y="190" type="curve" smooth="yes"/>
      <point x="705" y="190"/>
      <point x="540" y="255"/>
      <point x="446" y="255" type="curve"/>
      <point x="622" y="305"/>
      <point x="933" y="345"/>
      <point x="933" y="504" type="curve" smooth="yes"/>
      <point x="933" y="651"/>
      <point x="683" y="714"/>
      <point x="447" y="714" type="curve" smooth="yes"/>
      <point x="288" y="714"/>
      <point x="136" y="686"/>
      <point x="69" y="637" type="curve"/>
      <point x="42" y="470" type="line"/>
      <point x="82" y="470" type="line"/>
      <point x="157" y="610"/>
      <point x="304" y="679"/>
      <point x="418" y="679" type="curve" smooth="yes"/>
      <point x="540" y="679"/>
      <point x="648" y="625"/>
      <point x="648" y="512" type="curve" smooth="yes"/>
      <point x="648" y="352"/>
      <point x="443" y="333"/>
      <point x="183" y="154" type="curve" smooth="yes"/>
      <point x="113" y="106"/>
      <point x="52" y="44"/>
      <point x="37" y="0" type="curve"/>
      <point x="73" y="0" type="line"/>
      <point x="84" y="19"/>
      <point x="100" y="38"/>
      <point x="119" y="53" type="curve" smooth="yes"/>
      <point x="140" y="68"/>
      <point x="165" y="79"/>
      <point x="185" y="79" type="curve" smooth="yes"/>
      <point x="376" y="79"/>
      <point x="540" y="-26"/>
    </contour>
  </outline>
</glyph>
<glyph name="three" format="2">
  <advance width="1032"/>
  <unicode hex="0033"/>
  <outline>
    <contour>
      <point x="475" y="-15" type="curve" smooth="yes"/>
      <point x="804" y="-15"/>
      <point x="991" y="59"/>
      <point x="991" y="197" type="curve" smooth="yes"/>
      <point x="991" y="292"/>
      <point x="880" y="364"/>
      <point x="666" y="399" type="curve"/>
      <point x="842" y="412"/>
      <point x="972" y="451"/>
      <point x="972" y="549" type="curve" smooth="yes"/>
      <point x="972" y="647"/>
      <point x="779" y="715"/>
      <point x="531" y="715" type="curve" smooth="yes"/>
      <point x="407" y="715"/>
      <point x="251" y="689"/>
      <point x="129" y="637" type="curve"/>
      <point x="102" y="470" type="line"/>
      <point x="132" y="470" type="line"/>
      <point x="180" y="592"/>
      <point x="358" y="679"/>
      <point x="499" y="679" type="curve" smooth="yes"/>
      <point x="588" y="679"/>
      <point x="687" y="645"/>
      <point x="687" y="564" type="curve" smooth="yes"/>
      <point x="687" y="494"/>
      <point x="612" y="418"/>
      <point x="419" y="418" type="curve" smooth="yes"/>
      <point x="298" y="418" type="line"/>
      <point x="275" y="383" type="line"/>
      <point x="419" y="383" type="line" smooth="yes"/>
      <point x="608" y="383"/>
      <point x="707" y="280"/>
      <point x="707" y="183" type="curve" smooth="yes"/>
      <point x="707" y="101"/>
      <point x="635" y="24"/>
      <point x="486" y="20" type="curve" smooth="yes"/>
      <point x="278" y="15"/>
      <point x="131" y="94"/>
      <point x="62" y="230" type="curve"/>
      <point x="32" y="230" type="line"/>
      <point x="59" y="63" type="line"/>
      <point x="174" y="14"/>
      <point x="331" y="-15"/>
    </contour>
  </outline>
</glyph>
<glyph name="four" format="2">
  <advance width="995"/>
  <unicode hex="0034"/>
  <outline>
    <contour>
      <point x="784" y="124" type="curve" smooth="yes"/>
      <point x="784" y="270" type="line"/>
      <point x="942" y="270" type="line"/>
      <point x="942" y="461" type="line"/>
      <point x="917" y="461" type="line"/>
      <point x="917" y="421"/>
      <point x="898" y="400"/>
      <point x="851" y="400" type="curve" smooth="yes"/>
      <point x="784" y="400" type="line"/>
      <point x="784" y="700" type="line"/>
      <point x="504" y="700" type="line"/>
      <point x="33" y="400" type="line"/>
      <point x="33" y="270" type="line"/>
      <point x="504" y="270" type="line"/>
      <point x="504" y="124" type="line" smooth="yes"/>
      <point x="504" y="24"/>
      <point x="420" y="31"/>
      <point x="334" y="24" type="curve"/>
      <point x="334" y="0" type="line"/>
      <point x="954" y="0" type="line"/>
      <point x="954" y="24" type="line"/>
      <point x="880" y="31"/>
      <point x="784" y="22"/>
    </contour>
    <contour>
      <point x="100" y="400" type="line"/>
      <point x="504" y="660" type="line"/>
      <point x="504" y="400" type="line"/>
    </contour>
  </outline>
</glyph>
<glyph name="five" format="2">
  <advance width="963"/>
  <unicode hex="0035"/>
  <outline>
    <contour>
      <point x="841" y="513" type="curve"/>
      <point x="865" y="513" type="line"/>
      <point x="865" y="700" type="line"/>
      <point x="80" y="700" type="line"/>
      <point x="80" y="570" type="line"/>
      <point x="767" y="570" type="line"/>
      <point x="820" y="570"/>
      <point x="841" y="553"/>
    </contour>
    <contour>
      <point x="63" y="208" type="line"/>
      <point x="107" y="32" type="line"/>
      <point x="182" y="1"/>
      <point x="286" y="-15"/>
      <point x="394" y="-15" type="curve" smooth="yes"/>
      <point x="645" y="-15"/>
      <point x="922" y="55"/>
      <point x="922" y="253" type="curve" smooth="yes"/>
      <point x="922" y="439"/>
      <point x="695" y="515"/>
      <point x="422" y="515" type="curve" smooth="yes"/>
      <point x="260" y="515"/>
      <point x="151" y="468"/>
      <point x="115" y="412" type="curve"/>
      <point x="115" y="581" type="line"/>
      <point x="80" y="581" type="line"/>
      <point x="80" y="357" type="line"/>
      <point x="115" y="357" type="line"/>
      <point x="151" y="436"/>
      <point x="278" y="480"/>
      <point x="382" y="480" type="curve" smooth="yes"/>
      <point x="519" y="480"/>
      <point x="637" y="393"/>
      <point x="637" y="240" type="curve" smooth="yes"/>
      <point x="637" y="68"/>
      <point x="520" y="20"/>
      <point x="392" y="20" type="curve" smooth="yes"/>
      <point x="274" y="20"/>
      <point x="146" y="75"/>
      <point x="93" y="208" type="curve"/>
    </contour>
  </outline>
</glyph>
<glyph name="six" format="2">
  <advance width="1086"/>
  <unicode hex="0036"/>
  <outline>
    <contour>
      <point x="1034" y="246" type="curve" smooth="yes"/>
      <point x="1034" y="422"/>
      <point x="841" y="515"/>
      <point x="572" y="515" type="curve" smooth="yes"/>
      <point x="455" y="515"/>
      <point x="354" y="492"/>
      <point x="326" y="470" type="curve"/>
      <point x="338" y="613"/>
      <point x="457" y="680"/>
      <point x="594" y="680" type="curve" smooth="yes"/>
      <point x="739" y="680"/>
      <point x="904" y="607"/>
      <point x="989" y="470" type="curve"/>
      <point x="1019" y="470" type="line"/>
      <point x="992" y="637" type="line"/>
      <point x="868" y="690"/>
      <point x="728" y="716"/>
      <point x="594" y="716" type="curve" smooth="yes"/>
      <point x="303" y="716"/>
      <point x="42" y="589"/>
      <point x="42" y="325" type="curve" smooth="yes"/>
      <point x="42" y="97"/>
      <point x="321" y="-15"/>
      <point x="581" y="-15" type="curve" smooth="yes"/>
      <point x="843" y="-15"/>
      <point x="1034" y="70"/>
    </contour>
    <contour>
      <point x="328" y="246" type="curve" smooth="yes"/>
      <point x="328" y="402"/>
      <point x="432" y="479"/>
      <point x="538" y="479" type="curve" smooth="yes"/>
      <point x="643" y="479"/>
      <point x="749" y="402"/>
      <point x="749" y="246" type="curve" smooth="yes"/>
      <point x="749" y="96"/>
      <point x="643" y="20"/>
      <point x="538" y="20" type="curve" smooth="yes"/>
      <point x="432" y="20"/>
      <point x="328" y="96"/>
    </contour>
  </outline>
</glyph>
<glyph name="seven" format="2">
  <advance width="835"/>
  <unicode hex="0037"/>
  <outline>
    <contour>
      <point x="36" y="700" type="line"/>
      <point x="36" y="509" type="line"/>
      <point x="60" y="509" type="line"/>
      <point x="60" y="549"/>
      <point x="79" y="570"/>
      <point x="126" y="570" type="curve" smooth="yes"/>
      <point x="765" y="570" type="line"/>
      <point x="764" y="501"/>
      <point x="521" y="434"/>
      <point x="351" y="298" type="curve" smooth="yes"/>
      <point x="257" y="223"/>
      <point x="185" y="128"/>
      <point x="186" y="0" type="curve"/>
      <point x="471" y="0" type="line"/>
      <point x="471" y="146"/>
      <point x="520" y="235"/>
      <point x="579" y="301" type="curve" smooth="yes"/>
      <point x="675" y="406"/>
      <point x="800" y="451"/>
      <point x="800" y="570" type="curve"/>
      <point x="800" y="700" type="line"/>
    </contour>
  </outline>
</glyph>
<glyph name="eight" format="2">
  <advance width="950"/>
  <unicode hex="0038"/>
  <outline>
    <contour>
      <point x="85" y="256"/>
      <point x="694" y="322"/>
      <point x="694" y="139" type="curve" smooth="yes"/>
      <point x="694" y="49"/>
      <point x="589" y="20"/>
      <point x="473" y="20" type="curve" smooth="yes"/>
      <point x="326" y="20"/>
      <point x="258" y="83"/>
      <point x="258" y="168" type="curve" smooth="yes"/>
      <point x="258" y="253"/>
      <point x="334" y="292"/>
      <point x="393" y="310" type="curve"/>
      <point x="383" y="353" type="line"/>
      <point x="228" y="342"/>
      <point x="33" y="291"/>
      <point x="33" y="173" type="curve" smooth="yes"/>
      <point x="33" y="41"/>
      <point x="230" y="-15"/>
      <point x="473" y="-15" type="curve" smooth="yes"/>
      <point x="716" y="-15"/>
      <point x="913" y="41"/>
      <point x="913" y="206" type="curve" smooth="yes"/>
      <point x="913" y="499"/>
      <point x="310" y="397"/>
      <point x="310" y="584" type="curve" smooth="yes"/>
      <point x="310" y="663"/>
      <point x="393" y="686"/>
      <point x="473" y="686" type="curve" smooth="yes"/>
      <point x="553" y="686"/>
      <point x="629" y="657"/>
      <point x="629" y="570" type="curve" smooth="yes"/>
      <point x="629" y="511"/>
      <point x="600" y="466"/>
      <point x="554" y="446" type="curve"/>
      <point x="584" y="423" type="line"/>
      <point x="645" y="423"/>
      <point x="861" y="455"/>
      <point x="861" y="571" type="curve" smooth="yes"/>
      <point x="861" y="688"/>
      <point x="677" y="715"/>
      <point x="473" y="715" type="curve" smooth="yes"/>
      <point x="268" y="715"/>
      <point x="85" y="658"/>
      <point x="85" y="530" type="curve" smooth="yes"/>
    </contour>
  </outline>
</glyph>
<glyph name="nine" format="2">
  <advance width="1088"/>
  <unicode hex="0039"/>
  <outline>
    <contour>
      <point x="52" y="455" type="curve" smooth="yes"/>
      <point x="52" y="279"/>
      <point x="245" y="186"/>
      <point x="514" y="186" type="curve" smooth="yes"/>
      <point x="631" y="186"/>
      <point x="735" y="209"/>
      <point x="763" y="231" type="curve"/>
      <point x="747" y="87"/>
      <point x="654" y="21"/>
      <point x="502" y="21" type="curve" smooth="yes"/>
      <point x="357" y="21"/>
      <point x="182" y="94"/>
      <point x="97" y="231" type="curve"/>
      <point x="67" y="231" type="line"/>
      <point x="94" y="64" type="line"/>
      <point x="218" y="11"/>
      <point x="368" y="-15"/>
      <point x="502" y="-15" type="curve" smooth="yes"/>
      <point x="813" y="-15"/>
      <point x="1044" y="112"/>
      <point x="1044" y="408" type="curve" smooth="yes"/>
      <point x="1044" y="644"/>
      <point x="765" y="716"/>
      <point x="505" y="716" type="curve" smooth="yes"/>
      <point x="243" y="716"/>
      <point x="52" y="631"/>
    </contour>
    <contour>
      <point x="758" y="455" type="curve" smooth="yes"/>
      <point x="758" y="299"/>
      <point x="654" y="222"/>
      <point x="548" y="222" type="curve" smooth="yes"/>
      <point x="443" y="222"/>
      <point x="337" y="299"/>
      <point x="337" y="455" type="curve" smooth="yes"/>
      <point x="337" y="605"/>
      <point x="443" y="681"/>
      <point x="548" y="681" type="curve" smooth="yes"/>
      <point x="654" y="681"/>
      <point x="758" y="605"/>
    </contour>
  </outline>
</glyph>
<glyph name="less" format="2">
  <advance width="1004"/>
  <unicode hex="003C"/>
  <outline>
    <contour>
      <point x="919" y="-8" type="line"/>
      <point x="919" y="34" type="line"/>
      <point x="117" y="267" type="line"/>
      <point x="919" y="502" type="line"/>
      <point x="919" y="544" type="line"/>
      <point x="90" y="301" type="line"/>
      <point x="90" y="233" type="line"/>
    </contour>
  </outline>
</glyph>
<glyph name="equal" format="2">
  <advance width="973"/>
  <unicode hex="003D"/>
  <outline>
    <contour>
      <point x="80" y="406" type="line"/>
      <point x="80" y="366" type="line"/>
      <point x="893" y="366" type="line"/>
      <point x="893" y="406" type="line"/>
    </contour>
    <contour>
      <point x="80" y="146" type="line"/>
      <point x="80" y="106" type="line"/>
      <point x="893" y="106" type="line"/>
      <point x="893" y="146" type="line"/>
    </contour>
  </outline>
</glyph>
<glyph name="greater" format="2">
  <advance width="1004"/>
  <unicode hex="003E"/>
  <outline>
    <contour>
      <point x="85" y="544" type="line"/>
      <point x="85" y="502" type="line"/>
      <point x="887" y="267" type="line"/>
      <point x="85" y="34" type="line"/>
      <point x="85" y="-8" type="line"/>
      <point x="914" y="233" type="line"/>
      <point x="914" y="301" type="line"/>
    </contour>
  </outline>
</glyph>
<glyph name="question" format="2">
  <advance width="1009"/>
  <unicode hex="003F"/>
  <outline>
    <contour>
      <point x="506" y="229" type="curve" smooth="yes"/>
      <point x="593" y="229"/>
      <point x="678" y="258"/>
      <point x="678" y="325" type="curve"/>
      <point x="643" y="325" type="line"/>
      <point x="643" y="284"/>
      <point x="580" y="264"/>
      <point x="518" y="264" type="curve" smooth="yes"/>
      <point x="459" y="264"/>
      <point x="401" y="282"/>
      <point x="401" y="310" type="curve" smooth="yes"/>
      <point x="401" y="398"/>
      <point x="968" y="357"/>
      <point x="968" y="557" type="curve" smooth="yes"/>
      <point x="968" y="687"/>
      <point x="714" y="715"/>
      <point x="495" y="715" type="curve" smooth="yes"/>
      <point x="355" y="715"/>
      <point x="195" y="694"/>
      <point x="70" y="649" type="curve"/>
      <point x="43" y="507" type="line"/>
      <point x="73" y="507" type="line"/>
      <point x="162" y="634"/>
      <point x="333" y="680"/>
      <point x="506" y="680" type="curve" smooth="yes"/>
      <point x="628" y="680"/>
      <point x="691" y="634"/>
      <point x="691" y="578" type="curve" smooth="yes"/>
      <point x="691" y="468"/>
      <point x="239" y="511"/>
      <point x="239" y="346" type="curve" smooth="yes"/>
      <point x="239" y="268"/>
      <point x="364" y="229"/>
    </contour>
    <contour>
      <point x="496" y="-15" type="curve" smooth="yes"/>
      <point x="562" y="-15"/>
      <point x="607" y="15"/>
      <point x="607" y="74" type="curve" smooth="yes"/>
      <point x="607" y="134"/>
      <point x="562" y="165"/>
      <point x="497" y="165" type="curve" smooth="yes"/>
      <point x="431" y="165"/>
      <point x="384" y="134"/>
      <point x="384" y="74" type="curve" smooth="yes"/>
      <point x="384" y="15"/>
      <point x="431" y="-15"/>
    </contour>
  </outline>
</glyph>
<glyph name="at" format="2">
  <advance width="1522"/>
  <unicode hex="0040"/>
  <outline>
    <contour>
      <point x="681" y="-103" type="curve" smooth="yes"/>
      <point x="782" y="-103"/>
      <point x="876" y="-89"/>
      <point x="963" y="-59" type="curve"/>
      <point x="951" y="-26" type="line"/>
      <point x="874" y="-54"/>
      <point x="782" y="-68"/>
      <point x="681" y="-68" type="curve" smooth="yes"/>
      <point x="367" y="-68"/>
      <point x="205" y="55"/>
      <point x="205" y="250" type="curve" smooth="yes"/>
      <point x="205" y="454"/>
      <point x="444" y="585"/>
      <point x="757" y="585" type="curve" smooth="yes"/>
      <point x="1066" y="585"/>
      <point x="1317" y="464"/>
      <point x="1317" y="208" type="curve" smooth="yes"/>
      <point x="1317" y="149"/>
      <point x="1305" y="41"/>
      <point x="1249" y="41" type="curve" smooth="yes"/>
      <point x="1222" y="41"/>
      <point x="1204" y="70"/>
      <point x="1204" y="134" type="curve" smooth="yes"/>
      <point x="1204" y="308" type="line" smooth="yes"/>
      <point x="1204" y="483"/>
      <point x="984" y="515"/>
      <point x="740" y="515" type="curve" smooth="yes"/>
      <point x="611" y="515"/>
      <point x="497" y="495"/>
      <point x="400" y="458" type="curve"/>
      <point x="366" y="292" type="line"/>
      <point x="396" y="292" type="line"/>
      <point x="473" y="429"/>
      <point x="603" y="480"/>
      <point x="732" y="480" type="curve" smooth="yes"/>
      <point x="825" y="480"/>
      <point x="893" y="457"/>
      <point x="915" y="377" type="curve"/>
      <point x="408" y="336"/>
      <point x="330" y="227"/>
      <point x="330" y="121" type="curve" smooth="yes"/>
      <point x="330" y="12"/>
      <point x="487" y="-15"/>
      <point x="638" y="-15" type="curve" smooth="yes"/>
      <point x="775" y="-15"/>
      <point x="909" y="14"/>
      <point x="944" y="72" type="curve"/>
      <point x="980" y="15"/>
      <point x="1062" y="-16"/>
      <point x="1174" y="-16" type="curve" smooth="yes"/>
      <point x="1358" y="-16"/>
      <point x="1477" y="60"/>
      <point x="1477" y="217" type="curve" smooth="yes"/>
      <point x="1477" y="486"/>
      <point x="1113" y="620"/>
      <point x="757" y="620" type="curve" smooth="yes"/>
      <point x="399" y="620"/>
      <point x="45" y="471"/>
      <point x="45" y="250" type="curve" smooth="yes"/>
      <point x="45" y="61"/>
      <point x="293" y="-103"/>
    </contour>
    <contour>
      <point x="726" y="27" type="curve" smooth="yes"/>
      <point x="662" y="27"/>
      <point x="615" y="60"/>
      <point x="615" y="124" type="curve" smooth="yes"/>
      <point x="615" y="279"/>
      <point x="727" y="328"/>
      <point x="921" y="343" type="curve"/>
      <point x="923" y="329"/>
      <point x="924" y="313"/>
      <point x="924" y="296" type="curve" smooth="yes"/>
      <point x="924" y="188" type="line" smooth="yes"/>
      <point x="924" y="80"/>
      <point x="824" y="27"/>
    </contour>
  </outline>
</glyph>
<glyph name="A" format="2">
  <advance width="1233"/>
  <unicode hex="0041"/>
  <anchor x="617" y="0" name="bottom"/>
  <anchor x="1110" y="10" name="ogonek"/>
  <anchor x="617" y="670" name="top"/>
  <outline>
    <contour>
      <point x="20" y="0" type="line"/>
      <point x="362" y="0" type="line"/>
      <point x="362" y="24" type="line"/>
      <point x="280" y="28"/>
      <point x="229" y="24"/>
      <point x="286" y="114" type="curve" smooth="yes"/>
      <point x="334" y="189" type="line"/>
      <point x="637" y="189" type="line"/>
      <point x="679" y="119" type="line" smooth="yes"/>
      <point x="736" y="24"/>
      <point x="687" y="31"/>
      <point x="604" y="24" type="curve"/>
      <point x="604" y="0" type="line"/>
      <point x="1213" y="0" type="line"/>
      <point x="1213" y="24" type="line"/>
      <point x="1130" y="31"/>
      <point x="1069" y="20"/>
      <point x="1009" y="117" type="curve" smooth="yes"/>
      <point x="638" y="715" type="line"/>
      <point x="628" y="715" type="line"/>
      <point x="249" y="122" type="line" smooth="yes"/>
      <point x="186" y="23"/>
      <point x="104" y="31"/>
      <point x="20" y="24" type="curve"/>
    </contour>
    <contour>
      <point x="357" y="224" type="line"/>
      <point x="485" y="429" type="line"/>
      <point x="615" y="224" type="line"/>
    </contour>
  </outline>
</glyph>
<glyph name="B" format="2">
  <advance width="1084"/>
  <unicode hex="0042"/>
  <anchor x="542" y="0" name="bottom"/>
  <anchor x="542" y="350" name="center"/>
  <anchor x="542" y="700" name="top"/>
  <outline>
    <contour>
      <point x="794" y="421" type="curve"/>
      <point x="916" y="429"/>
      <point x="1000" y="471"/>
      <point x="1000" y="558" type="curve" smooth="yes"/>
      <point x="1000" y="629"/>
      <point x="947" y="700"/>
      <point x="716" y="700" type="curve" smooth="yes"/>
      <point x="27" y="700" type="line"/>
      <point x="27" y="676" type="line"/>
      <point x="113" y="669"/>
      <point x="177" y="676"/>
      <point x="177" y="576" type="curve" smooth="yes"/>
      <point x="177" y="124" type="line" smooth="yes"/>
      <point x="177" y="24"/>
      <point x="113" y="31"/>
      <point x="27" y="24" type="curve"/>
      <point x="27" y="0" type="line"/>
      <point x="729" y="1" type="line" smooth="yes"/>
      <point x="979" y="2"/>
      <point x="1038" y="96"/>
      <point x="1038" y="211" type="curve" smooth="yes"/>
      <point x="1038" y="326"/>
      <point x="927" y="420"/>
    </contour>
    <contour>
      <point x="551" y="665" type="line" smooth="yes"/>
      <point x="661" y="665"/>
      <point x="715" y="609"/>
      <point x="715" y="552" type="curve" smooth="yes"/>
      <point x="715" y="495"/>
      <point x="660" y="438"/>
      <point x="551" y="438" type="curve" smooth="yes"/>
      <point x="457" y="438" type="line"/>
      <point x="457" y="665" type="line"/>
    </contour>
    <contour>
      <point x="490" y="35" type="curve" smooth="yes"/>
      <point x="457" y="35" type="line"/>
      <point x="457" y="403" type="line"/>
      <point x="490" y="403" type="line" smooth="yes"/>
      <point x="659" y="403"/>
      <point x="753" y="332"/>
      <point x="753" y="221" type="curve" smooth="yes"/>
      <point x="753" y="110"/>
      <point x="659" y="35"/>
    </contour>
  </outline>
</glyph>
<glyph name="C" format="2">
  <advance width="1134"/>
  <unicode hex="0043"/>
  <anchor x="567" y="0" name="bottom"/>
  <anchor x="567" y="700" name="top"/>
  <outline>
    <contour>
      <point x="649" y="715" type="curve" smooth="yes"/>
      <point x="335" y="715"/>
      <point x="44" y="578"/>
      <point x="44" y="345" type="curve" smooth="yes"/>
      <point x="44" y="82"/>
      <point x="335" y="-15"/>
      <point x="677" y="-15" type="curve" smooth="yes"/>
      <point x="921" y="-15"/>
      <point x="1050" y="78"/>
      <point x="1093" y="127" type="curve"/>
      <point x="1067" y="151" type="line"/>
      <point x="1022" y="102"/>
      <point x="915" y="46"/>
      <point x="748" y="46" type="curve" smooth="yes"/>
      <point x="482" y="46"/>
      <point x="324" y="179"/>
      <point x="324" y="378" type="curve" smooth="yes"/>
      <point x="324" y="519"/>
      <point x="437" y="680"/>
      <point x="677" y="680" type="curve" smooth="yes"/>
      <point x="800" y="680"/>
      <point x="957" y="621"/>
      <point x="1051" y="470" type="curve"/>
      <point x="1081" y="470" type="line"/>
      <point x="1054" y="637" type="line"/>
      <point x="929" y="690"/>
      <point x="769" y="715"/>
    </contour>
  </outline>
</glyph>
<glyph name="D" format="2">
  <advance width="1170"/>
  <unicode hex="0044"/>
  <anchor x="585" y="0" name="bottom"/>
  <anchor x="585" y="350" name="center"/>
  <anchor x="585" y="700" name="top"/>
  <outline>
    <contour>
      <point x="667" y="700" type="curve" smooth="yes"/>
      <point x="27" y="700" type="line"/>
      <point x="27" y="676" type="line"/>
      <point x="113" y="669"/>
      <point x="177" y="676"/>
      <point x="177" y="576" type="curve" smooth="yes"/>
      <point x="177" y="124" type="line" smooth="yes"/>
      <point x="177" y="24"/>
      <point x="113" y="31"/>
      <point x="27" y="24" type="curve"/>
      <point x="27" y="0" type="line"/>
      <point x="680" y="0" type="line" smooth="yes"/>
      <point x="994" y="0"/>
      <point x="1123" y="174"/>
      <point x="1123" y="348" type="curve" smooth="yes"/>
      <point x="1123" y="524"/>
      <point x="992" y="700"/>
    </contour>
    <contour>
      <point x="564" y="25" type="curve" smooth="yes"/>
      <point x="457" y="25" type="line"/>
      <point x="457" y="675" type="line"/>
      <point x="549" y="675" type="line" smooth="yes"/>
      <point x="742" y="675"/>
      <point x="838" y="509"/>
      <point x="838" y="344" type="curve" smooth="yes"/>
      <point x="838" y="184"/>
      <point x="746" y="25"/>
    </contour>
  </outline>
</glyph>
<glyph name="E" format="2">
  <advance width="1037"/>
  <unicode hex="0045"/>
  <anchor x="519" y="0" name="bottom"/>
  <anchor x="933" y="10" name="ogonek"/>
  <anchor x="519" y="700" name="top"/>
  <anchor x="20" y="700" name="topleft"/>
  <outline>
    <contour>
      <point x="686" y="665" type="line" smooth="yes"/>
      <point x="853" y="665"/>
      <point x="932" y="574"/>
      <point x="939" y="455" type="curve"/>
      <point x="959" y="455" type="line"/>
      <point x="959" y="700" type="line"/>
      <point x="27" y="700" type="line"/>
      <point x="27" y="676" type="line"/>
      <point x="113" y="669"/>
      <point x="177" y="676"/>
      <point x="177" y="576" type="curve" smooth="yes"/>
      <point x="177" y="124" type="line" smooth="yes"/>
      <point x="177" y="24"/>
      <point x="113" y="31"/>
      <point x="27" y="24" type="curve"/>
      <point x="27" y="0" type="line"/>
      <point x="959" y="0" type="line"/>
      <point x="959" y="245" type="line"/>
      <point x="939" y="245" type="line"/>
      <point x="932" y="125"/>
      <point x="853" y="35"/>
      <point x="686" y="35" type="curve" smooth="yes"/>
      <point x="457" y="35" type="line"/>
      <point x="457" y="465" type="line"/>
      <point x="524" y="465" type="line" smooth="yes"/>
      <point x="601" y="465"/>
      <point x="673" y="395"/>
      <point x="727" y="274" type="curve"/>
      <point x="745" y="277" type="line"/>
      <point x="631" y="620" type="line"/>
      <point x="613" y="617" type="line"/>
      <point x="623" y="545"/>
      <point x="607" y="500"/>
      <point x="524" y="500" type="curve" smooth="yes"/>
      <point x="457" y="500" type="line"/>
      <point x="457" y="665" type="line"/>
    </contour>
  </outline>
</glyph>
<glyph name="G" format="2">
  <advance width="1287"/>
  <unicode hex="0047"/>
  <anchor x="644" y="0" name="bottom"/>
  <anchor x="644" y="700" name="top"/>
  <outline>
    <contour>
      <point x="683" y="430" type="line"/>
      <point x="683" y="406" type="line"/>
      <point x="769" y="399"/>
      <point x="833" y="406"/>
      <point x="833" y="306" type="curve" smooth="yes"/>
      <point x="833" y="62" type="line"/>
      <point x="787" y="35"/>
      <point x="731" y="21"/>
      <point x="676" y="21" type="curve" smooth="yes"/>
      <point x="467" y="21"/>
      <point x="328" y="140"/>
      <point x="328" y="341" type="curve" smooth="yes"/>
      <point x="328" y="509"/>
      <point x="423" y="680"/>
      <point x="674" y="680" type="curve" smooth="yes"/>
      <point x="773" y="680"/>
      <point x="976" y="621"/>
      <point x="1070" y="470" type="curve"/>
      <point x="1100" y="470" type="line"/>
      <point x="1073" y="637" type="line"/>
      <point x="948" y="690"/>
      <point x="788" y="715"/>
      <point x="638" y="715" type="curve" smooth="yes"/>
      <point x="322" y="715"/>
      <point x="43" y="578"/>
      <point x="43" y="345" type="curve" smooth="yes"/>
      <point x="43" y="117"/>
      <point x="325" y="-15"/>
      <point x="638" y="-15" type="curve" smooth="yes"/>
      <point x="730" y="-15"/>
      <point x="792" y="2"/>
      <point x="838" y="25" type="curve"/>
      <point x="1113" y="-15" type="line"/>
      <point x="1113" y="306" type="line" smooth="yes"/>
      <point x="1113" y="408"/>
      <point x="1189" y="399"/>
      <point x="1263" y="406" type="curve"/>
      <point x="1263" y="430" type="line"/>
    </contour>
  </outline>
</glyph>
<glyph name="H" format="2">
  <advance width="1274"/>
  <unicode hex="0048"/>
  <anchor x="637" y="0" name="bottom"/>
  <anchor x="637" y="350" name="center"/>
  <anchor x="637" y="700" name="top"/>
  <anchor x="20" y="700" name="topleft"/>
  <outline>
    <contour>
      <point x="1247" y="676" type="curve"/>
      <point x="1247" y="700" type="line"/>
      <point x="667" y="700" type="line"/>
      <point x="667" y="676" type="line"/>
      <point x="753" y="669"/>
      <point x="817" y="676"/>
      <point x="817" y="576" type="curve" smooth="yes"/>
      <point x="817" y="500" type="line"/>
      <point x="457" y="500" type="line"/>
      <point x="457" y="576" type="line" smooth="yes"/>
      <point x="457" y="678"/>
      <point x="533" y="669"/>
      <point x="607" y="676" type="curve"/>
      <point x="607" y="700" type="line"/>
      <point x="27" y="700" type="line"/>
      <point x="27" y="676" type="line"/>
      <point x="113" y="669"/>
      <point x="177" y="676"/>
      <point x="177" y="576" type="curve" smooth="yes"/>
      <point x="177" y="124" type="line" smooth="yes"/>
      <point x="177" y="24"/>
      <point x="113" y="31"/>
      <point x="27" y="24" type="curve"/>
      <point x="27" y="0" type="line"/>
      <point x="607" y="0" type="line"/>
      <point x="607" y="24" type="line"/>
      <point x="533" y="31"/>
      <point x="457" y="22"/>
      <point x="457" y="124" type="curve" smooth="yes"/>
      <point x="457" y="465" type="line"/>
      <point x="817" y="465" type="line"/>
      <point x="817" y="124" type="line" smooth="yes"/>
      <point x="817" y="24"/>
      <point x="753" y="31"/>
      <point x="667" y="24" type="curve"/>
      <point x="667" y="0" type="line"/>
      <point x="1247" y="0" type="line"/>
      <point x="1247" y="24" type="line"/>
      <point x="1173" y="31"/>
      <point x="1097" y="22"/>
      <point x="1097" y="124" type="curve" smooth="yes"/>
      <point x="1097" y="576" type="line" smooth="yes"/>
      <point x="1097" y="678"/>
      <point x="1173" y="669"/>
    </contour>
  </outline>
</glyph>
<glyph name="I" format="2">
  <advance width="634"/>
  <unicode hex="0049"/>
  <anchor x="317" y="0" name="bottom"/>
  <anchor x="571" y="10" name="ogonek"/>
  <anchor x="317" y="700" name="top"/>
  <anchor x="20" y="700" name="topleft"/>
  <outline>
    <contour>
      <point x="27" y="0" type="line"/>
      <point x="607" y="0" type="line"/>
      <point x="607" y="24" type="line"/>
      <point x="533" y="31"/>
      <point x="457" y="22"/>
      <point x="457" y="124" type="curve" smooth="yes"/>
      <point x="457" y="576" type="line" smooth="yes"/>
      <point x="457" y="678"/>
      <point x="533" y="669"/>
      <point x="607" y="676" type="curve"/>
      <point x="607" y="700" type="line"/>
      <point x="27" y="700" type="line"/>
      <point x="27" y="676" type="line"/>
      <point x="113" y="669"/>
      <point x="177" y="676"/>
      <point x="177" y="576" type="curve" smooth="yes"/>
      <point x="177" y="124" type="line" smooth="yes"/>
      <point x="177" y="24"/>
      <point x="113" y="31"/>
      <point x="27" y="24" type="curve"/>
    </contour>
  </outline>
</glyph>
<glyph name="J" format="2">
  <advance width="620"/>
  <unicode hex="004A"/>
  <anchor x="310" y="0" name="bottom"/>
  <anchor x="310" y="700" name="top"/>
  <outline>
    <contour>
      <point x="600" y="700" type="line"/>
      <point x="20" y="700" type="line"/>
      <point x="20" y="676" type="line"/>
      <point x="106" y="669"/>
      <point x="170" y="676"/>
      <point x="170" y="576" type="curve" smooth="yes"/>
      <point x="170" y="13" type="line" smooth="yes"/>
      <point x="170" y="-123"/>
      <point x="84" y="-171"/>
      <point x="5" y="-171" type="curve" smooth="yes"/>
      <point x="-71" y="-171"/>
      <point x="-185" y="-126"/>
      <point x="-222" y="-69" type="curve"/>
      <point x="-253" y="-87" type="line"/>
      <point x="-139" y="-257"/>
      <point x="210" y="-265"/>
      <point x="370" y="-94" type="curve" smooth="yes"/>
      <point x="431" y="-28"/>
      <point x="450" y="72"/>
      <point x="450" y="164" type="curve" smooth="yes"/>
      <point x="450" y="576" type="line" smooth="yes"/>
      <point x="450" y="678"/>
      <point x="526" y="669"/>
      <point x="600" y="676" type="curve"/>
    </contour>
  </outline>
</glyph>
<glyph name="K" format="2">
  <advance width="1296"/>
  <unicode hex="004B"/>
  <anchor x="648" y="0" name="bottom"/>
  <anchor x="648" y="700" name="top"/>
  <outline>
    <contour>
      <point x="1059" y="117" type="curve" smooth="yes"/>
      <point x="772" y="548" type="line"/>
      <point x="880" y="598" type="line" smooth="yes"/>
      <point x="1054" y="677"/>
      <point x="1138" y="675"/>
      <point x="1209" y="676" type="curve"/>
      <point x="1209" y="700" type="line"/>
      <point x="866" y="700" type="line"/>
      <point x="866" y="676" type="line"/>
      <point x="928" y="675"/>
      <point x="948" y="671"/>
      <point x="791" y="596" type="curve" smooth="yes"/>
      <point x="457" y="441" type="line"/>
      <point x="457" y="576" type="line" smooth="yes"/>
      <point x="457" y="678"/>
      <point x="533" y="675"/>
      <point x="607" y="676" type="curve"/>
      <point x="607" y="700" type="line"/>
      <point x="27" y="700" type="line"/>
      <point x="27" y="676" type="line"/>
      <point x="113" y="675"/>
      <point x="177" y="676"/>
      <point x="177" y="576" type="curve" smooth="yes"/>
      <point x="177" y="124" type="line" smooth="yes"/>
      <point x="177" y="24"/>
      <point x="113" y="28"/>
      <point x="27" y="24" type="curve"/>
      <point x="27" y="0" type="line"/>
      <point x="607" y="0" type="line"/>
      <point x="607" y="24" type="line"/>
      <point x="533" y="28"/>
      <point x="457" y="22"/>
      <point x="457" y="124" type="curve" smooth="yes"/>
      <point x="457" y="402" type="line"/>
      <point x="514" y="428" type="line"/>
      <point x="726" y="111" type="line" smooth="yes"/>
      <point x="780" y="18"/>
      <point x="720" y="26"/>
      <point x="650" y="24" type="curve"/>
      <point x="650" y="0" type="line"/>
      <point x="1276" y="0" type="line"/>
      <point x="1276" y="24" type="line"/>
      <point x="1214" y="25"/>
      <point x="1130" y="20"/>
    </contour>
  </outline>
</glyph>
<glyph name="L" format="2">
  <advance width="1005"/>
  <unicode hex="004C"/>
  <anchor x="503" y="0" name="bottom"/>
  <anchor x="503" y="350" name="center"/>
  <anchor x="363" y="700" name="top"/>
  <anchor x="650" y="800" name="topright"/>
  <outline>
    <contour>
      <point x="939" y="245" type="line"/>
      <point x="932" y="126"/>
      <point x="853" y="35"/>
      <point x="686" y="35" type="curve" smooth="yes"/>
      <point x="457" y="35" type="line"/>
      <point x="457" y="576" type="line" smooth="yes"/>
      <point x="457" y="676"/>
      <point x="521" y="669"/>
      <point x="607" y="676" type="curve"/>
      <point x="607" y="700" type="line"/>
      <point x="27" y="700" type="line"/>
      <point x="27" y="676" type="line"/>
      <point x="113" y="669"/>
      <point x="177" y="676"/>
      <point x="177" y="576" type="curve" smooth="yes"/>
      <point x="177" y="124" type="line" smooth="yes"/>
      <point x="177" y="24"/>
      <point x="113" y="31"/>
      <point x="27" y="24" type="curve"/>
      <point x="27" y="0" type="line"/>
      <point x="959" y="0" type="line"/>
      <point x="959" y="245" type="line"/>
    </contour>
  </outline>
</glyph>
<glyph name="M" format="2">
  <advance width="1347"/>
  <unicode hex="004D"/>
  <anchor x="674" y="0" name="bottom"/>
  <anchor x="674" y="700" name="top"/>
  <outline>
    <contour>
      <point x="1320" y="676" type="curve"/>
      <point x="1320" y="700" type="line"/>
      <point x="890" y="700" type="line"/>
      <point x="686" y="314" type="line"/>
      <point x="456" y="700" type="line"/>
      <point x="27" y="700" type="line"/>
      <point x="27" y="676" type="line"/>
      <point x="113" y="669"/>
      <point x="177" y="676"/>
      <point x="177" y="576" type="curve" smooth="yes"/>
      <point x="177" y="124" type="line" smooth="yes"/>
      <point x="177" y="24"/>
      <point x="113" y="31"/>
      <point x="27" y="24" type="curve"/>
      <point x="27" y="0" type="line"/>
      <point x="362" y="0" type="line"/>
      <point x="362" y="24" type="line"/>
      <point x="288" y="31"/>
      <point x="212" y="22"/>
      <point x="212" y="124" type="curve" smooth="yes"/>
      <point x="212" y="562" type="line"/>
      <point x="554" y="-10" type="line"/>
      <point x="890" y="626" type="line"/>
      <point x="890" y="124" type="line" smooth="yes"/>
      <point x="890" y="24"/>
      <point x="826" y="31"/>
      <point x="740" y="24" type="curve"/>
      <point x="740" y="0" type="line"/>
      <point x="1320" y="0" type="line"/>
      <point x="1320" y="24" type="line"/>
      <point x="1246" y="31"/>
      <point x="1170" y="22"/>
      <point x="1170" y="124" type="curve" smooth="yes"/>
      <point x="1170" y="576" type="line" smooth="yes"/>
      <point x="1170" y="678"/>
      <point x="1246" y="669"/>
    </contour>
  </outline>
</glyph>
<glyph name="N" format="2">
  <advance width="1166"/>
  <unicode hex="004E"/>
  <anchor x="583" y="0" name="bottom"/>
  <anchor x="583" y="700" name="top"/>
  <outline>
    <contour>
      <point x="811" y="700" type="line"/>
      <point x="811" y="676" type="line"/>
      <point x="897" y="669"/>
      <point x="961" y="676"/>
      <point x="961" y="576" type="curve" smooth="yes"/>
      <point x="961" y="368" type="line"/>
      <point x="547" y="700" type="line"/>
      <point x="27" y="700" type="line"/>
      <point x="27" y="676" type="line"/>
      <point x="113" y="669"/>
      <point x="177" y="676"/>
      <point x="177" y="576" type="curve" smooth="yes"/>
      <point x="177" y="124" type="line" smooth="yes"/>
      <point x="177" y="24"/>
      <point x="113" y="31"/>
      <point x="27" y="24" type="curve"/>
      <point x="27" y="0" type="line"/>
      <point x="362" y="0" type="line"/>
      <point x="362" y="24" type="line"/>
      <point x="288" y="31"/>
      <point x="212" y="22"/>
      <point x="212" y="124" type="curve" smooth="yes"/>
      <point x="212" y="609" type="line"/>
      <point x="991" y="-15" type="line"/>
      <point x="996" y="-15" type="line"/>
      <point x="996" y="576" type="line" smooth="yes"/>
      <point x="996" y="678"/>
      <point x="1072" y="669"/>
      <point x="1146" y="676" type="curve"/>
      <point x="1146" y="700" type="line"/>
    </contour>
  </outline>
</glyph>
<glyph name="O" format="2">
  <advance width="1267"/>
  <unicode hex="004F"/>
  <anchor x="634" y="0" name="bottom"/>
  <anchor x="634" y="350" name="center"/>
  <anchor x="1140" y="10" name="ogonek"/>
  <anchor x="634" y="700" name="top"/>
  <anchor x="20" y="700" name="topleft"/>
  <anchor x="1247" y="700" name="topright"/>
  <outline>
    <contour>
      <point x="635" y="-15" type="curve" smooth="yes"/>
      <point x="950" y="-15"/>
      <point x="1223" y="113"/>
      <point x="1223" y="345" type="curve" smooth="yes"/>
      <point x="1223" y="576"/>
      <point x="950" y="715"/>
      <point x="635" y="715" type="curve" smooth="yes"/>
      <point x="318" y="715"/>
      <point x="44" y="576"/>
      <point x="44" y="345" type="curve" smooth="yes"/>
      <point x="44" y="113"/>
      <point x="318" y="-15"/>
    </contour>
    <contour>
      <point x="635" y="20" type="curve" smooth="yes"/>
      <point x="434" y="20"/>
      <point x="334" y="185"/>
      <point x="334" y="350" type="curve" smooth="yes"/>
      <point x="334" y="515"/>
      <point x="434" y="680"/>
      <point x="635" y="680" type="curve" smooth="yes"/>
      <point x="833" y="680"/>
      <point x="933" y="514"/>
      <point x="933" y="349" type="curve" smooth="yes"/>
      <point x="933" y="184"/>
      <point x="834" y="20"/>
    </contour>
  </outline>
</glyph>
<glyph name="P" format="2">
  <advance width="1032"/>
  <unicode hex="0050"/>
  <anchor x="516" y="0" name="bottom"/>
  <anchor x="516" y="700" name="top"/>
  <outline>
    <contour>
      <point x="780" y="700" type="curve" smooth="yes"/>
      <point x="27" y="700" type="line"/>
      <point x="27" y="676" type="line"/>
      <point x="113" y="669"/>
      <point x="177" y="676"/>
      <point x="177" y="576" type="curve" smooth="yes"/>
      <point x="177" y="124" type="line" smooth="yes"/>
      <point x="177" y="24"/>
      <point x="113" y="31"/>
      <point x="27" y="24" type="curve"/>
      <point x="27" y="0" type="line"/>
      <point x="607" y="0" type="line"/>
      <point x="607" y="24" type="line"/>
      <point x="533" y="31"/>
      <point x="457" y="22"/>
      <point x="457" y="124" type="curve" smooth="yes"/>
      <point x="457" y="401" type="line"/>
      <point x="780" y="401" type="line" smooth="yes"/>
      <point x="926" y="401"/>
      <point x="999" y="475"/>
      <point x="999" y="550" type="curve" smooth="yes"/>
      <point x="999" y="625"/>
      <point x="925" y="700"/>
    </contour>
    <contour>
      <point x="558" y="665" type="line" smooth="yes"/>
      <point x="662" y="665"/>
      <point x="715" y="607"/>
      <point x="715" y="549" type="curve" smooth="yes"/>
      <point x="715" y="492"/>
      <point x="664" y="436"/>
      <point x="558" y="436" type="curve" smooth="yes"/>
      <point x="457" y="436" type="line"/>
      <point x="457" y="665" type="line"/>
    </contour>
  </outline>
</glyph>
<glyph name="Q" format="2">
  <advance width="1267"/>
  <unicode hex="0051"/>
  <anchor x="634" y="0" name="bottom"/>
  <anchor x="634" y="700" name="top"/>
  <outline>
    <contour>
      <point x="635" y="715" type="curve" smooth="yes"/>
      <point x="318" y="715"/>
      <point x="44" y="576"/>
      <point x="44" y="345" type="curve" smooth="yes"/>
      <point x="44" y="178"/>
      <point x="185" y="65"/>
      <point x="383" y="15" type="curve"/>
      <point x="273" y="-18"/>
      <point x="248" y="-110"/>
      <point x="248" y="-171" type="curve"/>
      <point x="270" y="-171" type="line"/>
      <point x="277" y="-135"/>
      <point x="293" y="-96"/>
      <point x="348" y="-96" type="curve" smooth="yes"/>
      <point x="513" y="-96"/>
      <point x="656" y="-228"/>
      <point x="883" y="-228" type="curve" smooth="yes"/>
      <point x="1078" y="-228"/>
      <point x="1145" y="-124"/>
      <point x="1152" y="-3" type="curve"/>
      <point x="1130" y="-3" type="line"/>
      <point x="1118" y="-55"/>
      <point x="1081" y="-92"/>
      <point x="1011" y="-92" type="curve" smooth="yes"/>
      <point x="922" y="-92"/>
      <point x="776" y="-49"/>
      <point x="649" y="-15" type="curve"/>
      <point x="958" y="-11"/>
      <point x="1223" y="116"/>
      <point x="1223" y="345" type="curve" smooth="yes"/>
      <point x="1223" y="576"/>
      <point x="950" y="715"/>
    </contour>
    <contour>
      <point x="334" y="350" type="curve" smooth="yes"/>
      <point x="334" y="515"/>
      <point x="434" y="680"/>
      <point x="635" y="680" type="curve" smooth="yes"/>
      <point x="833" y="680"/>
      <point x="933" y="514"/>
      <point x="933" y="349" type="curve" smooth="yes"/>
      <point x="933" y="184"/>
      <point x="834" y="20"/>
      <point x="635" y="20" type="curve" smooth="yes"/>
      <point x="434" y="20"/>
      <point x="334" y="185"/>
    </contour>
  </outline>
</glyph>
<glyph name="R" format="2">
  <advance width="1137"/>
  <unicode hex="0052"/>
  <anchor x="569" y="0" name="bottom"/>
  <anchor x="569" y="700" name="top"/>
  <outline>
    <contour>
      <point x="1017" y="91" type="curve" smooth="yes"/>
      <point x="952" y="248"/>
      <point x="1067" y="398"/>
      <point x="822" y="423" type="curve"/>
      <point x="942" y="434"/>
      <point x="1000" y="494"/>
      <point x="1000" y="556" type="curve" smooth="yes"/>
      <point x="1000" y="627"/>
      <point x="924" y="700"/>
      <point x="780" y="700" type="curve" smooth="yes"/>
      <point x="27" y="700" type="line"/>
      <point x="27" y="676" type="line"/>
      <point x="113" y="669"/>
      <point x="177" y="676"/>
      <point x="177" y="576" type="curve" smooth="yes"/>
      <point x="177" y="124" type="line" smooth="yes"/>
      <point x="177" y="24"/>
      <point x="113" y="31"/>
      <point x="27" y="24" type="curve"/>
      <point x="27" y="0" type="line"/>
      <point x="607" y="0" type="line"/>
      <point x="607" y="24" type="line"/>
      <point x="533" y="31"/>
      <point x="457" y="22"/>
      <point x="457" y="124" type="curve" smooth="yes"/>
      <point x="457" y="406" type="line"/>
      <point x="565" y="406" type="line" smooth="yes"/>
      <point x="781" y="406"/>
      <point x="680" y="216"/>
      <point x="731" y="82" type="curve" smooth="yes"/>
      <point x="756" y="16"/>
      <point x="849" y="-4"/>
      <point x="977" y="-4" type="curve" smooth="yes"/>
      <point x="1117" y="-4" type="line"/>
      <point x="1117" y="16" type="line"/>
      <point x="1075" y="16"/>
      <point x="1041" y="33"/>
    </contour>
    <contour>
      <point x="558" y="441" type="curve" smooth="yes"/>
      <point x="457" y="441" type="line"/>
      <point x="457" y="665" type="line"/>
      <point x="558" y="665" type="line" smooth="yes"/>
      <point x="662" y="665"/>
      <point x="715" y="608"/>
      <point x="715" y="552" type="curve" smooth="yes"/>
      <point x="715" y="496"/>
      <point x="663" y="441"/>
    </contour>
  </outline>
</glyph>
<glyph name="S" format="2">
  <advance width="1018"/>
  <unicode hex="0053"/>
  <anchor x="509" y="0" name="bottom"/>
  <anchor x="509" y="700" name="top"/>
  <outline>
    <contour>
      <point x="538" y="-15" type="curve" smooth="yes"/>
      <point x="762" y="-15"/>
      <point x="983" y="46"/>
      <point x="983" y="207" type="curve" smooth="yes"/>
      <point x="983" y="432"/>
      <point x="365" y="467"/>
      <point x="365" y="594" type="curve" smooth="yes"/>
      <point x="365" y="656"/>
      <point x="462" y="679"/>
      <point x="554" y="679" type="curve" smooth="yes"/>
      <point x="678" y="679"/>
      <point x="814" y="594"/>
      <point x="886" y="463" type="curve"/>
      <point x="916" y="463" type="line"/>
      <point x="863" y="656" type="line"/>
      <point x="755" y="696"/>
      <point x="631" y="715"/>
      <point x="517" y="715" type="curve" smooth="yes"/>
      <point x="281" y="715"/>
      <point x="85" y="656"/>
      <point x="85" y="515" type="curve" smooth="yes"/>
      <point x="85" y="255"/>
      <point x="703" y="210"/>
      <point x="703" y="103" type="curve" smooth="yes"/>
      <point x="703" y="42"/>
      <point x="607" y="24"/>
      <point x="494" y="24" type="curve" smooth="yes"/>
      <point x="362" y="24"/>
      <point x="173" y="122"/>
      <point x="73" y="308" type="curve"/>
      <point x="43" y="308" type="line"/>
      <point x="90" y="87" type="line"/>
      <point x="171" y="15"/>
      <point x="368" y="-15"/>
    </contour>
  </outline>
</glyph>
<glyph name="T" format="2">
  <advance width="1052"/>
  <unicode hex="0054"/>
  <anchor x="526" y="0" name="bottom"/>
  <anchor x="526" y="350" name="center"/>
  <anchor x="526" y="700" name="top"/>
  <outline>
    <contour>
      <point x="1006" y="700" type="line"/>
      <point x="46" y="700" type="line"/>
      <point x="46" y="455" type="line"/>
      <point x="66" y="455" type="line"/>
      <point x="73" y="574"/>
      <point x="152" y="665"/>
      <point x="319" y="665" type="curve" smooth="yes"/>
      <point x="386" y="665" type="line"/>
      <point x="386" y="124" type="line" smooth="yes"/>
      <point x="386" y="24"/>
      <point x="322" y="31"/>
      <point x="236" y="24" type="curve"/>
      <point x="236" y="0" type="line"/>
      <point x="816" y="0" type="line"/>
      <point x="816" y="24" type="line"/>
      <point x="730" y="31"/>
      <point x="666" y="24"/>
      <point x="666" y="124" type="curve" smooth="yes"/>
      <point x="666" y="665" type="line"/>
      <point x="733" y="665" type="line" smooth="yes"/>
      <point x="900" y="665"/>
      <point x="979" y="574"/>
      <point x="986" y="455" type="curve"/>
      <point x="1006" y="455" type="line"/>
    </contour>
  </outline>
</glyph>
<glyph name="U" format="2">
  <advance width="1326"/>
  <unicode hex="0055"/>
  <anchor x="663" y="0" name="bottom"/>
  <anchor x="1193" y="10" name="ogonek"/>
  <anchor x="663" y="700" name="top"/>
  <anchor x="1306" y="700" name="topright"/>
  <outline>
    <contour>
      <point x="1300" y="676" type="curve"/>
      <point x="1300" y="700" type="line"/>
      <point x="720" y="700" type="line"/>
      <point x="720" y="676" type="line"/>
      <point x="806" y="669"/>
      <point x="870" y="676"/>
      <point x="870" y="576" type="curve" smooth="yes"/>
      <point x="870" y="290" type="line" smooth="yes"/>
      <point x="870" y="146"/>
      <point x="792" y="27"/>
      <point x="672" y="27" type="curve" smooth="yes"/>
      <point x="516" y="27"/>
      <point x="450" y="130"/>
      <point x="450" y="305" type="curve" smooth="yes"/>
      <point x="450" y="576" type="line" smooth="yes"/>
      <point x="450" y="678"/>
      <point x="526" y="669"/>
      <point x="600" y="676" type="curve"/>
      <point x="600" y="700" type="line"/>
      <point x="20" y="700" type="line"/>
      <point x="20" y="676" type="line"/>
      <point x="106" y="669"/>
      <point x="170" y="676"/>
      <point x="170" y="576" type="curve" smooth="yes"/>
      <point x="170" y="306" type="line" smooth="yes"/>
      <point x="170" y="96"/>
      <point x="344" y="-14"/>
      <point x="594" y="-14" type="curve" smooth="yes"/>
      <point x="699" y="-14"/>
      <point x="802" y="4"/>
      <point x="870" y="81" type="curve"/>
      <point x="870" y="0" type="line"/>
      <point x="1300" y="0" type="line"/>
      <point x="1300" y="14" type="line"/>
      <point x="1226" y="21"/>
      <point x="1150" y="22"/>
      <point x="1150" y="124" type="curve" smooth="yes"/>
      <point x="1150" y="576" type="line" smooth="yes"/>
      <point x="1150" y="678"/>
      <point x="1226" y="669"/>
    </contour>
  </outline>
</glyph>
<glyph name="V" format="2">
  <advance width="1233"/>
  <unicode hex="0056"/>
  <anchor x="617" y="0" name="bottom"/>
  <anchor x="617" y="700" name="top"/>
  <outline>
    <contour>
      <point x="620" y="-15" type="line"/>
      <point x="630" y="-15" type="line"/>
      <point x="984" y="578" type="line" smooth="yes"/>
      <point x="1044" y="678"/>
      <point x="1129" y="669"/>
      <point x="1213" y="676" type="curve"/>
      <point x="1213" y="700" type="line"/>
      <point x="872" y="700" type="line"/>
      <point x="872" y="676" type="line"/>
      <point x="954" y="672"/>
      <point x="1003" y="678"/>
      <point x="948" y="586" type="curve" smooth="yes"/>
      <point x="763" y="276" type="line"/>
      <point x="561" y="581" type="line" smooth="yes"/>
      <point x="501" y="672"/>
      <point x="553" y="669"/>
      <point x="636" y="676" type="curve"/>
      <point x="636" y="700" type="line"/>
      <point x="20" y="700" type="line"/>
      <point x="20" y="676" type="line"/>
      <point x="103" y="669"/>
      <point x="161" y="678"/>
      <point x="224" y="583" type="curve" smooth="yes"/>
    </contour>
  </outline>
</glyph>
<glyph name="W" format="2">
  <advance width="1874"/>
  <unicode hex="0057"/>
  <anchor x="937" y="0" name="bottom"/>
  <anchor x="937" y="700" name="top"/>
  <outline>
    <contour>
      <point x="1513" y="700" type="line"/>
      <point x="1513" y="676" type="line"/>
      <point x="1595" y="672"/>
      <point x="1639" y="684"/>
      <point x="1589" y="586" type="curve" smooth="yes"/>
      <point x="1445" y="304" type="line"/>
      <point x="1262" y="581" type="line" smooth="yes"/>
      <point x="1202" y="672"/>
      <point x="1254" y="669"/>
      <point x="1337" y="676" type="curve"/>
      <point x="1337" y="700" type="line"/>
      <point x="721" y="700" type="line"/>
      <point x="721" y="676" type="line"/>
      <point x="794" y="670"/>
      <point x="848" y="676"/>
      <point x="903" y="613" type="curve"/>
      <point x="744" y="304" type="line"/>
      <point x="561" y="581" type="line" smooth="yes"/>
      <point x="501" y="672"/>
      <point x="553" y="669"/>
      <point x="636" y="676" type="curve"/>
      <point x="636" y="700" type="line"/>
      <point x="20" y="700" type="line"/>
      <point x="20" y="676" type="line"/>
      <point x="103" y="669"/>
      <point x="161" y="678"/>
      <point x="224" y="583" type="curve" smooth="yes"/>
      <point x="620" y="-15" type="line"/>
      <point x="926" y="581" type="line"/>
      <point x="1321" y="-15" type="line"/>
      <point x="1625" y="578" type="line" smooth="yes"/>
      <point x="1679" y="683"/>
      <point x="1770" y="669"/>
      <point x="1854" y="676" type="curve"/>
      <point x="1854" y="700" type="line"/>
    </contour>
  </outline>
</glyph>
<glyph name="X" format="2">
  <advance width="1295"/>
  <unicode hex="0058"/>
  <anchor x="648" y="0" name="bottom"/>
  <anchor x="648" y="700" name="top"/>
  <outline>
    <contour>
      <point x="38" y="0" type="line"/>
      <point x="391" y="0" type="line"/>
      <point x="391" y="24" type="line"/>
      <point x="319" y="30"/>
      <point x="267" y="21"/>
      <point x="371" y="117" type="curve" smooth="yes"/>
      <point x="540" y="269" type="line"/>
      <point x="687" y="104" type="line" smooth="yes"/>
      <point x="756" y="26"/>
      <point x="699" y="31"/>
      <point x="630" y="24" type="curve"/>
      <point x="630" y="0" type="line"/>
      <point x="1275" y="0" type="line"/>
      <point x="1275" y="24" type="line"/>
      <point x="1204" y="29"/>
      <point x="1130" y="28"/>
      <point x="1056" y="111" type="curve" smooth="yes"/>
      <point x="771" y="431" type="line"/>
      <point x="955" y="596" type="line" smooth="yes"/>
      <point x="1038" y="671"/>
      <point x="1152" y="671"/>
      <point x="1211" y="676" type="curve"/>
      <point x="1211" y="700" type="line"/>
      <point x="868" y="700" type="line"/>
      <point x="868" y="676" type="line"/>
      <point x="941" y="669"/>
      <point x="992" y="678"/>
      <point x="889" y="581" type="curve" smooth="yes"/>
      <point x="751" y="453" type="line"/>
      <point x="630" y="589" type="line" smooth="yes"/>
      <point x="556" y="678"/>
      <point x="610" y="670"/>
      <point x="681" y="676" type="curve"/>
      <point x="681" y="700" type="line"/>
      <point x="25" y="700" type="line"/>
      <point x="25" y="676" type="line"/>
      <point x="77" y="669"/>
      <point x="169" y="677"/>
      <point x="255" y="589" type="curve"/>
      <point x="517" y="295" type="line"/>
      <point x="312" y="111" type="line" smooth="yes"/>
      <point x="226" y="34"/>
      <point x="109" y="31"/>
      <point x="38" y="24" type="curve"/>
    </contour>
  </outline>
</glyph>
<glyph name="Y" format="2">
  <advance width="1151"/>
  <unicode hex="0059"/>
  <anchor x="576" y="0" name="bottom"/>
  <anchor x="576" y="700" name="top"/>
  <anchor x="20" y="700" name="topleft"/>
  <outline>
    <contour>
      <point x="324" y="0" type="line"/>
      <point x="904" y="0" type="line"/>
      <point x="904" y="24" type="line"/>
      <point x="830" y="31"/>
      <point x="754" y="22"/>
      <point x="754" y="124" type="curve" smooth="yes"/>
      <point x="754" y="328" type="line"/>
      <point x="928" y="584" type="line" smooth="yes"/>
      <point x="979" y="660"/>
      <point x="1079" y="669"/>
      <point x="1131" y="676" type="curve"/>
      <point x="1131" y="700" type="line"/>
      <point x="810" y="700" type="line"/>
      <point x="810" y="676" type="line"/>
      <point x="881" y="669"/>
      <point x="938" y="657"/>
      <point x="890" y="588" type="curve" smooth="yes"/>
      <point x="759" y="398" type="line"/>
      <point x="607" y="583" type="line" smooth="yes"/>
      <point x="547" y="657"/>
      <point x="590" y="669"/>
      <point x="662" y="676" type="curve"/>
      <point x="662" y="700" type="line"/>
      <point x="20" y="700" type="line"/>
      <point x="20" y="676" type="line"/>
      <point x="91" y="669"/>
      <point x="161" y="677"/>
      <point x="243" y="586" type="curve" smooth="yes"/>
      <point x="474" y="304" type="line"/>
      <point x="474" y="124" type="line" smooth="yes"/>
      <point x="474" y="24"/>
      <point x="410" y="31"/>
      <point x="324" y="24" type="curve"/>
    </contour>
  </outline>
</glyph>
<glyph name="Z" format="2">
  <advance width="1057"/>
  <unicode hex="005A"/>
  <anchor x="529" y="0" name="bottom"/>
  <anchor x="529" y="350" name="center"/>
  <anchor x="529" y="700" name="top"/>
  <outline>
    <contour>
      <point x="51" y="0" type="line"/>
      <point x="986" y="0" type="line"/>
      <point x="1006" y="245" type="line"/>
      <point x="986" y="245" type="line"/>
      <point x="959" y="125"/>
      <point x="880" y="35"/>
      <point x="713" y="35" type="curve" smooth="yes"/>
      <point x="430" y="35" type="line"/>
      <point x="1006" y="665" type="line"/>
      <point x="1006" y="700" type="line"/>
      <point x="71" y="700" type="line"/>
      <point x="51" y="455" type="line"/>
      <point x="71" y="455" type="line"/>
      <point x="98" y="575"/>
      <point x="177" y="665"/>
      <point x="344" y="665" type="curve" smooth="yes"/>
      <point x="626" y="665" type="line"/>
      <point x="51" y="35" type="line"/>
    </contour>
  </outline>
</glyph>
<glyph name="bracketleft" format="2">
  <advance width="428"/>
  <unicode hex="005B"/>
  <outline>
    <contour>
      <point x="406" y="764" type="line"/>
      <point x="406" y="799" type="line"/>
      <point x="89" y="799" type="line"/>
      <point x="89" y="-109" type="line"/>
      <point x="406" y="-109" type="line"/>
      <point x="406" y="-74" type="line"/>
      <point x="197" y="-74" type="line"/>
      <point x="197" y="764" type="line"/>
    </contour>
  </outline>
</glyph>
<glyph name="backslash" format="2">
  <advance width="333"/>
  <unicode hex="005C"/>
  <outline>
    <contour>
      <point x="77" y="722" type="line"/>
      <point x="8" y="722" type="line"/>
      <point x="257" y="-10" type="line"/>
      <point x="326" y="-10" type="line"/>
    </contour>
  </outline>
</glyph>
<glyph name="bracketright" format="2">
  <advance width="428"/>
  <unicode hex="005D"/>
  <outline>
    <contour>
      <point x="22" y="-109" type="line"/>
      <point x="339" y="-109" type="line"/>
      <point x="339" y="799" type="line"/>
      <point x="22" y="799" type="line"/>
      <point x="22" y="764" type="line"/>
      <point x="231" y="764" type="line"/>
      <point x="231" y="-74" type="line"/>
      <point x="22" y="-74" type="line"/>
    </contour>
  </outline>
</glyph>
<glyph name="asciicircum" format="2">
  <advance width="734"/>
  <unicode hex="005E"/>
  <outline>
    <contour>
      <point x="654" y="583" type="line"/>
      <point x="367" y="732" type="line"/>
      <point x="80" y="583" type="line"/>
      <point x="99" y="554" type="line"/>
      <point x="367" y="692" type="line"/>
      <point x="635" y="554" type="line"/>
    </contour>
  </outline>
</glyph>
<glyph name="underscore" format="2">
  <advance width="500"/>
  <unicode hex="005F"/>
  <outline>
    <contour>
      <point x="74" y="-14" type="line"/>
      <point x="74" y="-74" type="line"/>
      <point x="426" y="-74" type="line"/>
      <point x="426" y="-14" type="line"/>
    </contour>
  </outline>
</glyph>
<glyph name="b" format="2">
  <advance width="1122"/>
  <unicode hex="0062"/>
  <anchor x="561" y="0" name="bottom"/>
  <anchor x="561" y="250" name="center"/>
  <anchor x="561" y="500" name="top"/>
  <outline>
    <contour>
      <point x="74" y="-15" type="line"/>
      <point x="79" y="-15" type="line"/>
      <point x="302" y="153" type="line"/>
      <point x="361" y="41"/>
      <point x="523" y="-15"/>
      <point x="684" y="-15" type="curve" smooth="yes"/>
      <point x="887" y="-15"/>
      <point x="1090" y="74"/>
      <point x="1090" y="250" type="curve" smooth="yes"/>
      <point x="1090" y="426"/>
      <point x="885" y="515"/>
      <point x="681" y="515" type="curve" smooth="yes"/>
      <point x="556" y="515"/>
      <point x="431" y="482"/>
      <point x="354" y="414" type="curve"/>
      <point x="354" y="700" type="line"/>
      <point x="-76" y="700" type="line"/>
      <point x="-76" y="680" type="line"/>
      <point x="7" y="674"/>
      <point x="74" y="663"/>
      <point x="74" y="576" type="curve" smooth="yes"/>
    </contour>
    <contour>
      <point x="581" y="36" type="curve" smooth="yes"/>
      <point x="468" y="36"/>
      <point x="354" y="107"/>
      <point x="354" y="249" type="curve" smooth="yes"/>
      <point x="354" y="392"/>
      <point x="468" y="465"/>
      <point x="582" y="465" type="curve" smooth="yes"/>
      <point x="694" y="465"/>
      <point x="805" y="394"/>
      <point x="805" y="249" type="curve" smooth="yes"/>
      <point x="805" y="104"/>
      <point x="693" y="36"/>
    </contour>
  </outline>
</glyph>
<glyph name="c" format="2">
  <advance width="866"/>
  <unicode hex="0063"/>
  <anchor x="433" y="0" name="bottom"/>
  <anchor x="433" y="500" name="top"/>
  <outline>
    <contour>
      <point x="464" y="-17" type="curve" smooth="yes"/>
      <point x="679" y="-17"/>
      <point x="788" y="52"/>
      <point x="841" y="137" type="curve"/>
      <point x="812" y="158" type="line"/>
      <point x="763" y="96"/>
      <point x="685" y="46"/>
      <point x="552" y="46" type="curve" smooth="yes"/>
      <point x="421" y="46"/>
      <point x="317" y="121"/>
      <point x="317" y="266" type="curve" smooth="yes"/>
      <point x="317" y="395"/>
      <point x="376" y="479"/>
      <point x="500" y="479" type="curve" smooth="yes"/>
      <point x="600" y="479"/>
      <point x="722" y="405"/>
      <point x="784" y="287" type="curve"/>
      <point x="814" y="287" type="line"/>
      <point x="780" y="457" type="line"/>
      <point x="693" y="500"/>
      <point x="584" y="515"/>
      <point x="478" y="515" type="curve" smooth="yes"/>
      <point x="223" y="515"/>
      <point x="32" y="422"/>
      <point x="32" y="246" type="curve" smooth="yes"/>
      <point x="32" y="55"/>
      <point x="250" y="-17"/>
    </contour>
  </outline>
</glyph>
<glyph name="d" format="2">
  <advance width="1121"/>
  <unicode hex="0064"/>
  <anchor x="561" y="0" name="bottom"/>
  <anchor x="561" y="250" name="center"/>
  <anchor x="561" y="800" name="top"/>
  <anchor x="1101" y="800" name="topright"/>
  <outline>
    <contour>
      <point x="437" y="-15" type="curve" smooth="yes"/>
      <point x="587" y="-15"/>
      <point x="737" y="33"/>
      <point x="805" y="130" type="curve"/>
      <point x="1042" y="-15" type="line"/>
      <point x="1047" y="-15" type="line"/>
      <point x="1047" y="700" type="line"/>
      <point x="617" y="700" type="line"/>
      <point x="617" y="680" type="line"/>
      <point x="700" y="674"/>
      <point x="767" y="663"/>
      <point x="767" y="576" type="curve" smooth="yes"/>
      <point x="767" y="414" type="line"/>
      <point x="690" y="482"/>
      <point x="565" y="515"/>
      <point x="440" y="515" type="curve" smooth="yes"/>
      <point x="236" y="515"/>
      <point x="31" y="426"/>
      <point x="31" y="250" type="curve" smooth="yes"/>
      <point x="31" y="74"/>
      <point x="234" y="-15"/>
    </contour>
    <contour>
      <point x="540" y="36" type="curve" smooth="yes"/>
      <point x="428" y="36"/>
      <point x="316" y="104"/>
      <point x="316" y="249" type="curve" smooth="yes"/>
      <point x="316" y="394"/>
      <point x="427" y="465"/>
      <point x="539" y="465" type="curve" smooth="yes"/>
      <point x="653" y="465"/>
      <point x="767" y="392"/>
      <point x="767" y="249" type="curve" smooth="yes"/>
      <point x="767" y="107"/>
      <point x="653" y="36"/>
    </contour>
  </outline>
</glyph>
<glyph name="e" format="2">
  <advance width="891"/>
  <unicode hex="0065"/>
  <anchor x="446" y="0" name="bottom"/>
  <anchor x="802" y="10" name="ogonek"/>
  <anchor x="446" y="500" name="top"/>
  <outline>
    <contour>
      <point x="451" y="-15" type="curve" smooth="yes"/>
      <point x="724" y="-15"/>
      <point x="823" y="75"/>
      <point x="864" y="151" type="curve"/>
      <point x="835" y="172" type="line"/>
      <point x="794" y="93"/>
      <point x="680" y="48"/>
      <point x="569" y="48" type="curve" smooth="yes"/>
      <point x="431" y="48"/>
      <point x="316" y="113"/>
      <point x="316" y="295" type="curve" smooth="yes"/>
      <point x="316" y="425"/>
      <point x="386" y="481"/>
      <point x="449" y="481" type="curve" smooth="yes"/>
      <point x="525" y="481"/>
      <point x="576" y="434"/>
      <point x="575" y="290" type="curve"/>
      <point x="853" y="290" type="line"/>
      <point x="853" y="395"/>
      <point x="742" y="515"/>
      <point x="444" y="515" type="curve" smooth="yes"/>
      <point x="176" y="515"/>
      <point x="33" y="398"/>
      <point x="33" y="258" type="curve" smooth="yes"/>
      <point x="33" y="109"/>
      <point x="151" y="-15"/>
    </contour>
    <contour>
      <point x="130" y="290" type="line"/>
      <point x="816" y="290" type="line"/>
      <point x="816" y="325" type="line"/>
      <point x="130" y="325" type="line"/>
    </contour>
  </outline>
</glyph>
<glyph name="f" format="2">
  <advance width="739"/>
  <unicode hex="0066"/>
  <anchor x="370" y="0" name="bottom"/>
  <anchor x="370" y="800" name="top"/>
  <outline>
    <contour>
      <point x="11" y="0" type="line"/>
      <point x="591" y="0" type="line"/>
      <point x="591" y="24" type="line"/>
      <point x="517" y="31"/>
      <point x="441" y="22"/>
      <point x="441" y="124" type="curve" smooth="yes"/>
      <point x="441" y="465" type="line"/>
      <point x="713" y="465" type="line"/>
      <point x="713" y="500" type="line"/>
      <point x="379" y="500" type="line" smooth="yes"/>
      <point x="265" y="500"/>
      <point x="222" y="527"/>
      <point x="222" y="572" type="curve" smooth="yes"/>
      <point x="222" y="628"/>
      <point x="308" y="680"/>
      <point x="440" y="680" type="curve" smooth="yes"/>
      <point x="591" y="680"/>
      <point x="710" y="615"/>
      <point x="753" y="507" type="curve"/>
      <point x="783" y="507" type="line"/>
      <point x="746" y="670" type="line"/>
      <point x="689" y="696"/>
      <point x="553" y="715"/>
      <point x="441" y="715" type="curve" smooth="yes"/>
      <point x="286" y="715"/>
      <point x="161" y="652"/>
      <point x="161" y="547" type="curve" smooth="yes"/>
      <point x="161" y="500" type="line"/>
      <point x="28" y="500" type="line"/>
      <point x="28" y="465" type="line"/>
      <point x="161" y="465" type="line"/>
      <point x="161" y="124" type="line" smooth="yes"/>
      <point x="161" y="24"/>
      <point x="97" y="31"/>
      <point x="11" y="24" type="curve"/>
    </contour>
  </outline>
</glyph>
<glyph name="g" format="2">
  <advance width="1047"/>
  <unicode hex="0067"/>
  <anchor x="524" y="-200" name="bottom"/>
  <anchor x="524" y="500" name="top"/>
  <outline>
    <contour>
      <point x="522" y="169" type="curve" smooth="yes"/>
      <point x="817" y="169"/>
      <point x="943" y="235"/>
      <point x="943" y="334" type="curve" smooth="yes"/>
      <point x="943" y="437"/>
      <point x="816" y="500"/>
      <point x="522" y="500" type="curve" smooth="yes"/>
      <point x="227" y="500"/>
      <point x="100" y="438"/>
      <point x="100" y="335" type="curve" smooth="yes"/>
      <point x="100" y="235"/>
      <point x="228" y="169"/>
    </contour>
    <contour>
      <point x="522" y="204" type="curve" smooth="yes"/>
      <point x="417" y="204"/>
      <point x="385" y="269"/>
      <point x="385" y="335" type="curve" smooth="yes"/>
      <point x="385" y="400"/>
      <point x="417" y="465"/>
      <point x="522" y="465" type="curve" smooth="yes"/>
      <point x="625" y="465"/>
      <point x="658" y="399"/>
      <point x="658" y="333" type="curve" smooth="yes"/>
      <point x="658" y="268"/>
      <point x="626" y="204"/>
    </contour>
    <contour>
      <point x="524" y="465" type="line"/>
      <point x="992" y="465" type="line"/>
      <point x="992" y="500" type="line"/>
      <point x="524" y="500" type="line"/>
    </contour>
    <contour>
      <point x="129" y="-71"/>
      <point x="745" y="82"/>
      <point x="745" y="-77" type="curve" smooth="yes"/>
      <point x="745" y="-127"/>
      <point x="647" y="-185"/>
      <point x="515" y="-185" type="curve" smooth="yes"/>
      <point x="389" y="-185"/>
      <point x="295" y="-129"/>
      <point x="295" y="-66" type="curve" smooth="yes"/>
      <point x="295" y="-31"/>
      <point x="320" y="5"/>
      <point x="380" y="36" type="curve"/>
      <point x="381" y="89" type="line"/>
      <point x="343" y="89"/>
      <point x="15" y="50"/>
      <point x="15" y="-74" type="curve" smooth="yes"/>
      <point x="15" y="-164"/>
      <point x="198" y="-216"/>
      <point x="503" y="-216" type="curve" smooth="yes"/>
      <point x="756" y="-216"/>
      <point x="1029" y="-161"/>
      <point x="1029" y="-60" type="curve" smooth="yes"/>
      <point x="1029" y="163"/>
      <point x="258" y="73"/>
      <point x="258" y="135" type="curve" smooth="yes"/>
      <point x="258" y="169"/>
      <point x="387" y="189"/>
      <point x="426" y="188" type="curve"/>
      <point x="365" y="200" type="line"/>
      <point x="248" y="192"/>
      <point x="129" y="184"/>
      <point x="129" y="105" type="curve" smooth="yes"/>
    </contour>
  </outline>
</glyph>
<glyph name="h" format="2">
  <advance width="1223"/>
  <unicode hex="0068"/>
  <anchor x="612" y="0" name="bottom"/>
  <anchor x="612" y="400" name="center"/>
  <anchor x="612" y="800" name="top"/>
  <outline>
    <contour>
      <point x="14" y="0" type="line"/>
      <point x="594" y="0" type="line"/>
      <point x="594" y="24" type="line"/>
      <point x="520" y="31"/>
      <point x="444" y="22"/>
      <point x="444" y="124" type="curve" smooth="yes"/>
      <point x="444" y="235" type="line" smooth="yes"/>
      <point x="445" y="377"/>
      <point x="541" y="456"/>
      <point x="631" y="456" type="curve" smooth="yes"/>
      <point x="712" y="456"/>
      <point x="789" y="413"/>
      <point x="789" y="285" type="curve" smooth="yes"/>
      <point x="789" y="124" type="line" smooth="yes"/>
      <point x="789" y="24"/>
      <point x="723" y="32"/>
      <point x="639" y="24" type="curve"/>
      <point x="639" y="0" type="line"/>
      <point x="1219" y="0" type="line"/>
      <point x="1219" y="24" type="line"/>
      <point x="1135" y="31"/>
      <point x="1069" y="23"/>
      <point x="1069" y="124" type="curve" smooth="yes"/>
      <point x="1069" y="255" type="line" smooth="yes"/>
      <point x="1069" y="454"/>
      <point x="897" y="514"/>
      <point x="728" y="514" type="curve" smooth="yes"/>
      <point x="615" y="514"/>
      <point x="504" y="473"/>
      <point x="444" y="384" type="curve"/>
      <point x="444" y="700" type="line"/>
      <point x="14" y="700" type="line"/>
      <point x="14" y="680" type="line"/>
      <point x="97" y="674"/>
      <point x="164" y="663"/>
      <point x="164" y="576" type="curve" smooth="yes"/>
      <point x="164" y="124" type="line" smooth="yes"/>
      <point x="164" y="24"/>
      <point x="100" y="31"/>
      <point x="14" y="24" type="curve"/>
    </contour>
  </outline>
</glyph>
<glyph name="k" format="2">
  <advance width="1289"/>
  <unicode hex="006B"/>
  <anchor x="645" y="0" name="bottom"/>
  <anchor x="645" y="800" name="top"/>
  <outline>
    <contour>
      <point x="4" y="0" type="line"/>
      <point x="584" y="0" type="line"/>
      <point x="584" y="24" type="line"/>
      <point x="510" y="31"/>
      <point x="434" y="22"/>
      <point x="434" y="124" type="curve" smooth="yes"/>
      <point x="434" y="273" type="line"/>
      <point x="526" y="304" type="line"/>
      <point x="690" y="107" type="line"/>
      <point x="755" y="23"/>
      <point x="708" y="31"/>
      <point x="629" y="24" type="curve"/>
      <point x="629" y="0" type="line"/>
      <point x="1284" y="0" type="line"/>
      <point x="1284" y="24" type="line"/>
      <point x="1205" y="31"/>
      <point x="1133" y="23"/>
      <point x="1054" y="108" type="curve"/>
      <point x="809" y="402" type="line"/>
      <point x="849" y="415" type="line" smooth="yes"/>
      <point x="1026" y="472"/>
      <point x="1135" y="469"/>
      <point x="1216" y="476" type="curve"/>
      <point x="1216" y="500" type="line"/>
      <point x="819" y="500" type="line"/>
      <point x="819" y="476" type="line"/>
      <point x="887" y="470"/>
      <point x="862" y="457"/>
      <point x="766" y="424" type="curve" smooth="yes"/>
      <point x="434" y="310" type="line"/>
      <point x="434" y="576" type="line" smooth="yes"/>
      <point x="434" y="663"/>
      <point x="500" y="669"/>
      <point x="584" y="676" type="curve"/>
      <point x="584" y="700" type="line"/>
      <point x="4" y="700" type="line"/>
      <point x="4" y="680" type="line"/>
      <point x="87" y="674"/>
      <point x="154" y="663"/>
      <point x="154" y="576" type="curve" smooth="yes"/>
      <point x="154" y="124" type="line" smooth="yes"/>
      <point x="154" y="24"/>
      <point x="90" y="31"/>
      <point x="4" y="24" type="curve"/>
    </contour>
  </outline>
</glyph>
<glyph name="l" format="2">
  <advance width="588"/>
  <unicode hex="006C"/>
  <anchor x="294" y="0" name="bottom"/>
  <anchor x="294" y="400" name="center"/>
  <anchor x="294" y="700" name="top"/>
  <anchor x="485" y="800" name="topright"/>
  <outline>
    <contour>
      <point x="4" y="0" type="line"/>
      <point x="584" y="0" type="line"/>
      <point x="584" y="24" type="line"/>
      <point x="510" y="31"/>
      <point x="434" y="22"/>
      <point x="434" y="124" type="curve" smooth="yes"/>
      <point x="434" y="700" type="line"/>
      <point x="4" y="700" type="line"/>
      <point x="4" y="680" type="line"/>
      <point x="87" y="674"/>
      <point x="154" y="663"/>
      <point x="154" y="576" type="curve" smooth="yes"/>
      <point x="154" y="124" type="line" smooth="yes"/>
      <point x="154" y="24"/>
      <point x="90" y="31"/>
      <point x="4" y="24" type="curve"/>
    </contour>
  </outline>
</glyph>
<glyph name="m" format="2">
  <advance width="1808"/>
  <unicode hex="006D"/>
  <anchor x="904" y="0" name="bottom"/>
  <anchor x="904" y="500" name="top"/>
  <outline>
    <contour>
      <point x="14" y="0" type="line"/>
      <point x="584" y="0" type="line"/>
      <point x="584" y="24" type="line"/>
      <point x="510" y="31"/>
      <point x="444" y="22"/>
      <point x="444" y="124" type="curve" smooth="yes"/>
      <point x="444" y="235" type="line" smooth="yes"/>
      <point x="445" y="380"/>
      <point x="540" y="457"/>
      <point x="627" y="457" type="curve" smooth="yes"/>
      <point x="701" y="457"/>
      <point x="769" y="402"/>
      <point x="769" y="285" type="curve" smooth="yes"/>
      <point x="769" y="124" type="line" smooth="yes"/>
      <point x="769" y="24"/>
      <point x="713" y="32"/>
      <point x="629" y="24" type="curve"/>
      <point x="629" y="0" type="line"/>
      <point x="1189" y="0" type="line"/>
      <point x="1189" y="24" type="line"/>
      <point x="1105" y="31"/>
      <point x="1049" y="23"/>
      <point x="1049" y="124" type="curve" smooth="yes"/>
      <point x="1049" y="235" type="line" smooth="yes"/>
      <point x="1050" y="380"/>
      <point x="1145" y="457"/>
      <point x="1232" y="457" type="curve" smooth="yes"/>
      <point x="1306" y="457"/>
      <point x="1374" y="402"/>
      <point x="1374" y="285" type="curve" smooth="yes"/>
      <point x="1374" y="124" type="line" smooth="yes"/>
      <point x="1374" y="24"/>
      <point x="1318" y="32"/>
      <point x="1234" y="24" type="curve"/>
      <point x="1234" y="0" type="line"/>
      <point x="1804" y="0" type="line"/>
      <point x="1804" y="24" type="line"/>
      <point x="1720" y="31"/>
      <point x="1654" y="23"/>
      <point x="1654" y="124" type="curve" smooth="yes"/>
      <point x="1654" y="255" type="line" smooth="yes"/>
      <point x="1654" y="420"/>
      <point x="1495" y="518"/>
      <point x="1331" y="518" type="curve" smooth="yes"/>
      <point x="1213" y="518"/>
      <point x="1093" y="469"/>
      <point x="1026" y="357" type="curve"/>
      <point x="976" y="461"/>
      <point x="850" y="519"/>
      <point x="723" y="519" type="curve" smooth="yes"/>
      <point x="615" y="519"/>
      <point x="506" y="476"/>
      <point x="444" y="384" type="curve"/>
      <point x="444" y="500" type="line"/>
      <point x="14" y="500" type="line"/>
      <point x="14" y="480" type="line"/>
      <point x="98" y="474"/>
      <point x="164" y="463"/>
      <point x="164" y="376" type="curve" smooth="yes"/>
      <point x="164" y="124" type="line" smooth="yes"/>
      <point x="164" y="24"/>
      <point x="100" y="31"/>
      <point x="14" y="24" type="curve"/>
    </contour>
  </outline>
</glyph>
<glyph name="o" format="2">
  <advance width="956"/>
  <unicode hex="006F"/>
  <anchor x="478" y="0" name="bottom"/>
  <anchor x="478" y="250" name="center"/>
  <anchor x="860" y="10" name="ogonek"/>
  <anchor x="478" y="500" name="top"/>
  <anchor x="936" y="500" name="topright"/>
  <outline>
    <contour>
      <point x="478" y="-15" type="curve" smooth="yes"/>
      <point x="733" y="-15"/>
      <point x="924" y="70"/>
      <point x="924" y="246" type="curve" smooth="yes"/>
      <point x="924" y="422"/>
      <point x="733" y="515"/>
      <point x="478" y="515" type="curve" smooth="yes"/>
      <point x="223" y="515"/>
      <point x="32" y="422"/>
      <point x="32" y="246" type="curve" smooth="yes"/>
      <point x="32" y="70"/>
      <point x="223" y="-15"/>
    </contour>
    <contour>
      <point x="478" y="20" type="curve" smooth="yes"/>
      <point x="398" y="20"/>
      <point x="317" y="85"/>
      <point x="317" y="246" type="curve" smooth="yes"/>
      <point x="317" y="412"/>
      <point x="398" y="480"/>
      <point x="478" y="480" type="curve" smooth="yes"/>
      <point x="559" y="480"/>
      <point x="639" y="412"/>
      <point x="639" y="246" type="curve" smooth="yes"/>
      <point x="639" y="85"/>
      <point x="559" y="20"/>
    </contour>
  </outline>
</glyph>
<glyph name="p" format="2">
  <advance width="1201"/>
  <unicode hex="0070"/>
  <anchor x="601" y="0" name="bottom"/>
  <anchor x="601" y="500" name="top"/>
  <outline>
    <contour>
      <point x="4" y="-200" type="line"/>
      <point x="584" y="-200" type="line"/>
      <point x="584" y="-176" type="line"/>
      <point x="510" y="-169"/>
      <point x="434" y="-178"/>
      <point x="434" y="-76" type="curve" smooth="yes"/>
      <point x="434" y="86" type="line"/>
      <point x="511" y="18"/>
      <point x="636" y="-15"/>
      <point x="761" y="-15" type="curve" smooth="yes"/>
      <point x="965" y="-15"/>
      <point x="1170" y="74"/>
      <point x="1170" y="250" type="curve" smooth="yes"/>
      <point x="1170" y="426"/>
      <point x="965" y="515"/>
      <point x="764" y="515" type="curve" smooth="yes"/>
      <point x="638" y="515"/>
      <point x="511" y="481"/>
      <point x="434" y="412" type="curve"/>
      <point x="434" y="500" type="line"/>
      <point x="4" y="500" type="line"/>
      <point x="4" y="480" type="line"/>
      <point x="87" y="474"/>
      <point x="154" y="463"/>
      <point x="154" y="376" type="curve" smooth="yes"/>
      <point x="154" y="-76" type="line" smooth="yes"/>
      <point x="154" y="-176"/>
      <point x="90" y="-169"/>
      <point x="4" y="-176" type="curve"/>
    </contour>
    <contour>
      <point x="662" y="35" type="curve" smooth="yes"/>
      <point x="548" y="35"/>
      <point x="434" y="108"/>
      <point x="434" y="251" type="curve" smooth="yes"/>
      <point x="434" y="393"/>
      <point x="548" y="464"/>
      <point x="661" y="464" type="curve" smooth="yes"/>
      <point x="773" y="464"/>
      <point x="885" y="396"/>
      <point x="885" y="251" type="curve" smooth="yes"/>
      <point x="885" y="106"/>
      <point x="774" y="35"/>
    </contour>
  </outline>
</glyph>
<glyph name="q" format="2">
  <advance width="1121"/>
  <unicode hex="0071"/>
  <anchor x="561" y="0" name="bottom"/>
  <anchor x="561" y="500" name="top"/>
  <outline>
    <contour>
      <point x="617" y="-200" type="line"/>
      <point x="1197" y="-200" type="line"/>
      <point x="1197" y="-176" type="line"/>
      <point x="1111" y="-169"/>
      <point x="1047" y="-176"/>
      <point x="1047" y="-76" type="curve" smooth="yes"/>
      <point x="1047" y="500" type="line"/>
      <point x="767" y="414" type="line"/>
      <point x="767" y="412" type="line"/>
      <point x="690" y="481"/>
      <point x="563" y="515"/>
      <point x="437" y="515" type="curve" smooth="yes"/>
      <point x="236" y="515"/>
      <point x="31" y="426"/>
      <point x="31" y="250" type="curve" smooth="yes"/>
      <point x="31" y="74"/>
      <point x="236" y="-15"/>
      <point x="440" y="-15" type="curve" smooth="yes"/>
      <point x="565" y="-15"/>
      <point x="690" y="18"/>
      <point x="767" y="86" type="curve"/>
      <point x="767" y="-76" type="line" smooth="yes"/>
      <point x="767" y="-178"/>
      <point x="691" y="-169"/>
      <point x="617" y="-176" type="curve"/>
    </contour>
    <contour>
      <point x="539" y="35" type="curve" smooth="yes"/>
      <point x="427" y="35"/>
      <point x="316" y="106"/>
      <point x="316" y="251" type="curve" smooth="yes"/>
      <point x="316" y="394"/>
      <point x="428" y="464"/>
      <point x="540" y="464" type="curve" smooth="yes"/>
      <point x="653" y="464"/>
      <point x="767" y="393"/>
      <point x="767" y="251" type="curve" smooth="yes"/>
      <point x="767" y="108"/>
      <point x="653" y="35"/>
    </contour>
  </outline>
</glyph>
<glyph name="r" format="2">
  <advance width="978"/>
  <unicode hex="0072"/>
  <guideline x="443" y="360" angle="0"/>
  <anchor x="489" y="0" name="bottom"/>
  <anchor x="489" y="500" name="top"/>
  <outline>
    <contour>
      <point x="444" y="124" type="curve" smooth="yes"/>
      <point x="444" y="500" type="line"/>
      <point x="14" y="500" type="line"/>
      <point x="14" y="480" type="line"/>
      <point x="97" y="474"/>
      <point x="164" y="463"/>
      <point x="164" y="376" type="curve" smooth="yes"/>
      <point x="164" y="124" type="line" smooth="yes"/>
      <point x="164" y="24"/>
      <point x="100" y="31"/>
      <point x="14" y="24" type="curve"/>
      <point x="14" y="0" type="line"/>
      <point x="594" y="0" type="line"/>
      <point x="594" y="24" type="line"/>
      <point x="520" y="31"/>
      <point x="444" y="22"/>
    </contour>
    <contour>
      <point x="660" y="480" type="curve" smooth="yes"/>
      <point x="757" y="480"/>
      <point x="831" y="416"/>
      <point x="923" y="273" type="curve"/>
      <point x="953" y="273" type="line"/>
      <point x="919" y="453" type="line"/>
      <point x="833" y="495"/>
      <point x="756" y="515"/>
      <point x="651" y="515" type="curve" smooth="yes"/>
      <point x="519" y="515"/>
      <point x="382" y="416"/>
      <point x="382" y="284" type="curve"/>
      <point x="444" y="224" type="line"/>
      <point x="444" y="386"/>
      <point x="514" y="480"/>
    </contour>
  </outline>
</glyph>
<glyph name="s" format="2">
  <advance width="946"/>
  <unicode hex="0073"/>
  <anchor x="473" y="0" name="bottom"/>
  <anchor x="473" y="500" name="top"/>
  <outline>
    <contour>
      <point x="481" y="-17" type="curve" smooth="yes"/>
      <point x="712" y="-17"/>
      <point x="901" y="33"/>
      <point x="901" y="159" type="curve" smooth="yes"/>
      <point x="901" y="326"/>
      <point x="694" y="361"/>
      <point x="515" y="372" type="curve" smooth="yes"/>
      <point x="405" y="379"/>
      <point x="277" y="368"/>
      <point x="277" y="414" type="curve" smooth="yes"/>
      <point x="277" y="448"/>
      <point x="357" y="480"/>
      <point x="480" y="480" type="curve" smooth="yes"/>
      <point x="633" y="480"/>
      <point x="803" y="419"/>
      <point x="866" y="292" type="curve"/>
      <point x="896" y="292" type="line"/>
      <point x="857" y="455" type="line"/>
      <point x="783" y="494"/>
      <point x="560" y="515"/>
      <point x="481" y="515" type="curve" smooth="yes"/>
      <point x="244" y="515"/>
      <point x="55" y="465"/>
      <point x="55" y="336" type="curve" smooth="yes"/>
      <point x="55" y="158"/>
      <point x="314" y="154"/>
      <point x="487" y="144" type="curve" smooth="yes"/>
      <point x="584" y="138"/>
      <point x="679" y="127"/>
      <point x="679" y="84" type="curve" smooth="yes"/>
      <point x="679" y="47"/>
      <point x="599" y="18"/>
      <point x="482" y="18" type="curve" smooth="yes"/>
      <point x="323" y="18"/>
      <point x="131" y="101"/>
      <point x="68" y="228" type="curve"/>
      <point x="38" y="228" type="line"/>
      <point x="79" y="63" type="line"/>
      <point x="188" y="4"/>
      <point x="396" y="-17"/>
    </contour>
  </outline>
</glyph>
<glyph name="t" format="2">
  <advance width="659"/>
  <unicode hex="0074"/>
  <anchor x="370" y="0" name="bottom"/>
  <anchor x="330" y="250" name="center"/>
  <anchor x="330" y="500" name="top"/>
  <anchor x="410" y="890" name="topright"/>
  <outline>
    <contour>
      <point x="6" y="465" type="line"/>
      <point x="620" y="465" type="line"/>
      <point x="620" y="500" type="line"/>
      <point x="6" y="500" type="line"/>
    </contour>
    <contour>
      <point x="6" y="500" type="curve"/>
      <point x="379" y="500" type="line"/>
      <point x="379" y="700" type="line"/>
      <point x="344" y="700" type="line"/>
      <point x="328" y="567"/>
      <point x="185" y="500"/>
    </contour>
    <contour>
      <point x="643" y="83" type="curve"/>
      <point x="617" y="106" type="line"/>
      <point x="600" y="77"/>
      <point x="553" y="52"/>
      <point x="513" y="52" type="curve" smooth="yes"/>
      <point x="446" y="52"/>
      <point x="379" y="84"/>
      <point x="379" y="224" type="curve" smooth="yes"/>
      <point x="379" y="478" type="line"/>
      <point x="99" y="478" type="line"/>
      <point x="99" y="183" type="line" smooth="yes"/>
      <point x="99" y="39"/>
      <point x="235" y="-15"/>
      <point x="358" y="-15" type="curve" smooth="yes"/>
      <point x="541" y="-15"/>
      <point x="603" y="24"/>
    </contour>
  </outline>
</glyph>
<glyph name="u" format="2">
  <advance width="1183"/>
  <unicode hex="0075"/>
  <anchor x="592" y="0" name="bottom"/>
  <anchor x="1065" y="10" name="ogonek"/>
  <anchor x="592" y="500" name="top"/>
  <anchor x="1163" y="500" name="topright"/>
  <outline>
    <contour>
      <point x="470" y="-15" type="curve" smooth="yes"/>
      <point x="578" y="-15"/>
      <point x="687" y="28"/>
      <point x="749" y="120" type="curve"/>
      <point x="749" y="4" type="line"/>
      <point x="1179" y="4" type="line"/>
      <point x="1179" y="24" type="line"/>
      <point x="1095" y="30"/>
      <point x="1029" y="41"/>
      <point x="1029" y="128" type="curve" smooth="yes"/>
      <point x="1029" y="500" type="line"/>
      <point x="609" y="504" type="line"/>
      <point x="609" y="480" type="line"/>
      <point x="683" y="473"/>
      <point x="749" y="482"/>
      <point x="749" y="380" type="curve" smooth="yes"/>
      <point x="749" y="269" type="line" smooth="yes"/>
      <point x="747" y="123"/>
      <point x="652" y="47"/>
      <point x="566" y="47" type="curve" smooth="yes"/>
      <point x="492" y="47"/>
      <point x="424" y="102"/>
      <point x="424" y="219" type="curve" smooth="yes"/>
      <point x="424" y="500" type="line"/>
      <point x="4" y="504" type="line"/>
      <point x="4" y="480" type="line"/>
      <point x="88" y="473"/>
      <point x="144" y="481"/>
      <point x="144" y="380" type="curve" smooth="yes"/>
      <point x="144" y="249" type="line" smooth="yes"/>
      <point x="144" y="81"/>
      <point x="306" y="-15"/>
    </contour>
  </outline>
</glyph>
<glyph name="v" format="2">
  <advance width="1090"/>
  <unicode hex="0076"/>
  <anchor x="545" y="0" name="bottom"/>
  <anchor x="545" y="500" name="top"/>
  <outline>
    <contour>
      <point x="1086" y="500" type="line"/>
      <point x="761" y="500" type="line"/>
      <point x="761" y="476" type="line"/>
      <point x="841" y="469"/>
      <point x="890" y="477"/>
      <point x="828" y="389" type="curve" smooth="yes"/>
      <point x="719" y="242" type="line"/>
      <point x="589" y="392" type="line" smooth="yes"/>
      <point x="521" y="470"/>
      <point x="566" y="469"/>
      <point x="645" y="476" type="curve"/>
      <point x="645" y="500" type="line"/>
      <point x="4" y="500" type="line"/>
      <point x="4" y="476" type="line"/>
      <point x="85" y="469"/>
      <point x="146" y="475"/>
      <point x="223" y="386" type="curve" smooth="yes"/>
      <point x="571" y="-15" type="line"/>
      <point x="871" y="386" type="line" smooth="yes"/>
      <point x="944" y="477"/>
      <point x="1005" y="469"/>
      <point x="1086" y="476" type="curve"/>
    </contour>
  </outline>
</glyph>
<glyph name="w" format="2">
  <advance width="1768"/>
  <unicode hex="0077"/>
  <anchor x="884" y="0" name="bottom"/>
  <anchor x="884" y="500" name="top"/>
  <outline>
    <contour>
      <point x="581" y="-15" type="line"/>
      <point x="897" y="413" type="line"/>
      <point x="1269" y="-15" type="line"/>
      <point x="1563" y="389" type="line" smooth="yes"/>
      <point x="1630" y="481"/>
      <point x="1684" y="469"/>
      <point x="1764" y="476" type="curve"/>
      <point x="1764" y="500" type="line"/>
      <point x="1449" y="500" type="line"/>
      <point x="1449" y="476" type="line"/>
      <point x="1528" y="469"/>
      <point x="1580" y="474"/>
      <point x="1521" y="393" type="curve" smooth="yes"/>
      <point x="1414" y="245" type="line"/>
      <point x="1287" y="392" type="line" smooth="yes"/>
      <point x="1220" y="469"/>
      <point x="1264" y="469"/>
      <point x="1343" y="476" type="curve"/>
      <point x="1343" y="500" type="line"/>
      <point x="761" y="500" type="line"/>
      <point x="761" y="476" type="line"/>
      <point x="841" y="469"/>
      <point x="897" y="478"/>
      <point x="832" y="390" type="curve" smooth="yes"/>
      <point x="726" y="245" type="line"/>
      <point x="599" y="392" type="line" smooth="yes"/>
      <point x="530" y="476"/>
      <point x="576" y="469"/>
      <point x="655" y="476" type="curve"/>
      <point x="655" y="500" type="line"/>
      <point x="4" y="500" type="line"/>
      <point x="4" y="476" type="line"/>
      <point x="85" y="469"/>
      <point x="152" y="479"/>
      <point x="233" y="386" type="curve" smooth="yes"/>
    </contour>
  </outline>
</glyph>
<glyph name="x" format="2">
  <advance width="1178"/>
  <unicode hex="0078"/>
  <anchor x="589" y="0" name="bottom"/>
  <anchor x="589" y="500" name="top"/>
  <outline>
    <contour>
      <point x="29" y="0" type="line"/>
      <point x="368" y="0" type="line"/>
      <point x="368" y="24" type="line"/>
      <point x="293" y="30"/>
      <point x="256" y="24"/>
      <point x="347" y="95" type="curve" smooth="yes"/>
      <point x="464" y="181" type="line"/>
      <point x="525" y="121" type="line" smooth="yes"/>
      <point x="623" y="22"/>
      <point x="581" y="31"/>
      <point x="498" y="24" type="curve"/>
      <point x="498" y="0" type="line"/>
      <point x="1173" y="0" type="line"/>
      <point x="1173" y="24" type="line"/>
      <point x="1093" y="31"/>
      <point x="1026" y="16"/>
      <point x="933" y="110" type="curve" smooth="yes"/>
      <point x="747" y="298" type="line"/>
      <point x="853" y="391" type="line" smooth="yes"/>
      <point x="957" y="482"/>
      <point x="1027" y="469"/>
      <point x="1107" y="476" type="curve"/>
      <point x="1107" y="500" type="line"/>
      <point x="773" y="500" type="line"/>
      <point x="773" y="476" type="line"/>
      <point x="856" y="469"/>
      <point x="897" y="478"/>
      <point x="787" y="380" type="curve" smooth="yes"/>
      <point x="722" y="322" type="line"/>
      <point x="645" y="400" type="line" smooth="yes"/>
      <point x="573" y="477"/>
      <point x="618" y="470"/>
      <point x="695" y="476" type="curve"/>
      <point x="695" y="500" type="line"/>
      <point x="10" y="500" type="line"/>
      <point x="10" y="476" type="line"/>
      <point x="85" y="470"/>
      <point x="156" y="483"/>
      <point x="236" y="405" type="curve" smooth="yes"/>
      <point x="439" y="206" type="line"/>
      <point x="314" y="114" type="line" smooth="yes"/>
      <point x="184" y="23"/>
      <point x="110" y="31"/>
      <point x="29" y="24" type="curve"/>
    </contour>
  </outline>
</glyph>
<glyph name="y" format="2">
  <advance width="1054"/>
  <unicode hex="0079"/>
  <anchor x="527" y="0" name="bottom"/>
  <anchor x="587" y="500" name="top"/>
  <outline>
    <contour>
      <point x="292" y="-200" type="line"/>
      <point x="616" y="-200" type="line"/>
      <point x="616" y="-176" type="line"/>
      <point x="535" y="-171"/>
      <point x="484" y="-177"/>
      <point x="540" y="-88" type="curve"/>
      <point x="860" y="395" type="line"/>
      <point x="916" y="480"/>
      <point x="971" y="469"/>
      <point x="1050" y="476" type="curve"/>
      <point x="1050" y="500" type="line"/>
      <point x="737" y="500" type="line"/>
      <point x="737" y="476" type="line"/>
      <point x="820" y="469"/>
      <point x="871" y="476"/>
      <point x="808" y="381" type="curve" smooth="yes"/>
      <point x="697" y="214" type="line"/>
      <point x="560" y="392" type="line" smooth="yes"/>
      <point x="496" y="475"/>
      <point x="547" y="469"/>
      <point x="627" y="476" type="curve"/>
      <point x="627" y="500" type="line"/>
      <point x="4" y="500" type="line"/>
      <point x="4" y="476" type="line"/>
      <point x="84" y="469"/>
      <point x="139" y="480"/>
      <point x="206" y="393" type="curve" smooth="yes"/>
      <point x="533" y="-33" type="line"/>
      <point x="496" y="-88" type="line" smooth="yes"/>
      <point x="434" y="-180"/>
      <point x="374" y="-169"/>
      <point x="292" y="-176" type="curve"/>
    </contour>
  </outline>
</glyph>
<glyph name="z" format="2">
  <advance width="995"/>
  <unicode hex="007A"/>
  <anchor x="498" y="0" name="bottom"/>
  <anchor x="498" y="250" name="center"/>
  <anchor x="498" y="500" name="top"/>
  <outline>
    <contour>
      <point x="41" y="0" type="line"/>
      <point x="931" y="0" type="line"/>
      <point x="954" y="245" type="line"/>
      <point x="930" y="245" type="line"/>
      <point x="911" y="146"/>
      <point x="882" y="35"/>
      <point x="760" y="35" type="curve" smooth="yes"/>
      <point x="477" y="35" type="line"/>
      <point x="954" y="500" type="line"/>
      <point x="64" y="500" type="line"/>
      <point x="41" y="255" type="line"/>
      <point x="65" y="255" type="line"/>
      <point x="84" y="354"/>
      <point x="113" y="465"/>
      <point x="235" y="465" type="curve" smooth="yes"/>
      <point x="517" y="465" type="line"/>
    </contour>
  </outline>
</glyph>
<glyph name="braceleft" format="2">
  <advance width="459"/>
  <unicode hex="007B"/>
  <outline>
    <contour>
      <point x="58" y="244" type="line"/>
      <point x="152" y="244"/>
      <point x="229" y="220"/>
      <point x="229" y="155" type="curve" smooth="yes"/>
      <point x="229" y="70"/>
      <point x="90" y="28"/>
      <point x="90" y="-80" type="curve" smooth="yes"/>
      <point x="90" y="-190"/>
      <point x="209" y="-225"/>
      <point x="318" y="-225" type="curve" smooth="yes"/>
      <point x="459" y="-225" type="line"/>
      <point x="459" y="-190" type="line"/>
      <point x="328" y="-190" type="line" smooth="yes"/>
      <point x="249" y="-190"/>
      <point x="192" y="-166"/>
      <point x="192" y="-79" type="curve" smooth="yes"/>
      <point x="192" y="27"/>
      <point x="293" y="60"/>
      <point x="289" y="147" type="curve" smooth="yes"/>
      <point x="286" y="222"/>
      <point x="181" y="260"/>
      <point x="115" y="264" type="curve"/>
      <point x="181" y="268"/>
      <point x="286" y="306"/>
      <point x="289" y="381" type="curve" smooth="yes"/>
      <point x="293" y="468"/>
      <point x="192" y="501"/>
      <point x="192" y="607" type="curve" smooth="yes"/>
      <point x="192" y="694"/>
      <point x="249" y="718"/>
      <point x="328" y="718" type="curve" smooth="yes"/>
      <point x="459" y="718" type="line"/>
      <point x="459" y="753" type="line"/>
      <point x="318" y="753" type="line" smooth="yes"/>
      <point x="209" y="753"/>
      <point x="90" y="718"/>
      <point x="90" y="608" type="curve" smooth="yes"/>
      <point x="90" y="500"/>
      <point x="229" y="458"/>
      <point x="229" y="373" type="curve" smooth="yes"/>
      <point x="229" y="308"/>
      <point x="152" y="284"/>
      <point x="58" y="284" type="curve"/>
    </contour>
  </outline>
</glyph>
<glyph name="bar" format="2">
  <advance width="308"/>
  <unicode hex="007C"/>
  <outline>
    <contour>
      <point x="135" y="715" type="line"/>
      <point x="135" y="-120" type="line"/>
      <point x="173" y="-120" type="line"/>
      <point x="173" y="715" type="line"/>
    </contour>
  </outline>
</glyph>
<glyph name="braceright" format="2">
  <advance width="459"/>
  <unicode hex="007D"/>
  <outline>
    <contour>
      <point x="401" y="244" type="curve"/>
      <point x="401" y="284" type="line"/>
      <point x="307" y="284"/>
      <point x="230" y="308"/>
      <point x="230" y="373" type="curve" smooth="yes"/>
      <point x="230" y="458"/>
      <point x="369" y="500"/>
      <point x="369" y="608" type="curve" smooth="yes"/>
      <point x="369" y="718"/>
      <point x="250" y="753"/>
      <point x="141" y="753" type="curve" smooth="yes"/>
      <point x="0" y="753" type="line"/>
      <point x="0" y="718" type="line"/>
      <point x="131" y="718" type="line" smooth="yes"/>
      <point x="210" y="718"/>
      <point x="267" y="694"/>
      <point x="267" y="607" type="curve" smooth="yes"/>
      <point x="267" y="501"/>
      <point x="166" y="468"/>
      <point x="170" y="381" type="curve" smooth="yes"/>
      <point x="173" y="306"/>
      <point x="278" y="268"/>
      <point x="344" y="264" type="curve"/>
      <point x="278" y="260"/>
      <point x="173" y="222"/>
      <point x="170" y="147" type="curve" smooth="yes"/>
      <point x="166" y="60"/>
      <point x="267" y="27"/>
      <point x="267" y="-79" type="curve" smooth="yes"/>
      <point x="267" y="-166"/>
      <point x="210" y="-190"/>
      <point x="131" y="-190" type="curve" smooth="yes"/>
      <point x="0" y="-190" type="line"/>
      <point x="0" y="-225" type="line"/>
      <point x="141" y="-225" type="line" smooth="yes"/>
      <point x="250" y="-225"/>
      <point x="369" y="-190"/>
      <point x="369" y="-80" type="curve" smooth="yes"/>
      <point x="369" y="28"/>
      <point x="230" y="70"/>
      <point x="230" y="155" type="curve" smooth="yes"/>
      <point x="230" y="220"/>
      <point x="307" y="244"/>
    </contour>
  </outline>
</glyph>
<glyph name="asciitilde" format="2">
  <advance width="931"/>
  <unicode hex="007E"/>
  <outline>
    <contour>
      <point x="236" y="296" type="curve" smooth="yes"/>
      <point x="382" y="296"/>
      <point x="568" y="180"/>
      <point x="692" y="180" type="curve" smooth="yes"/>
      <point x="796" y="180"/>
      <point x="851" y="233"/>
      <point x="851" y="336" type="curve"/>
      <point x="816" y="336" type="line"/>
      <point x="816" y="266"/>
      <point x="770" y="220"/>
      <point x="702" y="220" type="curve" smooth="yes"/>
      <point x="577" y="220"/>
      <point x="377" y="336"/>
      <point x="246" y="336" type="curve" smooth="yes"/>
      <point x="137" y="336"/>
      <point x="80" y="283"/>
      <point x="80" y="180" type="curve"/>
      <point x="115" y="180" type="line"/>
      <point x="115" y="250"/>
      <point x="163" y="296"/>
    </contour>
  </outline>
</glyph>
<glyph name="sterling" format="2">
  <advance width="1200"/>
  <unicode hex="00A3"/>
  <outline>
    <contour>
      <point x="112" y="0" type="line"/>
      <point x="487" y="113"/>
      <point x="628" y="184"/>
      <point x="628" y="300" type="curve" smooth="yes"/>
      <point x="628" y="458"/>
      <point x="433" y="431"/>
      <point x="433" y="549" type="curve" smooth="yes"/>
      <point x="433" y="629"/>
      <point x="530" y="679"/>
      <point x="637" y="679" type="curve" smooth="yes"/>
      <point x="743" y="679"/>
      <point x="900" y="600"/>
      <point x="966" y="480" type="curve"/>
      <point x="996" y="480" type="line"/>
      <point x="963" y="637" type="line"/>
      <point x="901" y="679"/>
      <point x="766" y="715"/>
      <point x="566" y="715" type="curve" smooth="yes"/>
      <point x="348" y="715"/>
      <point x="168" y="630"/>
      <point x="168" y="500" type="curve" smooth="yes"/>
      <point x="168" y="337"/>
      <point x="463" y="359"/>
      <point x="463" y="243" type="curve" smooth="yes"/>
      <point x="463" y="177"/>
      <point x="370" y="123"/>
      <point x="112" y="35" type="curve"/>
    </contour>
    <contour>
      <point x="112" y="0" type="line"/>
      <point x="1110" y="0" type="line"/>
      <point x="1110" y="191" type="line"/>
      <point x="1085" y="191" type="line"/>
      <point x="1085" y="151"/>
      <point x="1066" y="130"/>
      <point x="1019" y="130" type="curve" smooth="yes"/>
      <point x="418" y="130" type="line"/>
    </contour>
    <contour>
      <point x="112" y="260" type="line"/>
      <point x="1038" y="260" type="line"/>
      <point x="1038" y="290" type="line"/>
      <point x="112" y="289" type="line"/>
    </contour>
    <contour>
      <point x="112" y="394" type="line"/>
      <point x="1038" y="394" type="line"/>
      <point x="1038" y="424" type="line"/>
      <point x="112" y="424" type="line"/>
    </contour>
  </outline>
</glyph>
<glyph name="currency" format="2">
  <advance width="670"/>
  <unicode hex="00A4"/>
  <outline>
    <contour>
      <point x="335" y="230" type="curve" smooth="yes"/>
      <point x="472" y="230"/>
      <point x="584" y="297"/>
      <point x="584" y="395" type="curve" smooth="yes"/>
      <point x="584" y="491"/>
      <point x="472" y="559"/>
      <point x="335" y="559" type="curve" smooth="yes"/>
      <point x="199" y="559"/>
      <point x="88" y="491"/>
      <point x="88" y="395" type="curve" smooth="yes"/>
      <point x="88" y="297"/>
      <point x="199" y="230"/>
    </contour>
    <contour>
      <point x="335" y="269" type="curve" smooth="yes"/>
      <point x="232" y="269"/>
      <point x="130" y="321"/>
      <point x="130" y="395" type="curve" smooth="yes"/>
      <point x="130" y="468"/>
      <point x="232" y="520"/>
      <point x="335" y="520" type="curve" smooth="yes"/>
      <point x="437" y="520"/>
      <point x="542" y="468"/>
      <point x="542" y="395" type="curve" smooth="yes"/>
      <point x="542" y="321"/>
      <point x="438" y="269"/>
    </contour>
    <contour>
      <point x="104" y="564" type="line"/>
      <point x="77" y="539" type="line"/>
      <point x="134" y="483" type="line"/>
      <point x="160" y="507" type="line"/>
    </contour>
    <contour>
      <point x="566" y="563" type="line"/>
      <point x="510" y="506" type="line"/>
      <point x="537" y="483" type="line"/>
      <point x="594" y="539" type="line"/>
    </contour>
    <contour>
      <point x="105" y="226" type="line"/>
      <point x="161" y="283" type="line"/>
      <point x="135" y="307" type="line"/>
      <point x="78" y="251" type="line"/>
    </contour>
    <contour>
      <point x="566" y="226" type="line"/>
      <point x="593" y="251" type="line"/>
      <point x="536" y="307" type="line"/>
      <point x="510" y="283" type="line"/>
    </contour>
  </outline>
</glyph>
<glyph name="yen" format="2">
  <advance width="1190"/>
  <unicode hex="00A5"/>
  <outline>
    <contour>
      <point x="339" y="0" type="line"/>
      <point x="919" y="0" type="line"/>
      <point x="919" y="24" type="line"/>
      <point x="845" y="31"/>
      <point x="769" y="22"/>
      <point x="769" y="124" type="curve" smooth="yes"/>
      <point x="769" y="328" type="line"/>
      <point x="943" y="584" type="line" smooth="yes"/>
      <point x="994" y="660"/>
      <point x="1094" y="669"/>
      <point x="1146" y="676" type="curve"/>
      <point x="1146" y="700" type="line"/>
      <point x="825" y="700" type="line"/>
      <point x="825" y="676" type="line"/>
      <point x="896" y="669"/>
      <point x="953" y="657"/>
      <point x="905" y="588" type="curve" smooth="yes"/>
      <point x="774" y="398" type="line"/>
      <point x="622" y="583" type="line" smooth="yes"/>
      <point x="562" y="657"/>
      <point x="605" y="669"/>
      <point x="677" y="676" type="curve"/>
      <point x="677" y="700" type="line"/>
      <point x="35" y="700" type="line"/>
      <point x="35" y="676" type="line"/>
      <point x="106" y="669"/>
      <point x="176" y="677"/>
      <point x="258" y="586" type="curve" smooth="yes"/>
      <point x="489" y="304" type="line"/>
      <point x="489" y="124" type="line" smooth="yes"/>
      <point x="489" y="24"/>
      <point x="425" y="31"/>
      <point x="339" y="24" type="curve"/>
    </contour>
    <contour>
      <point x="322" y="146" type="line"/>
      <point x="1005" y="146" type="line"/>
      <point x="1005" y="181" type="line"/>
      <point x="322" y="180" type="line"/>
    </contour>
    <contour>
      <point x="322" y="303" type="line"/>
      <point x="1005" y="303" type="line"/>
      <point x="1005" y="338" type="line"/>
      <point x="322" y="338" type="line"/>
    </contour>
  </outline>
</glyph>
<glyph name="section" format="2">
  <advance width="976"/>
  <unicode hex="00A7"/>
  <outline>
    <contour>
      <point x="65" y="536" type="curve" smooth="yes"/>
      <point x="65" y="445"/>
      <point x="139" y="394"/>
      <point x="238" y="361" type="curve"/>
      <point x="117" y="330"/>
      <point x="38" y="272"/>
      <point x="38" y="188" type="curve" smooth="yes"/>
      <point x="38" y="-87"/>
      <point x="692" y="1"/>
      <point x="692" y="-114" type="curve" smooth="yes"/>
      <point x="692" y="-151"/>
      <point x="612" y="-180"/>
      <point x="495" y="-180" type="curve" smooth="yes"/>
      <point x="336" y="-180"/>
      <point x="174" y="-107"/>
      <point x="111" y="20" type="curve"/>
      <point x="81" y="20" type="line"/>
      <point x="122" y="-145" type="line"/>
      <point x="231" y="-204"/>
      <point x="409" y="-215"/>
      <point x="494" y="-215" type="curve" smooth="yes"/>
      <point x="725" y="-215"/>
      <point x="914" y="-165"/>
      <point x="914" y="-39" type="curve" smooth="yes"/>
      <point x="914" y="55"/>
      <point x="848" y="111"/>
      <point x="759" y="146" type="curve"/>
      <point x="863" y="178"/>
      <point x="931" y="233"/>
      <point x="931" y="309" type="curve" smooth="yes"/>
      <point x="931" y="609"/>
      <point x="287" y="521"/>
      <point x="287" y="614" type="curve" smooth="yes"/>
      <point x="287" y="648"/>
      <point x="357" y="680"/>
      <point x="480" y="680" type="curve" smooth="yes"/>
      <point x="603" y="680"/>
      <point x="763" y="629"/>
      <point x="826" y="502" type="curve"/>
      <point x="856" y="502" type="line"/>
      <point x="817" y="665" type="line"/>
      <point x="777" y="686"/>
      <point x="566" y="715"/>
      <point x="481" y="715" type="curve" smooth="yes"/>
      <point x="244" y="715"/>
      <point x="65" y="665"/>
    </contour>
    <contour>
      <point x="260" y="276" type="curve" smooth="yes"/>
      <point x="260" y="301"/>
      <point x="287" y="323"/>
      <point x="333" y="336" type="curve"/>
      <point x="510" y="298"/>
      <point x="709" y="292"/>
      <point x="709" y="224" type="curve" smooth="yes"/>
      <point x="709" y="204"/>
      <point x="694" y="187"/>
      <point x="667" y="174" type="curve"/>
      <point x="482" y="218"/>
      <point x="260" y="214"/>
    </contour>
  </outline>
</glyph>
<glyph name="copyright" format="2">
  <advance width="1070"/>
  <unicode hex="00A9"/>
  <outline>
    <contour>
      <point x="536" y="-13" type="curve" smooth="yes"/>
      <point x="814" y="-13"/>
      <point x="1040" y="150"/>
      <point x="1040" y="352" type="curve" smooth="yes"/>
      <point x="1040" y="553"/>
      <point x="814" y="716"/>
      <point x="536" y="716" type="curve" smooth="yes"/>
      <point x="256" y="716"/>
      <point x="30" y="553"/>
      <point x="30" y="352" type="curve" smooth="yes"/>
      <point x="30" y="150"/>
      <point x="256" y="-13"/>
    </contour>
    <contour>
      <point x="536" y="25" type="curve" smooth="yes"/>
      <point x="287" y="25"/>
      <point x="71" y="172"/>
      <point x="71" y="352" type="curve" smooth="yes"/>
      <point x="71" y="531"/>
      <point x="287" y="678"/>
      <point x="536" y="678" type="curve" smooth="yes"/>
      <point x="785" y="678"/>
      <point x="999" y="531"/>
      <point x="999" y="352" type="curve" smooth="yes"/>
      <point x="999" y="172"/>
      <point x="785" y="25"/>
    </contour>
    <contour>
      <point x="551" y="110" type="curve" smooth="yes"/>
      <point x="746" y="110"/>
      <point x="845" y="173"/>
      <point x="893" y="250" type="curve"/>
      <point x="867" y="269" type="line"/>
      <point x="822" y="213"/>
      <point x="751" y="167"/>
      <point x="631" y="167" type="curve" smooth="yes"/>
      <point x="511" y="167"/>
      <point x="417" y="236"/>
      <point x="417" y="367" type="curve" smooth="yes"/>
      <point x="417" y="485"/>
      <point x="471" y="561"/>
      <point x="583" y="561" type="curve" smooth="yes"/>
      <point x="674" y="561"/>
      <point x="785" y="494"/>
      <point x="841" y="387" type="curve"/>
      <point x="869" y="387" type="line"/>
      <point x="838" y="541" type="line"/>
      <point x="759" y="580"/>
      <point x="660" y="594"/>
      <point x="563" y="594" type="curve" smooth="yes"/>
      <point x="331" y="594"/>
      <point x="158" y="509"/>
      <point x="158" y="349" type="curve" smooth="yes"/>
      <point x="158" y="176"/>
      <point x="356" y="110"/>
    </contour>
  </outline>
</glyph>
<glyph name="guillemetleft" format="2">
  <advance width="559"/>
  <unicode hex="00AB"/>
  <outline>
    <contour>
      <point x="279" y="528" type="line"/>
      <point x="23" y="261" type="line"/>
      <point x="279" y="-6" type="line"/>
      <point x="313" y="13" type="line"/>
      <point x="129" y="261" type="line"/>
      <point x="313" y="509" type="line"/>
    </contour>
    <contour>
      <point x="489" y="478" type="line"/>
      <point x="253" y="261" type="line"/>
      <point x="489" y="44" type="line"/>
      <point x="523" y="63" type="line"/>
      <point x="359" y="261" type="line"/>
      <point x="523" y="459" type="line"/>
    </contour>
  </outline>
</glyph>
<glyph name="logicalnot" format="2">
  <advance width="973"/>
  <unicode hex="00AC"/>
  <outline>
    <contour>
      <point x="80" y="276" type="line"/>
      <point x="80" y="236" type="line"/>
      <point x="858" y="236" type="line"/>
      <point x="858" y="0" type="line"/>
      <point x="893" y="0" type="line"/>
      <point x="893" y="276" type="line"/>
    </contour>
  </outline>
</glyph>
<glyph name="registered" format="2">
  <advance width="1150"/>
  <unicode hex="00AE"/>
  <outline>
    <contour>
      <point x="576" y="-13" type="curve" smooth="yes"/>
      <point x="874" y="-13"/>
      <point x="1100" y="150"/>
      <point x="1100" y="352" type="curve" smooth="yes"/>
      <point x="1100" y="553"/>
      <point x="874" y="716"/>
      <point x="576" y="716" type="curve" smooth="yes"/>
      <point x="276" y="716"/>
      <point x="50" y="553"/>
      <point x="50" y="352" type="curve" smooth="yes"/>
      <point x="50" y="150"/>
      <point x="276" y="-13"/>
    </contour>
    <contour>
      <point x="576" y="25" type="curve" smooth="yes"/>
      <point x="307" y="25"/>
      <point x="91" y="172"/>
      <point x="91" y="352" type="curve" smooth="yes"/>
      <point x="91" y="531"/>
      <point x="307" y="678"/>
      <point x="576" y="678" type="curve" smooth="yes"/>
      <point x="845" y="678"/>
      <point x="1059" y="531"/>
      <point x="1059" y="352" type="curve" smooth="yes"/>
      <point x="1059" y="172"/>
      <point x="845" y="25"/>
    </contour>
    <contour>
      <point x="873" y="192" type="curve" smooth="yes"/>
      <point x="832" y="293"/>
      <point x="904" y="387"/>
      <point x="749" y="403" type="curve"/>
      <point x="825" y="410"/>
      <point x="862" y="448"/>
      <point x="862" y="487" type="curve" smooth="yes"/>
      <point x="862" y="532"/>
      <point x="813" y="578"/>
      <point x="722" y="578" type="curve" smooth="yes"/>
      <point x="263" y="579" type="line"/>
      <point x="263" y="564" type="line"/>
      <point x="299" y="559"/>
      <point x="339" y="563"/>
      <point x="339" y="500" type="curve" smooth="yes"/>
      <point x="339" y="213" type="line" smooth="yes"/>
      <point x="339" y="149"/>
      <point x="299" y="154"/>
      <point x="263" y="149" type="curve"/>
      <point x="263" y="134" type="line"/>
      <point x="612" y="134" type="line"/>
      <point x="612" y="149" type="line"/>
      <point x="565" y="154"/>
      <point x="517" y="148"/>
      <point x="517" y="213" type="curve" smooth="yes"/>
      <point x="517" y="385" type="line"/>
      <point x="586" y="385" type="line" smooth="yes"/>
      <point x="723" y="385"/>
      <point x="659" y="271"/>
      <point x="691" y="186" type="curve" smooth="yes"/>
      <point x="707" y="144"/>
      <point x="766" y="133"/>
      <point x="847" y="132" type="curve" smooth="yes"/>
      <point x="917" y="131" type="line"/>
      <point x="917" y="145" type="line"/>
      <point x="909" y="144"/>
      <point x="888" y="155"/>
    </contour>
    <contour>
      <point x="581" y="414" type="curve" smooth="yes"/>
      <point x="517" y="414" type="line"/>
      <point x="517" y="549" type="line"/>
      <point x="581" y="549" type="line" smooth="yes"/>
      <point x="647" y="549"/>
      <point x="681" y="520"/>
      <point x="681" y="485" type="curve" smooth="yes"/>
      <point x="681" y="449"/>
      <point x="648" y="414"/>
    </contour>
  </outline>
</glyph>
<glyph name="degree" format="2">
  <advance width="360"/>
  <unicode hex="00B0"/>
  <outline>
    <contour>
      <point x="180" y="542" type="curve" smooth="yes"/>
      <point x="264" y="542"/>
      <point x="334" y="580"/>
      <point x="334" y="644" type="curve" smooth="yes"/>
      <point x="334" y="708"/>
      <point x="264" y="746"/>
      <point x="180" y="746" type="curve" smooth="yes"/>
      <point x="95" y="746"/>
      <point x="25" y="708"/>
      <point x="25" y="644" type="curve" smooth="yes"/>
      <point x="25" y="580"/>
      <point x="95" y="542"/>
    </contour>
    <contour>
      <point x="180" y="577" type="curve" smooth="yes"/>
      <point x="121" y="577"/>
      <point x="62" y="600"/>
      <point x="62" y="644" type="curve" smooth="yes"/>
      <point x="62" y="688"/>
      <point x="121" y="711"/>
      <point x="180" y="711" type="curve" smooth="yes"/>
      <point x="238" y="711"/>
      <point x="297" y="688"/>
      <point x="297" y="644" type="curve" smooth="yes"/>
      <point x="297" y="600"/>
      <point x="238" y="577"/>
    </contour>
  </outline>
</glyph>
<glyph name="plusminus" format="2">
  <advance width="1013"/>
  <unicode hex="00B1"/>
  <outline>
    <contour>
      <point x="100" y="301" type="line"/>
      <point x="100" y="261" type="line"/>
      <point x="913" y="261" type="line"/>
      <point x="913" y="301" type="line"/>
    </contour>
    <contour>
      <point x="489" y="80" type="line"/>
      <point x="524" y="80" type="line"/>
      <point x="524" y="492" type="line"/>
      <point x="489" y="492" type="line"/>
    </contour>
    <contour>
      <point x="100" y="40" type="line"/>
      <point x="100" y="0" type="line"/>
      <point x="913" y="0" type="line"/>
      <point x="913" y="40" type="line"/>
    </contour>
  </outline>
</glyph>
<glyph name="paragraph" format="2">
  <advance width="883"/>
  <unicode hex="00B6"/>
  <outline>
    <contour>
      <point x="645" y="700" type="line"/>
      <point x="645" y="-105" type="line"/>
      <point x="683" y="-105" type="line"/>
      <point x="683" y="700" type="line"/>
    </contour>
    <contour>
      <point x="415" y="700" type="line"/>
      <point x="415" y="-105" type="line"/>
      <point x="453" y="-105" type="line"/>
      <point x="453" y="700" type="line"/>
    </contour>
    <contour>
      <point x="362" y="662" type="line"/>
      <point x="647" y="662" type="line"/>
      <point x="647" y="700" type="line"/>
      <point x="362" y="700" type="line"/>
    </contour>
    <contour>
      <point x="420" y="337" type="curve"/>
      <point x="420" y="700" type="line"/>
      <point x="420" y="700"/>
      <point x="342" y="700"/>
      <point x="340" y="700" type="curve" smooth="yes"/>
      <point x="180" y="700"/>
      <point x="85" y="643"/>
      <point x="85" y="519" type="curve" smooth="yes"/>
      <point x="85" y="394"/>
      <point x="180" y="337"/>
      <point x="340" y="337" type="curve" smooth="yes"/>
      <point x="342" y="337"/>
      <point x="420" y="337"/>
    </contour>
    <contour>
      <point x="683" y="576" type="line"/>
      <point x="683" y="678"/>
      <point x="759" y="669"/>
      <point x="833" y="676" type="curve"/>
      <point x="833" y="700" type="line"/>
      <point x="683" y="700" type="line"/>
    </contour>
  </outline>
</glyph>
<glyph name="guillemetright" format="2">
  <advance width="558"/>
  <unicode hex="00BB"/>
  <outline>
    <contour>
      <point x="279" y="528" type="line"/>
      <point x="245" y="509" type="line"/>
      <point x="429" y="261" type="line"/>
      <point x="245" y="13" type="line"/>
      <point x="279" y="-6" type="line"/>
      <point x="535" y="261" type="line"/>
    </contour>
    <contour>
      <point x="69" y="478" type="line"/>
      <point x="35" y="459" type="line"/>
      <point x="199" y="261" type="line"/>
      <point x="35" y="63" type="line"/>
      <point x="69" y="44" type="line"/>
      <point x="305" y="261" type="line"/>
    </contour>
  </outline>
</glyph>
<glyph name="onequarter" format="2">
  <advance width="1128"/>
  <unicode hex="00BC"/>
  <outline>
    <contour>
      <point x="345" y="414" type="curve" smooth="yes"/>
      <point x="345" y="700" type="line"/>
      <point x="206" y="700" type="line"/>
      <point x="169" y="653"/>
      <point x="78" y="610"/>
      <point x="22" y="616" type="curve"/>
      <point x="22" y="594" type="line"/>
      <point x="77" y="589"/>
      <point x="125" y="603"/>
      <point x="152" y="618" type="curve"/>
      <point x="152" y="414" type="line" smooth="yes"/>
      <point x="152" y="361"/>
      <point x="118" y="370"/>
      <point x="78" y="366" type="curve"/>
      <point x="78" y="350" type="line"/>
      <point x="420" y="350" type="line"/>
      <point x="420" y="366" type="line"/>
      <point x="388" y="370"/>
      <point x="345" y="359"/>
    </contour>
    <contour>
      <point x="1002" y="64" type="curve" smooth="yes"/>
      <point x="1002" y="134" type="line"/>
      <point x="1087" y="134" type="line"/>
      <point x="1087" y="249" type="line"/>
      <point x="1071" y="249" type="line"/>
      <point x="1071" y="230"/>
      <point x="1061" y="216"/>
      <point x="1038" y="216" type="curve" smooth="yes"/>
      <point x="1002" y="216" type="line"/>
      <point x="1002" y="350" type="line"/>
      <point x="809" y="350" type="line"/>
      <point x="616" y="216" type="line"/>
      <point x="616" y="134" type="line"/>
      <point x="809" y="134" type="line"/>
      <point x="809" y="64" type="line" smooth="yes"/>
      <point x="809" y="11"/>
      <point x="772" y="20"/>
      <point x="729" y="16" type="curve"/>
      <point x="729" y="0" type="line"/>
      <point x="1082" y="0" type="line"/>
      <point x="1082" y="16" type="line"/>
      <point x="1048" y="20"/>
      <point x="1002" y="8"/>
    </contour>
    <contour>
      <point x="654" y="216" type="line"/>
      <point x="809" y="326" type="line"/>
      <point x="809" y="216" type="line"/>
    </contour>
    <component base="fraction" xOffset="244"/>
  </outline>
</glyph>
<glyph name="onehalf" format="2">
  <advance width="1101"/>
  <unicode hex="00BD"/>
  <outline>
    <contour>
      <point x="345" y="414" type="curve" smooth="yes"/>
      <point x="345" y="700" type="line"/>
      <point x="206" y="700" type="line"/>
      <point x="169" y="653"/>
      <point x="78" y="610"/>
      <point x="22" y="616" type="curve"/>
      <point x="22" y="594" type="line"/>
      <point x="77" y="589"/>
      <point x="125" y="603"/>
      <point x="152" y="618" type="curve"/>
      <point x="152" y="414" type="line" smooth="yes"/>
      <point x="152" y="361"/>
      <point x="118" y="370"/>
      <point x="78" y="366" type="curve"/>
      <point x="78" y="350" type="line"/>
      <point x="420" y="350" type="line"/>
      <point x="420" y="366" type="line"/>
      <point x="388" y="370"/>
      <point x="345" y="359"/>
    </contour>
    <contour>
      <point x="973" y="-15" type="curve" smooth="yes"/>
      <point x="1035" y="-9"/>
      <point x="1047" y="83"/>
      <point x="1047" y="167" type="curve"/>
      <point x="1025" y="167" type="line"/>
      <point x="1025" y="132"/>
      <point x="1008" y="124"/>
      <point x="998" y="124" type="curve" smooth="yes"/>
      <point x="973" y="124"/>
      <point x="903" y="145"/>
      <point x="864" y="146" type="curve"/>
      <point x="946" y="148"/>
      <point x="1055" y="178"/>
      <point x="1055" y="244" type="curve" smooth="yes"/>
      <point x="1055" y="327"/>
      <point x="910" y="348"/>
      <point x="799" y="348" type="curve" smooth="yes"/>
      <point x="711" y="348"/>
      <point x="639" y="334"/>
      <point x="620" y="311" type="curve"/>
      <point x="606" y="227" type="line"/>
      <point x="634" y="227" type="line"/>
      <point x="674" y="293"/>
      <point x="741" y="328"/>
      <point x="780" y="328" type="curve" smooth="yes"/>
      <point x="827" y="328"/>
      <point x="861" y="305"/>
      <point x="861" y="248" type="curve" smooth="yes"/>
      <point x="861" y="179"/>
      <point x="807" y="160"/>
      <point x="676" y="69" type="curve" smooth="yes"/>
      <point x="640" y="44"/>
      <point x="611" y="14"/>
      <point x="604" y="-8" type="curve"/>
      <point x="626" y="-8" type="line"/>
      <point x="627" y="-3"/>
      <point x="632" y="3"/>
      <point x="642" y="11" type="curve" smooth="yes"/>
      <point x="653" y="19"/>
      <point x="666" y="27"/>
      <point x="676" y="27" type="curve" smooth="yes"/>
      <point x="788" y="27"/>
      <point x="871" y="-24"/>
    </contour>
    <component base="fraction" xOffset="214"/>
  </outline>
</glyph>
<glyph name="threequarters" format="2">
  <advance width="1188"/>
  <unicode hex="00BE"/>
  <outline>
    <contour>
      <point x="255" y="351" type="curve" smooth="yes"/>
      <point x="418" y="351"/>
      <point x="513" y="388"/>
      <point x="513" y="457" type="curve" smooth="yes"/>
      <point x="513" y="506"/>
      <point x="458" y="538"/>
      <point x="351" y="558" type="curve"/>
      <point x="439" y="561"/>
      <point x="503" y="582"/>
      <point x="503" y="632" type="curve" smooth="yes"/>
      <point x="503" y="684"/>
      <point x="403" y="716"/>
      <point x="281" y="716" type="curve" smooth="yes"/>
      <point x="219" y="716"/>
      <point x="141" y="703"/>
      <point x="80" y="677" type="curve"/>
      <point x="65" y="593" type="line"/>
      <point x="86" y="593" type="line"/>
      <point x="105" y="647"/>
      <point x="199" y="694"/>
      <point x="256" y="694" type="curve" smooth="yes"/>
      <point x="276" y="694"/>
      <point x="311" y="686"/>
      <point x="311" y="645" type="curve" smooth="yes"/>
      <point x="311" y="612"/>
      <point x="291" y="569"/>
      <point x="202" y="569" type="curve" smooth="yes"/>
      <point x="141" y="569" type="line"/>
      <point x="130" y="548" type="line"/>
      <point x="202" y="548" type="line" smooth="yes"/>
      <point x="290" y="548"/>
      <point x="319" y="491"/>
      <point x="319" y="446" type="curve" smooth="yes"/>
      <point x="319" y="407"/>
      <point x="309" y="374"/>
      <point x="257" y="372" type="curve" smooth="yes"/>
      <point x="160" y="369"/>
      <point x="88" y="409"/>
      <point x="52" y="473" type="curve"/>
      <point x="32" y="473" type="line"/>
      <point x="47" y="390" type="line"/>
      <point x="103" y="365"/>
      <point x="183" y="351"/>
    </contour>
    <contour>
      <point x="1062" y="64" type="curve" smooth="yes"/>
      <point x="1062" y="134" type="line"/>
      <point x="1147" y="134" type="line"/>
      <point x="1147" y="249" type="line"/>
      <point x="1131" y="249" type="line"/>
      <point x="1131" y="230"/>
      <point x="1121" y="216"/>
      <point x="1098" y="216" type="curve" smooth="yes"/>
      <point x="1062" y="216" type="line"/>
      <point x="1062" y="350" type="line"/>
      <point x="869" y="350" type="line"/>
      <point x="676" y="216" type="line"/>
      <point x="676" y="134" type="line"/>
      <point x="869" y="134" type="line"/>
      <point x="869" y="64" type="line" smooth="yes"/>
      <point x="869" y="11"/>
      <point x="832" y="20"/>
      <point x="789" y="16" type="curve"/>
      <point x="789" y="0" type="line"/>
      <point x="1142" y="0" type="line"/>
      <point x="1142" y="16" type="line"/>
      <point x="1108" y="20"/>
      <point x="1062" y="8"/>
    </contour>
    <contour>
      <point x="714" y="216" type="line"/>
      <point x="869" y="326" type="line"/>
      <point x="869" y="216" type="line"/>
    </contour>
    <component base="fraction" xOffset="274"/>
  </outline>
</glyph>
<glyph name="AE" format="2">
  <advance width="1634"/>
  <unicode hex="00C6"/>
  <anchor x="817" y="0" name="bottom"/>
  <anchor x="817" y="700" name="top"/>
  <outline>
    <contour>
      <point x="624" y="0" type="line"/>
      <point x="1556" y="0" type="line"/>
      <point x="1556" y="245" type="line"/>
      <point x="1536" y="245" type="line"/>
      <point x="1529" y="125"/>
      <point x="1450" y="35"/>
      <point x="1283" y="35" type="curve" smooth="yes"/>
      <point x="1054" y="35" type="line"/>
      <point x="1054" y="665" type="line"/>
      <point x="1283" y="665" type="line" smooth="yes"/>
      <point x="1450" y="665"/>
      <point x="1529" y="574"/>
      <point x="1536" y="455" type="curve"/>
      <point x="1556" y="455" type="line"/>
      <point x="1556" y="700" type="line"/>
      <point x="624" y="700" type="line"/>
      <point x="624" y="676" type="line"/>
      <point x="710" y="669"/>
      <point x="774" y="676"/>
      <point x="774" y="576" type="curve" smooth="yes"/>
      <point x="774" y="124" type="line" smooth="yes"/>
      <point x="774" y="24"/>
      <point x="710" y="31"/>
      <point x="624" y="24" type="curve"/>
    </contour>
    <contour>
      <point x="20" y="0" type="line"/>
      <point x="362" y="0" type="line"/>
      <point x="362" y="24" type="line"/>
      <point x="280" y="28"/>
      <point x="211" y="37"/>
      <point x="286" y="114" type="curve" smooth="yes"/>
      <point x="792" y="635" type="line"/>
      <point x="771" y="668" type="line"/>
      <point x="249" y="122" type="line" smooth="yes"/>
      <point x="168" y="38"/>
      <point x="104" y="31"/>
      <point x="20" y="24" type="curve"/>
    </contour>
    <contour>
      <point x="1324" y="198" type="curve"/>
      <point x="1342" y="201" type="line"/>
      <point x="1228" y="544" type="line"/>
      <point x="1210" y="541" type="line"/>
      <point x="1220" y="469"/>
      <point x="1204" y="424"/>
      <point x="1121" y="424" type="curve" smooth="yes"/>
      <point x="541" y="424" type="line"/>
      <point x="518" y="389" type="line"/>
      <point x="1121" y="389" type="line" smooth="yes"/>
      <point x="1198" y="389"/>
      <point x="1270" y="319"/>
    </contour>
  </outline>
</glyph>
<glyph name="Eth" format="2">
  <advance width="1170"/>
  <unicode hex="00D0"/>
  <outline>
    <contour>
      <point x="30" y="368" type="line"/>
      <point x="30" y="332" type="line"/>
      <point x="620" y="332" type="line"/>
      <point x="620" y="368" type="line"/>
    </contour>
    <component base="D"/>
  </outline>
</glyph>
<glyph name="multiply" format="2">
  <advance width="998"/>
  <unicode hex="00D7"/>
  <outline>
    <contour>
      <point x="143" y="489" type="line"/>
      <point x="121" y="455" type="line"/>
      <point x="909" y="15" type="line"/>
      <point x="932" y="48" type="line"/>
    </contour>
    <contour>
      <point x="114" y="45" type="line"/>
      <point x="132" y="15" type="line"/>
      <point x="923" y="459" type="line"/>
      <point x="905" y="489" type="line"/>
    </contour>
  </outline>
</glyph>
<glyph name="Oslash" format="2">
  <advance width="1267"/>
  <unicode hex="00D8"/>
  <anchor x="634" y="0" name="bottom"/>
  <anchor x="634" y="700" name="top"/>
  <outline>
    <contour>
      <point x="1063" y="766" type="line"/>
      <point x="135" y="-58" type="line"/>
      <point x="192" y="-58" type="line"/>
      <point x="1118" y="764" type="line"/>
    </contour>
    <component base="O"/>
  </outline>
</glyph>
<glyph name="Thorn" format="2">
  <advance width="1111"/>
  <unicode hex="00DE"/>
  <anchor x="556" y="0" name="bottom"/>
  <anchor x="556" y="700" name="top"/>
  <outline>
    <contour>
      <point x="457" y="124" type="curve" smooth="yes"/>
      <point x="457" y="576" type="line" smooth="yes"/>
      <point x="457" y="678"/>
      <point x="533" y="669"/>
      <point x="607" y="676" type="curve"/>
      <point x="607" y="700" type="line"/>
      <point x="27" y="700" type="line"/>
      <point x="27" y="676" type="line"/>
      <point x="113" y="669"/>
      <point x="177" y="676"/>
      <point x="177" y="576" type="curve" smooth="yes"/>
      <point x="177" y="124" type="line" smooth="yes"/>
      <point x="177" y="24"/>
      <point x="113" y="31"/>
      <point x="27" y="24" type="curve"/>
      <point x="27" y="0" type="line"/>
      <point x="607" y="0" type="line"/>
      <point x="607" y="24" type="line"/>
      <point x="533" y="31"/>
      <point x="457" y="22"/>
    </contour>
    <contour>
      <point x="278" y="139" type="line"/>
      <point x="701" y="139" type="line" smooth="yes"/>
      <point x="957" y="139"/>
      <point x="1043" y="244"/>
      <point x="1043" y="356" type="curve" smooth="yes"/>
      <point x="1043" y="468"/>
      <point x="954" y="569"/>
      <point x="701" y="569" type="curve" smooth="yes"/>
      <point x="278" y="569" type="line"/>
      <point x="278" y="544" type="line"/>
      <point x="528" y="544" type="line" smooth="yes"/>
      <point x="668" y="544"/>
      <point x="758" y="449"/>
      <point x="758" y="354" type="curve" smooth="yes"/>
      <point x="758" y="259"/>
      <point x="668" y="164"/>
      <point x="528" y="164" type="curve" smooth="yes"/>
      <point x="278" y="164" type="line"/>
    </contour>
  </outline>
</glyph>
<glyph name="germandbls" format="2">
  <advance width="1275"/>
  <unicode hex="00DF"/>
  <outline>
    <contour>
      <point x="11" y="0" type="line"/>
      <point x="441" y="0" type="line"/>
      <point x="441" y="500" type="line"/>
      <point x="256" y="500"/>
      <point x="222" y="523"/>
      <point x="222" y="572" type="curve" smooth="yes"/>
      <point x="222" y="630"/>
      <point x="332" y="680"/>
      <point x="460" y="680" type="curve" smooth="yes"/>
      <point x="628" y="680"/>
      <point x="745" y="625"/>
      <point x="745" y="545" type="curve" smooth="yes"/>
      <point x="745" y="406"/>
      <point x="489" y="454"/>
      <point x="489" y="317" type="curve" smooth="yes"/>
      <point x="489" y="241"/>
      <point x="606" y="176"/>
      <point x="835" y="152" type="curve" smooth="yes"/>
      <point x="942" y="141"/>
      <point x="1018" y="127"/>
      <point x="1018" y="73" type="curve" smooth="yes"/>
      <point x="1018" y="47"/>
      <point x="998" y="18"/>
      <point x="921" y="18" type="curve" smooth="yes"/>
      <point x="762" y="18"/>
      <point x="570" y="101"/>
      <point x="507" y="228" type="curve"/>
      <point x="477" y="228" type="line"/>
      <point x="518" y="63" type="line"/>
      <point x="627" y="4"/>
      <point x="835" y="-17"/>
      <point x="920" y="-17" type="curve" smooth="yes"/>
      <point x="1051" y="-17"/>
      <point x="1240" y="33"/>
      <point x="1240" y="159" type="curve" smooth="yes"/>
      <point x="1240" y="282"/>
      <point x="1102" y="327"/>
      <point x="966" y="351" type="curve" smooth="yes"/>
      <point x="834" y="374"/>
      <point x="705" y="379"/>
      <point x="705" y="416" type="curve" smooth="yes"/>
      <point x="706" y="487"/>
      <point x="925" y="463"/>
      <point x="925" y="560" type="curve" smooth="yes"/>
      <point x="925" y="655"/>
      <point x="785" y="715"/>
      <point x="461" y="715" type="curve" smooth="yes"/>
      <point x="306" y="715"/>
      <point x="161" y="652"/>
      <point x="161" y="547" type="curve" smooth="yes"/>
      <point x="161" y="500" type="line"/>
      <point x="28" y="500" type="line"/>
      <point x="28" y="465" type="line"/>
      <point x="161" y="465" type="line"/>
      <point x="161" y="124" type="line" smooth="yes"/>
      <point x="161" y="24"/>
      <point x="97" y="31"/>
      <point x="11" y="24" type="curve"/>
    </contour>
  </outline>
</glyph>
<glyph name="ae" format="2">
  <advance width="1490"/>
  <unicode hex="00E6"/>
  <anchor x="745" y="0" name="bottom"/>
  <anchor x="745" y="500" name="top"/>
  <outline>
    <contour>
      <point x="350" y="-17" type="curve" smooth="yes"/>
      <point x="525" y="-17"/>
      <point x="634" y="12"/>
      <point x="705" y="85" type="curve"/>
      <point x="770" y="24"/>
      <point x="881" y="-15"/>
      <point x="1049" y="-15" type="curve" smooth="yes"/>
      <point x="1322" y="-15"/>
      <point x="1421" y="75"/>
      <point x="1462" y="151" type="curve"/>
      <point x="1433" y="172" type="line"/>
      <point x="1392" y="93"/>
      <point x="1278" y="48"/>
      <point x="1167" y="48" type="curve" smooth="yes"/>
      <point x="1037" y="48"/>
      <point x="927" y="106"/>
      <point x="915" y="265" type="curve" smooth="yes"/>
      <point x="914" y="273"/>
      <point x="914" y="281"/>
      <point x="914" y="290" type="curve"/>
      <point x="1451" y="290" type="line"/>
      <point x="1451" y="395"/>
      <point x="1344" y="515"/>
      <point x="1042" y="515" type="curve" smooth="yes"/>
      <point x="938" y="515"/>
      <point x="854" y="494"/>
      <point x="790" y="450" type="curve"/>
      <point x="726" y="494"/>
      <point x="578" y="515"/>
      <point x="447" y="515" type="curve" smooth="yes"/>
      <point x="318" y="515"/>
      <point x="204" y="495"/>
      <point x="107" y="458" type="curve"/>
      <point x="73" y="292" type="line"/>
      <point x="103" y="292" type="line"/>
      <point x="180" y="429"/>
      <point x="310" y="480"/>
      <point x="439" y="480" type="curve" smooth="yes"/>
      <point x="540" y="480"/>
      <point x="607" y="449"/>
      <point x="628" y="324" type="curve"/>
      <point x="202" y="324"/>
      <point x="29" y="263"/>
      <point x="29" y="122" type="curve" smooth="yes"/>
      <point x="29" y="32"/>
      <point x="142" y="-17"/>
    </contour>
    <contour>
      <point x="422" y="25" type="curve" smooth="yes"/>
      <point x="359" y="25"/>
      <point x="306" y="52"/>
      <point x="306" y="108" type="curve" smooth="yes"/>
      <point x="306" y="245"/>
      <point x="426" y="281"/>
      <point x="631" y="290" type="curve"/>
      <point x="631" y="274"/>
      <point x="631" y="259"/>
      <point x="631" y="243" type="curve"/>
      <point x="631" y="188" type="line" smooth="yes"/>
      <point x="631" y="83"/>
      <point x="515" y="25"/>
    </contour>
    <contour>
      <point x="915" y="325" type="line"/>
      <point x="925" y="434"/>
      <point x="989" y="481"/>
      <point x="1047" y="481" type="curve" smooth="yes"/>
      <point x="1116" y="481"/>
      <point x="1165" y="442"/>
      <point x="1172" y="325" type="curve"/>
    </contour>
  </outline>
</glyph>
<glyph name="eth" format="2">
  <advance width="1072"/>
  <unicode hex="00F0"/>
  <anchor x="528" y="0" name="bottom"/>
  <anchor x="528" y="800" name="top"/>
  <outline>
    <contour>
      <point x="40" y="246" type="curve" smooth="yes"/>
      <point x="40" y="70"/>
      <point x="231" y="-15"/>
      <point x="493" y="-15" type="curve" smooth="yes"/>
      <point x="753" y="-15"/>
      <point x="1032" y="97"/>
      <point x="1032" y="325" type="curve" smooth="yes"/>
      <point x="1032" y="589"/>
      <point x="771" y="716"/>
      <point x="480" y="716" type="curve" smooth="yes"/>
      <point x="346" y="716"/>
      <point x="206" y="690"/>
      <point x="82" y="637" type="curve"/>
      <point x="55" y="470" type="line"/>
      <point x="85" y="470" type="line"/>
      <point x="170" y="607"/>
      <point x="335" y="680"/>
      <point x="480" y="680" type="curve" smooth="yes"/>
      <point x="617" y="680"/>
      <point x="736" y="613"/>
      <point x="748" y="470" type="curve"/>
      <point x="720" y="492"/>
      <point x="619" y="515"/>
      <point x="502" y="515" type="curve" smooth="yes"/>
      <point x="233" y="515"/>
      <point x="40" y="422"/>
    </contour>
    <contour>
      <point x="746" y="246" type="curve" smooth="yes"/>
      <point x="746" y="96"/>
      <point x="642" y="20"/>
      <point x="536" y="20" type="curve" smooth="yes"/>
      <point x="431" y="20"/>
      <point x="325" y="96"/>
      <point x="325" y="246" type="curve" smooth="yes"/>
      <point x="325" y="402"/>
      <point x="431" y="479"/>
      <point x="536" y="479" type="curve" smooth="yes"/>
      <point x="642" y="479"/>
      <point x="746" y="402"/>
    </contour>
    <contour>
      <point x="370" y="596" type="line"/>
      <point x="379" y="562" type="line"/>
      <point x="909" y="693" type="line"/>
      <point x="901" y="726" type="line"/>
    </contour>
  </outline>
</glyph>
<glyph name="divide" format="2">
  <advance width="973"/>
  <unicode hex="00F7"/>
  <outline>
    <contour>
      <point x="80" y="276" type="line"/>
      <point x="80" y="236" type="line"/>
      <point x="893" y="236" type="line"/>
      <point x="893" y="276" type="line"/>
    </contour>
    <contour>
      <point x="487" y="390" type="curve" smooth="yes"/>
      <point x="518" y="390"/>
      <point x="542" y="414"/>
      <point x="542" y="446" type="curve" smooth="yes"/>
      <point x="542" y="477"/>
      <point x="518" y="501"/>
      <point x="487" y="501" type="curve" smooth="yes"/>
      <point x="455" y="501"/>
      <point x="431" y="477"/>
      <point x="431" y="446" type="curve" smooth="yes"/>
      <point x="431" y="414"/>
      <point x="455" y="390"/>
    </contour>
    <contour>
      <point x="487" y="11" type="curve" smooth="yes"/>
      <point x="518" y="11"/>
      <point x="542" y="35"/>
      <point x="542" y="67" type="curve" smooth="yes"/>
      <point x="542" y="98"/>
      <point x="518" y="122"/>
      <point x="487" y="122" type="curve" smooth="yes"/>
      <point x="455" y="122"/>
      <point x="431" y="98"/>
      <point x="431" y="67" type="curve" smooth="yes"/>
      <point x="431" y="35"/>
      <point x="455" y="11"/>
    </contour>
  </outline>
</glyph>
<glyph name="oslash" format="2">
  <advance width="956"/>
  <unicode hex="00F8"/>
  <anchor x="478" y="500" name="top"/>
  <outline>
    <contour>
      <point x="829" y="558" type="line"/>
      <point x="135" y="-58" type="line"/>
      <point x="192" y="-58" type="line"/>
      <point x="884" y="556" type="line"/>
    </contour>
    <component base="o"/>
  </outline>
</glyph>
<glyph name="thorn" format="2">
  <advance width="1212"/>
  <unicode hex="00FE"/>
  <anchor x="606" y="0" name="bottom"/>
  <anchor x="606" y="500" name="top"/>
  <outline>
    <contour>
      <point x="14" y="-200" type="line"/>
      <point x="594" y="-200" type="line"/>
      <point x="594" y="-176" type="line"/>
      <point x="520" y="-169"/>
      <point x="444" y="-178"/>
      <point x="444" y="-76" type="curve" smooth="yes"/>
      <point x="444" y="88" type="line"/>
      <point x="521" y="19"/>
      <point x="648" y="-15"/>
      <point x="774" y="-15" type="curve" smooth="yes"/>
      <point x="977" y="-15"/>
      <point x="1180" y="74"/>
      <point x="1180" y="250" type="curve" smooth="yes"/>
      <point x="1180" y="426"/>
      <point x="975" y="515"/>
      <point x="771" y="515" type="curve" smooth="yes"/>
      <point x="646" y="515"/>
      <point x="521" y="482"/>
      <point x="444" y="414" type="curve"/>
      <point x="444" y="700" type="line"/>
      <point x="14" y="700" type="line"/>
      <point x="14" y="680" type="line"/>
      <point x="97" y="674"/>
      <point x="164" y="663"/>
      <point x="164" y="576" type="curve" smooth="yes"/>
      <point x="164" y="-76" type="line" smooth="yes"/>
      <point x="164" y="-176"/>
      <point x="100" y="-169"/>
      <point x="14" y="-176" type="curve"/>
    </contour>
    <contour>
      <point x="444" y="249" type="curve" smooth="yes"/>
      <point x="444" y="392"/>
      <point x="558" y="465"/>
      <point x="672" y="465" type="curve" smooth="yes"/>
      <point x="784" y="465"/>
      <point x="895" y="394"/>
      <point x="895" y="249" type="curve" smooth="yes"/>
      <point x="895" y="104"/>
      <point x="783" y="36"/>
      <point x="671" y="36" type="curve" smooth="yes"/>
      <point x="558" y="36"/>
      <point x="444" y="107"/>
    </contour>
  </outline>
</glyph>
<glyph name="dcroat" format="2">
  <advance width="1121"/>
  <unicode hex="0111"/>
  <outline>
    <contour>
      <point x="529" y="601" type="line"/>
      <point x="529" y="565" type="line"/>
      <point x="1119" y="565" type="line"/>
      <point x="1119" y="601" type="line"/>
    </contour>
    <component base="d"/>
  </outline>
</glyph>
<glyph name="idotless" format="2">
  <advance width="598"/>
  <unicode hex="0131"/>
  <anchor x="299" y="0" name="bottom"/>
  <anchor x="538" y="10" name="ogonek"/>
  <anchor x="299" y="500" name="top"/>
  <outline>
    <contour>
      <point x="14" y="0" type="line"/>
      <point x="594" y="0" type="line"/>
      <point x="594" y="24" type="line"/>
      <point x="520" y="31"/>
      <point x="444" y="22"/>
      <point x="444" y="124" type="curve" smooth="yes"/>
      <point x="444" y="500" type="line"/>
      <point x="14" y="499" type="line"/>
      <point x="14" y="480" type="line"/>
      <point x="97" y="474"/>
      <point x="164" y="463"/>
      <point x="164" y="376" type="curve" smooth="yes"/>
      <point x="164" y="124" type="line" smooth="yes"/>
      <point x="164" y="24"/>
      <point x="100" y="31"/>
      <point x="14" y="24" type="curve"/>
    </contour>
  </outline>
</glyph>
<glyph name="Lslash" format="2">
  <advance width="1005"/>
  <unicode hex="0141"/>
  <outline>
    <contour>
      <point x="621" y="532" type="line"/>
      <point x="65" y="224" type="line"/>
      <point x="78" y="191" type="line"/>
      <point x="634" y="499" type="line"/>
    </contour>
    <component base="L"/>
  </outline>
</glyph>
<glyph name="lslash" format="2">
  <advance width="588"/>
  <unicode hex="0142"/>
  <outline>
    <contour>
      <point x="561" y="592" type="line"/>
      <point x="5" y="284" type="line"/>
      <point x="18" y="251" type="line"/>
      <point x="574" y="559" type="line"/>
    </contour>
    <component base="l"/>
  </outline>
</glyph>
<glyph name="OE" format="2">
  <advance width="1715"/>
  <unicode hex="0152"/>
  <anchor x="858" y="0" name="bottom"/>
  <anchor x="858" y="700" name="top"/>
  <outline>
    <contour>
      <point x="1364" y="665" type="line" smooth="yes"/>
      <point x="1531" y="665"/>
      <point x="1610" y="574"/>
      <point x="1617" y="455" type="curve"/>
      <point x="1637" y="455" type="line"/>
      <point x="1637" y="700" type="line"/>
      <point x="634" y="700" type="line" smooth="yes"/>
      <point x="317" y="700"/>
      <point x="43" y="576"/>
      <point x="43" y="345" type="curve" smooth="yes"/>
      <point x="43" y="113"/>
      <point x="317" y="0"/>
      <point x="634" y="0" type="curve" smooth="yes"/>
      <point x="1637" y="0" type="line"/>
      <point x="1637" y="245" type="line"/>
      <point x="1617" y="245" type="line"/>
      <point x="1610" y="125"/>
      <point x="1531" y="35"/>
      <point x="1364" y="35" type="curve" smooth="yes"/>
      <point x="1135" y="35" type="line"/>
      <point x="1135" y="465" type="line"/>
      <point x="1202" y="465" type="line" smooth="yes"/>
      <point x="1279" y="465"/>
      <point x="1351" y="395"/>
      <point x="1405" y="274" type="curve"/>
      <point x="1423" y="277" type="line"/>
      <point x="1309" y="620" type="line"/>
      <point x="1291" y="617" type="line"/>
      <point x="1301" y="545"/>
      <point x="1285" y="500"/>
      <point x="1202" y="500" type="curve" smooth="yes"/>
      <point x="1135" y="500" type="line"/>
      <point x="1135" y="665" type="line"/>
    </contour>
    <contour>
      <point x="855" y="135" type="line" smooth="yes"/>
      <point x="855" y="35"/>
      <point x="792" y="35"/>
      <point x="705" y="35" type="curve" smooth="yes"/>
      <point x="634" y="35" type="line" smooth="yes"/>
      <point x="433" y="35"/>
      <point x="333" y="185"/>
      <point x="333" y="350" type="curve" smooth="yes"/>
      <point x="333" y="515"/>
      <point x="433" y="665"/>
      <point x="634" y="665" type="curve" smooth="yes"/>
      <point x="705" y="665" type="line" smooth="yes"/>
      <point x="792" y="665"/>
      <point x="855" y="665"/>
      <point x="855" y="565" type="curve" smooth="yes"/>
    </contour>
  </outline>
</glyph>
<glyph name="oe" format="2">
  <advance width="1497"/>
  <unicode hex="0153"/>
  <anchor x="749" y="0" name="bottom"/>
  <anchor x="749" y="500" name="top"/>
  <outline>
    <contour>
      <point x="478" y="-15" type="curve" smooth="yes"/>
      <point x="599" y="-15"/>
      <point x="721" y="23"/>
      <point x="785" y="63" type="curve"/>
      <point x="849" y="23"/>
      <point x="940" y="-15"/>
      <point x="1097" y="-15" type="curve" smooth="yes"/>
      <point x="1309" y="-15"/>
      <point x="1409" y="53"/>
      <point x="1470" y="151" type="curve"/>
      <point x="1441" y="172" type="line"/>
      <point x="1395" y="92"/>
      <point x="1289" y="48"/>
      <point x="1185" y="49" type="curve" smooth="yes"/>
      <point x="1029" y="50"/>
      <point x="928" y="124"/>
      <point x="924" y="265" type="curve" smooth="yes"/>
      <point x="924" y="274"/>
      <point x="924" y="282"/>
      <point x="925" y="290" type="curve"/>
      <point x="1459" y="290" type="line"/>
      <point x="1459" y="395"/>
      <point x="1352" y="515"/>
      <point x="1050" y="515" type="curve" smooth="yes"/>
      <point x="933" y="515"/>
      <point x="838" y="478"/>
      <point x="774" y="438" type="curve"/>
      <point x="710" y="478"/>
      <point x="594" y="515"/>
      <point x="478" y="515" type="curve" smooth="yes"/>
      <point x="223" y="515"/>
      <point x="32" y="422"/>
      <point x="32" y="246" type="curve" smooth="yes"/>
      <point x="32" y="70"/>
      <point x="223" y="-15"/>
    </contour>
    <contour>
      <point x="478" y="20" type="curve" smooth="yes"/>
      <point x="398" y="20"/>
      <point x="317" y="85"/>
      <point x="317" y="246" type="curve" smooth="yes"/>
      <point x="317" y="412"/>
      <point x="398" y="480"/>
      <point x="478" y="480" type="curve" smooth="yes"/>
      <point x="559" y="480"/>
      <point x="639" y="412"/>
      <point x="639" y="246" type="curve" smooth="yes"/>
      <point x="639" y="85"/>
      <point x="559" y="20"/>
    </contour>
    <contour>
      <point x="928" y="325" type="line"/>
      <point x="943" y="439"/>
      <point x="1001" y="481"/>
      <point x="1055" y="481" type="curve" smooth="yes"/>
      <point x="1124" y="481"/>
      <point x="1173" y="442"/>
      <point x="1180" y="325" type="curve"/>
    </contour>
  </outline>
</glyph>
<glyph name="florin" format="2">
  <advance width="914"/>
  <unicode hex="0192"/>
  <outline>
    <contour>
      <point x="332" y="547" type="curve" smooth="yes"/>
      <point x="311" y="279" type="line"/>
      <point x="60" y="279" type="line"/>
      <point x="60" y="244" type="line"/>
      <point x="309" y="244" type="line"/>
      <point x="289" y="0" type="line"/>
      <point x="477" y="0"/>
      <point x="521" y="-29"/>
      <point x="521" y="-72" type="curve" smooth="yes"/>
      <point x="521" y="-128"/>
      <point x="445" y="-180"/>
      <point x="313" y="-180" type="curve" smooth="yes"/>
      <point x="162" y="-180"/>
      <point x="63" y="-115"/>
      <point x="20" y="-7" type="curve"/>
      <point x="-10" y="-7" type="line"/>
      <point x="27" y="-170" type="line"/>
      <point x="84" y="-196"/>
      <point x="200" y="-215"/>
      <point x="312" y="-215" type="curve" smooth="yes"/>
      <point x="467" y="-215"/>
      <point x="574" y="-152"/>
      <point x="582" y="-47" type="curve" smooth="yes"/>
      <point x="605" y="244" type="line"/>
      <point x="854" y="244" type="line"/>
      <point x="854" y="279" type="line"/>
      <point x="607" y="279" type="line"/>
      <point x="625" y="500" type="line"/>
      <point x="414" y="500"/>
      <point x="393" y="539"/>
      <point x="393" y="572" type="curve" smooth="yes"/>
      <point x="393" y="628"/>
      <point x="469" y="680"/>
      <point x="601" y="680" type="curve" smooth="yes"/>
      <point x="752" y="680"/>
      <point x="851" y="615"/>
      <point x="894" y="507" type="curve"/>
      <point x="924" y="507" type="line"/>
      <point x="887" y="670" type="line"/>
      <point x="830" y="696"/>
      <point x="714" y="715"/>
      <point x="602" y="715" type="curve" smooth="yes"/>
      <point x="447" y="715"/>
      <point x="340" y="652"/>
    </contour>
  </outline>
</glyph>
<glyph name="jdotless" format="2">
  <advance width="499"/>
  <unicode hex="0237"/>
  <anchor x="250" y="-200" name="bottom"/>
  <anchor x="250" y="500" name="top"/>
  <outline>
    <contour>
      <point x="110" y="-214" type="curve" smooth="yes"/>
      <point x="296" y="-214"/>
      <point x="435" y="-135"/>
      <point x="435" y="54" type="curve" smooth="yes"/>
      <point x="435" y="500" type="line"/>
      <point x="5" y="499" type="line"/>
      <point x="5" y="480" type="line"/>
      <point x="88" y="473"/>
      <point x="155" y="463"/>
      <point x="155" y="376" type="curve" smooth="yes"/>
      <point x="155" y="13" type="line" smooth="yes"/>
      <point x="155" y="-108"/>
      <point x="106" y="-162"/>
      <point x="33" y="-162" type="curve" smooth="yes"/>
      <point x="-21" y="-162"/>
      <point x="-99" y="-125"/>
      <point x="-150" y="-65" type="curve"/>
      <point x="-178" y="-87" type="line"/>
      <point x="-105" y="-174"/>
      <point x="4" y="-214"/>
    </contour>
  </outline>
</glyph>
<glyph name="gravecomb" format="2">
  <advance width="891"/>
  <unicode hex="0300"/>
  <anchor x="476" y="500" name="_top"/>
  <anchor x="476" y="785" name="top"/>
  <outline>
    <contour>
      <point x="314" y="724" type="line"/>
      <point x="618" y="565" type="line"/>
      <point x="637" y="599" type="line"/>
      <point x="350" y="785" type="line"/>
    </contour>
  </outline>
</glyph>
<glyph name="acutecomb" format="2">
  <advance width="891"/>
  <unicode hex="0301"/>
  <anchor x="477" y="500" name="_top"/>
  <anchor x="477" y="785" name="top"/>
  <outline>
    <contour>
      <point x="638" y="724" type="line"/>
      <point x="602" y="785" type="line"/>
      <point x="315" y="599" type="line"/>
      <point x="334" y="565" type="line"/>
    </contour>
  </outline>
</glyph>
<glyph name="circumflexcomb" format="2">
  <advance width="891"/>
  <unicode hex="0302"/>
  <anchor x="471" y="500" name="_top"/>
  <anchor x="471" y="785" name="top"/>
  <outline>
    <contour>
      <point x="758" y="599" type="line"/>
      <point x="471" y="785" type="line"/>
      <point x="184" y="599" type="line"/>
      <point x="203" y="565" type="line"/>
      <point x="471" y="705" type="line"/>
      <point x="739" y="565" type="line"/>
    </contour>
  </outline>
</glyph>
<glyph name="tildecomb" format="2">
  <advance width="1220"/>
  <unicode hex="0303"/>
  <anchor x="657" y="500" name="_top"/>
  <anchor x="657" y="779" name="top"/>
  <outline>
    <contour>
      <point x="445" y="681" type="curve" smooth="yes"/>
      <point x="591" y="681"/>
      <point x="704" y="565"/>
      <point x="828" y="565" type="curve" smooth="yes"/>
      <point x="921" y="565"/>
      <point x="984" y="603"/>
      <point x="984" y="750" type="curve"/>
      <point x="972" y="750" type="line"/>
      <point x="972" y="674"/>
      <point x="921" y="663"/>
      <point x="868" y="663" type="curve" smooth="yes"/>
      <point x="743" y="663"/>
      <point x="630" y="779"/>
      <point x="499" y="779" type="curve" smooth="yes"/>
      <point x="393" y="779"/>
      <point x="329" y="737"/>
      <point x="329" y="594" type="curve"/>
      <point x="341" y="594" type="line"/>
      <point x="341" y="670"/>
      <point x="393" y="681"/>
    </contour>
  </outline>
</glyph>
<glyph name="macroncomb" format="2">
  <advance width="600"/>
  <unicode hex="0304"/>
  <anchor x="352" y="500" name="_top"/>
  <anchor x="352" y="712" name="top"/>
  <outline>
    <contour>
      <point x="82" y="712" type="line"/>
      <point x="82" y="657" type="line"/>
      <point x="622" y="657" type="line"/>
      <point x="622" y="712" type="line"/>
    </contour>
  </outline>
</glyph>
<glyph name="brevecomb" format="2">
  <advance width="600"/>
  <unicode hex="0306"/>
  <anchor x="312" y="500" name="_top"/>
  <anchor x="312" y="761" name="top"/>
  <outline>
    <contour>
      <point x="63" y="761" type="line"/>
      <point x="63" y="639"/>
      <point x="148" y="565"/>
      <point x="312" y="565" type="curve" smooth="yes"/>
      <point x="476" y="565"/>
      <point x="561" y="639"/>
      <point x="561" y="761" type="curve"/>
      <point x="524" y="761" type="line"/>
      <point x="524" y="691"/>
      <point x="464" y="640"/>
      <point x="312" y="640" type="curve" smooth="yes"/>
      <point x="160" y="640"/>
      <point x="100" y="691"/>
      <point x="100" y="761" type="curve"/>
    </contour>
  </outline>
</glyph>
<glyph name="dotaccentcomb" format="2">
  <advance width="600"/>
  <unicode hex="0307"/>
  <anchor x="367" y="524" name="_top"/>
  <anchor x="367" y="700" name="top"/>
  <outline>
    <contour>
      <point x="367" y="573" type="curve" smooth="yes"/>
      <point x="414" y="573"/>
      <point x="445" y="600"/>
      <point x="445" y="636" type="curve" smooth="yes"/>
      <point x="445" y="671"/>
      <point x="414" y="700"/>
      <point x="367" y="700" type="curve" smooth="yes"/>
      <point x="319" y="700"/>
      <point x="288" y="671"/>
      <point x="288" y="636" type="curve" smooth="yes"/>
      <point x="288" y="600"/>
      <point x="319" y="573"/>
    </contour>
  </outline>
</glyph>
<glyph name="dieresiscomb" format="2">
  <advance width="891"/>
  <unicode hex="0308"/>
  <anchor x="463" y="500" name="_top"/>
  <anchor x="463" y="700" name="top"/>
  <outline>
    <contour>
      <point x="304" y="567" type="curve" smooth="yes"/>
      <point x="373" y="567"/>
      <point x="420" y="608"/>
      <point x="420" y="662" type="curve" smooth="yes"/>
      <point x="420" y="713"/>
      <point x="373" y="756"/>
      <point x="304" y="756" type="curve" smooth="yes"/>
      <point x="232" y="756"/>
      <point x="185" y="713"/>
      <point x="185" y="662" type="curve" smooth="yes"/>
      <point x="185" y="608"/>
      <point x="232" y="567"/>
    </contour>
    <contour>
      <point x="623" y="567" type="curve" smooth="yes"/>
      <point x="693" y="567"/>
      <point x="740" y="608"/>
      <point x="740" y="662" type="curve" smooth="yes"/>
      <point x="740" y="713"/>
      <point x="693" y="756"/>
      <point x="623" y="756" type="curve" smooth="yes"/>
      <point x="552" y="756"/>
      <point x="505" y="713"/>
      <point x="505" y="662" type="curve" smooth="yes"/>
      <point x="505" y="608"/>
      <point x="552" y="567"/>
    </contour>
  </outline>
</glyph>
<glyph name="ringcomb" format="2">
  <advance width="946"/>
  <unicode hex="030A"/>
  <anchor x="507" y="500" name="_top"/>
  <anchor x="475" y="772" name="top"/>
  <outline>
    <contour>
      <point x="475" y="597" type="curve" smooth="yes"/>
      <point x="632" y="597"/>
      <point x="761" y="624"/>
      <point x="761" y="684" type="curve" smooth="yes"/>
      <point x="761" y="745"/>
      <point x="632" y="772"/>
      <point x="475" y="772" type="curve" smooth="yes"/>
      <point x="318" y="772"/>
      <point x="189" y="745"/>
      <point x="189" y="684" type="curve" smooth="yes"/>
      <point x="189" y="624"/>
      <point x="318" y="597"/>
    </contour>
    <contour>
      <point x="475" y="631" type="curve" smooth="yes"/>
      <point x="378" y="631"/>
      <point x="245" y="646"/>
      <point x="245" y="684" type="curve" smooth="yes"/>
      <point x="245" y="723"/>
      <point x="378" y="738"/>
      <point x="475" y="738" type="curve" smooth="yes"/>
      <point x="572" y="738"/>
      <point x="705" y="723"/>
      <point x="705" y="684" type="curve" smooth="yes"/>
      <point x="705" y="646"/>
      <point x="572" y="631"/>
    </contour>
  </outline>
</glyph>
<glyph name="hungarumlautcomb" format="2">
  <advance width="600"/>
  <unicode hex="030B"/>
  <anchor x="289" y="500" name="_top"/>
  <anchor x="309" y="785" name="top"/>
  <outline>
    <contour>
      <point x="339" y="724" type="line"/>
      <point x="303" y="785" type="line"/>
      <point x="16" y="599" type="line"/>
      <point x="35" y="565" type="line"/>
    </contour>
    <contour>
      <point x="602" y="701" type="line"/>
      <point x="573" y="766" type="line"/>
      <point x="269" y="609" type="line"/>
      <point x="284" y="573" type="line"/>
    </contour>
  </outline>
</glyph>
<glyph name="caroncomb" format="2">
  <advance width="600"/>
  <unicode hex="030C"/>
  <anchor x="271" y="500" name="_top"/>
  <anchor x="271" y="785" name="top"/>
  <outline>
    <contour>
      <point x="-16" y="751" type="line"/>
      <point x="271" y="565" type="line"/>
      <point x="558" y="751" type="line"/>
      <point x="539" y="785" type="line"/>
      <point x="271" y="645" type="line"/>
      <point x="3" y="785" type="line"/>
    </contour>
  </outline>
</glyph>
<glyph name="commaturnedabovecomb" format="2">
  <advance width="600"/>
  <unicode hex="0312"/>
  <anchor x="320" y="500" name="_top"/>
  <anchor x="320" y="855" name="top"/>
  <outline>
    <contour>
      <point x="341" y="855" type="line"/>
      <point x="256" y="805"/>
      <point x="225" y="753"/>
      <point x="225" y="663" type="curve" smooth="yes"/>
      <point x="225" y="625"/>
      <point x="232" y="541"/>
      <point x="322" y="541" type="curve" smooth="yes"/>
      <point x="377" y="541"/>
      <point x="414" y="575"/>
      <point x="414" y="617" type="curve" smooth="yes"/>
      <point x="414" y="658"/>
      <point x="385" y="687"/>
      <point x="331" y="687" type="curve" smooth="yes"/>
      <point x="312" y="687"/>
      <point x="285" y="683"/>
      <point x="263" y="665" type="curve"/>
      <point x="244" y="730"/>
      <point x="293" y="808"/>
      <point x="353" y="838" type="curve"/>
    </contour>
  </outline>
</glyph>
<glyph name="commaaccentcomb" format="2">
  <advance width="600"/>
  <unicode hex="0326"/>
  <anchor x="295" y="0" name="_bottom"/>
  <anchor x="295" y="-261" name="bottom"/>
  <outline>
    <contour>
      <point x="268" y="-331" type="line"/>
      <point x="351" y="-297"/>
      <point x="391" y="-229"/>
      <point x="384" y="-125" type="curve" smooth="yes"/>
      <point x="380" y="-81"/>
      <point x="348" y="-53"/>
      <point x="294" y="-53" type="curve" smooth="yes"/>
      <point x="238" y="-53"/>
      <point x="205" y="-83"/>
      <point x="205" y="-125" type="curve" smooth="yes"/>
      <point x="205" y="-167"/>
      <point x="236" y="-197"/>
      <point x="294" y="-197" type="curve" smooth="yes"/>
      <point x="311" y="-197"/>
      <point x="331" y="-195"/>
      <point x="347" y="-186" type="curve"/>
      <point x="354" y="-251"/>
      <point x="302" y="-292"/>
      <point x="259" y="-312" type="curve"/>
    </contour>
  </outline>
</glyph>
<glyph name="cedillacomb" format="2">
  <advance width="914"/>
  <unicode hex="0327"/>
  <anchor x="529" y="0" name="_bottom"/>
  <anchor x="529" y="-218" name="bottom"/>
  <outline>
    <contour>
      <point x="385" y="-165" type="curve"/>
      <point x="378" y="-196" type="line"/>
      <point x="405" y="-210"/>
      <point x="451" y="-218"/>
      <point x="498" y="-218" type="curve" smooth="yes"/>
      <point x="585" y="-218"/>
      <point x="679" y="-193"/>
      <point x="679" y="-140" type="curve" smooth="yes"/>
      <point x="679" y="-99"/>
      <point x="624" y="-59"/>
      <point x="474" y="-59" type="curve"/>
      <point x="512" y="-4" type="line"/>
      <point x="471" y="-4" type="line"/>
      <point x="429" y="-60" type="line"/>
      <point x="429" y="-88" type="line"/>
      <point x="488" y="-88"/>
      <point x="589" y="-95"/>
      <point x="589" y="-140" type="curve" smooth="yes"/>
      <point x="589" y="-172"/>
      <point x="539" y="-185"/>
      <point x="487" y="-185" type="curve" smooth="yes"/>
      <point x="448" y="-185"/>
      <point x="408" y="-178"/>
    </contour>
  </outline>
</glyph>
<glyph name="ogonekcomb" format="2">
  <advance width="600"/>
  <unicode hex="0328"/>
  <anchor x="476" y="20" name="_ogonek"/>
  <outline>
    <contour>
      <point x="296" y="20" type="line"/>
      <point x="103" y="-110"/>
      <point x="172" y="-245"/>
      <point x="327" y="-245" type="curve" smooth="yes"/>
      <point x="381" y="-245"/>
      <point x="443" y="-225"/>
      <point x="476" y="-198" type="curve"/>
      <point x="456" y="-171" type="line"/>
      <point x="436" y="-184"/>
      <point x="408" y="-197"/>
      <point x="369" y="-197" type="curve" smooth="yes"/>
      <point x="252" y="-197"/>
      <point x="204" y="-92"/>
      <point x="314" y="1" type="curve"/>
    </contour>
  </outline>
</glyph>
<glyph name="mu" format="2">
  <advance width="1160"/>
  <unicode hex="03BC"/>
  <outline>
    <contour>
      <point x="401" y="329" type="line"/>
      <point x="121" y="329" type="line"/>
      <point x="121" y="249" type="line" smooth="yes"/>
      <point x="121" y="81"/>
      <point x="283" y="-15"/>
      <point x="447" y="-15" type="curve" smooth="yes"/>
      <point x="555" y="-15"/>
      <point x="664" y="28"/>
      <point x="726" y="120" type="curve"/>
      <point x="726" y="4" type="line"/>
      <point x="1156" y="4" type="line"/>
      <point x="1156" y="24" type="line"/>
      <point x="1072" y="30"/>
      <point x="1006" y="41"/>
      <point x="1006" y="128" type="curve" smooth="yes"/>
      <point x="1006" y="500" type="line"/>
      <point x="726" y="500" type="line"/>
      <point x="726" y="269" type="line" smooth="yes"/>
      <point x="726" y="123"/>
      <point x="629" y="47"/>
      <point x="543" y="47" type="curve" smooth="yes"/>
      <point x="469" y="47"/>
      <point x="401" y="102"/>
      <point x="401" y="219" type="curve" smooth="yes"/>
    </contour>
    <contour>
      <point x="121" y="-200" type="line"/>
      <point x="401" y="-200" type="line"/>
      <point x="401" y="500" type="line"/>
      <point x="121" y="500" type="line"/>
    </contour>
  </outline>
</glyph>
<glyph name="endash" format="2">
  <advance width="530"/>
  <unicode hex="2013"/>
  <outline>
    <contour>
      <point x="74" y="286" type="line"/>
      <point x="74" y="226" type="line"/>
      <point x="456" y="226" type="line"/>
      <point x="456" y="286" type="line"/>
    </contour>
  </outline>
</glyph>
<glyph name="emdash" format="2">
  <advance width="700"/>
  <unicode hex="2014"/>
  <outline>
    <contour>
      <point x="74" y="286" type="line"/>
      <point x="74" y="226" type="line"/>
      <point x="626" y="226" type="line"/>
      <point x="626" y="286" type="line"/>
    </contour>
  </outline>
</glyph>
<glyph name="quotedblleft" format="2">
  <advance width="549"/>
  <unicode hex="201C"/>
  <outline>
    <contour>
      <point x="197" y="715" type="line"/>
      <point x="92" y="676"/>
      <point x="61" y="637"/>
      <point x="69" y="521" type="curve" smooth="yes"/>
      <point x="72" y="477"/>
      <point x="105" y="449"/>
      <point x="159" y="449" type="curve" smooth="yes"/>
      <point x="215" y="449"/>
      <point x="248" y="479"/>
      <point x="248" y="521" type="curve" smooth="yes"/>
      <point x="248" y="563"/>
      <point x="217" y="593"/>
      <point x="159" y="593" type="curve" smooth="yes"/>
      <point x="142" y="593"/>
      <point x="122" y="591"/>
      <point x="106" y="582" type="curve"/>
      <point x="96" y="644"/>
      <point x="165" y="686"/>
      <point x="202" y="697" type="curve"/>
    </contour>
    <contour>
      <point x="447" y="715" type="line"/>
      <point x="342" y="676"/>
      <point x="311" y="637"/>
      <point x="319" y="521" type="curve" smooth="yes"/>
      <point x="322" y="477"/>
      <point x="355" y="449"/>
      <point x="409" y="449" type="curve" smooth="yes"/>
      <point x="465" y="449"/>
      <point x="498" y="479"/>
      <point x="498" y="521" type="curve" smooth="yes"/>
      <point x="498" y="563"/>
      <point x="467" y="593"/>
      <point x="409" y="593" type="curve" smooth="yes"/>
      <point x="392" y="593"/>
      <point x="372" y="591"/>
      <point x="356" y="582" type="curve"/>
      <point x="346" y="644"/>
      <point x="415" y="686"/>
      <point x="452" y="697" type="curve"/>
    </contour>
  </outline>
</glyph>
<glyph name="quotedblright" format="2">
  <advance width="550"/>
  <unicode hex="201D"/>
  <outline>
    <contour>
      <point x="352" y="449" type="line"/>
      <point x="457" y="488"/>
      <point x="488" y="527"/>
      <point x="480" y="643" type="curve" smooth="yes"/>
      <point x="477" y="687"/>
      <point x="444" y="715"/>
      <point x="390" y="715" type="curve" smooth="yes"/>
      <point x="334" y="715"/>
      <point x="301" y="685"/>
      <point x="301" y="643" type="curve" smooth="yes"/>
      <point x="301" y="601"/>
      <point x="332" y="571"/>
      <point x="390" y="571" type="curve" smooth="yes"/>
      <point x="407" y="571"/>
      <point x="427" y="573"/>
      <point x="443" y="582" type="curve"/>
      <point x="453" y="520"/>
      <point x="384" y="478"/>
      <point x="347" y="467" type="curve"/>
    </contour>
    <contour>
      <point x="102" y="449" type="line"/>
      <point x="207" y="488"/>
      <point x="238" y="527"/>
      <point x="230" y="643" type="curve" smooth="yes"/>
      <point x="227" y="687"/>
      <point x="194" y="715"/>
      <point x="140" y="715" type="curve" smooth="yes"/>
      <point x="84" y="715"/>
      <point x="51" y="685"/>
      <point x="51" y="643" type="curve" smooth="yes"/>
      <point x="51" y="601"/>
      <point x="82" y="571"/>
      <point x="140" y="571" type="curve" smooth="yes"/>
      <point x="157" y="571"/>
      <point x="177" y="573"/>
      <point x="193" y="582" type="curve"/>
      <point x="203" y="520"/>
      <point x="134" y="478"/>
      <point x="97" y="467" type="curve"/>
    </contour>
  </outline>
</glyph>
<glyph name="dagger" format="2">
  <advance width="608"/>
  <unicode hex="2020"/>
  <outline>
    <contour>
      <point x="294" y="-200" type="line"/>
      <point x="314" y="-200" type="line"/>
      <point x="434" y="331" type="line"/>
      <point x="386" y="333"/>
      <point x="322" y="387"/>
      <point x="322" y="492" type="curve" smooth="yes"/>
      <point x="322" y="663"/>
      <point x="397" y="674"/>
      <point x="480" y="680" type="curve"/>
      <point x="480" y="699" type="line"/>
      <point x="128" y="699" type="line"/>
      <point x="128" y="680" type="line"/>
      <point x="211" y="674"/>
      <point x="287" y="663"/>
      <point x="287" y="492" type="curve" smooth="yes"/>
      <point x="287" y="387"/>
      <point x="222" y="333"/>
      <point x="174" y="331" type="curve"/>
    </contour>
    <contour>
      <point x="528" y="500" type="line"/>
      <point x="80" y="500" type="line"/>
      <point x="80" y="465" type="line"/>
      <point x="528" y="465" type="line"/>
    </contour>
  </outline>
</glyph>
<glyph name="daggerdbl" format="2">
  <advance width="608"/>
  <unicode hex="2021"/>
  <outline>
    <contour>
      <point x="287" y="255" type="line"/>
      <point x="174" y="79" type="line"/>
      <point x="222" y="77"/>
      <point x="287" y="33"/>
      <point x="287" y="-62" type="curve" smooth="yes"/>
      <point x="287" y="-164"/>
      <point x="211" y="-175"/>
      <point x="128" y="-181" type="curve"/>
      <point x="128" y="-200" type="line"/>
      <point x="480" y="-200" type="line"/>
      <point x="480" y="-181" type="line"/>
      <point x="397" y="-175"/>
      <point x="322" y="-164"/>
      <point x="322" y="-62" type="curve" smooth="yes"/>
      <point x="322" y="33"/>
      <point x="386" y="77"/>
      <point x="434" y="79" type="curve"/>
      <point x="322" y="255" type="line"/>
      <point x="434" y="431" type="line"/>
      <point x="386" y="433"/>
      <point x="322" y="487"/>
      <point x="322" y="572" type="curve" smooth="yes"/>
      <point x="322" y="663"/>
      <point x="397" y="675"/>
      <point x="480" y="681" type="curve"/>
      <point x="480" y="700" type="line"/>
      <point x="128" y="700" type="line"/>
      <point x="128" y="681" type="line"/>
      <point x="211" y="675"/>
      <point x="287" y="663"/>
      <point x="287" y="572" type="curve" smooth="yes"/>
      <point x="287" y="487"/>
      <point x="222" y="433"/>
      <point x="174" y="431" type="curve"/>
    </contour>
    <contour>
      <point x="528" y="590" type="line"/>
      <point x="80" y="590" type="line"/>
      <point x="80" y="555" type="line"/>
      <point x="528" y="555" type="line"/>
    </contour>
    <contour>
      <point x="528" y="-79" type="line"/>
      <point x="528" y="-44" type="line"/>
      <point x="80" y="-44" type="line"/>
      <point x="80" y="-79" type="line"/>
    </contour>
  </outline>
</glyph>
<glyph name="bullet" format="2">
  <advance width="538"/>
  <unicode hex="2022"/>
  <outline>
    <contour>
      <point x="269" y="114" type="curve" smooth="yes"/>
      <point x="384" y="114"/>
      <point x="462" y="166"/>
      <point x="462" y="269" type="curve" smooth="yes"/>
      <point x="462" y="373"/>
      <point x="384" y="427"/>
      <point x="271" y="427" type="curve" smooth="yes"/>
      <point x="157" y="427"/>
      <point x="75" y="373"/>
      <point x="75" y="269" type="curve" smooth="yes"/>
      <point x="75" y="166"/>
      <point x="157" y="114"/>
    </contour>
  </outline>
</glyph>
<glyph name="perthousand" format="2">
  <advance width="1450"/>
  <unicode hex="2030"/>
  <outline>
    <contour>
      <point x="144" y="0" type="line"/>
      <point x="196" y="0" type="line"/>
      <point x="905" y="715" type="line"/>
      <point x="853" y="715" type="line"/>
    </contour>
    <contour>
      <point x="314" y="463" type="curve" smooth="yes"/>
      <point x="412" y="463"/>
      <point x="491" y="519"/>
      <point x="491" y="589" type="curve" smooth="yes"/>
      <point x="491" y="657"/>
      <point x="412" y="713"/>
      <point x="314" y="713" type="curve" smooth="yes"/>
      <point x="216" y="713"/>
      <point x="137" y="657"/>
      <point x="137" y="589" type="curve" smooth="yes"/>
      <point x="137" y="519"/>
      <point x="216" y="463"/>
    </contour>
    <contour>
      <point x="459" y="589" type="curve" smooth="yes"/>
      <point x="459" y="545"/>
      <point x="387" y="523"/>
      <point x="314" y="523" type="curve" smooth="yes"/>
      <point x="242" y="523"/>
      <point x="169" y="545"/>
      <point x="169" y="589" type="curve" smooth="yes"/>
      <point x="169" y="632"/>
      <point x="240" y="653"/>
      <point x="311" y="653" type="curve" smooth="yes"/>
      <point x="385" y="653"/>
      <point x="459" y="631"/>
    </contour>
    <contour>
      <point x="721" y="-15" type="curve" smooth="yes"/>
      <point x="819" y="-15"/>
      <point x="898" y="41"/>
      <point x="898" y="111" type="curve" smooth="yes"/>
      <point x="898" y="179"/>
      <point x="819" y="235"/>
      <point x="721" y="235" type="curve" smooth="yes"/>
      <point x="623" y="235"/>
      <point x="544" y="179"/>
      <point x="544" y="111" type="curve" smooth="yes"/>
      <point x="544" y="41"/>
      <point x="623" y="-15"/>
    </contour>
    <contour>
      <point x="866" y="111" type="curve" smooth="yes"/>
      <point x="866" y="68"/>
      <point x="794" y="46"/>
      <point x="721" y="46" type="curve" smooth="yes"/>
      <point x="649" y="46"/>
      <point x="576" y="68"/>
      <point x="576" y="111" type="curve" smooth="yes"/>
      <point x="576" y="154"/>
      <point x="647" y="175"/>
      <point x="719" y="175" type="curve" smooth="yes"/>
      <point x="792" y="175"/>
      <point x="866" y="153"/>
    </contour>
    <contour>
      <point x="1141" y="-15" type="curve" smooth="yes"/>
      <point x="1239" y="-15"/>
      <point x="1318" y="41"/>
      <point x="1318" y="111" type="curve" smooth="yes"/>
      <point x="1318" y="179"/>
      <point x="1239" y="235"/>
      <point x="1141" y="235" type="curve" smooth="yes"/>
      <point x="1043" y="235"/>
      <point x="964" y="179"/>
      <point x="964" y="111" type="curve" smooth="yes"/>
      <point x="964" y="41"/>
      <point x="1043" y="-15"/>
    </contour>
    <contour>
      <point x="1286" y="111" type="curve" smooth="yes"/>
      <point x="1286" y="68"/>
      <point x="1214" y="46"/>
      <point x="1141" y="46" type="curve" smooth="yes"/>
      <point x="1069" y="46"/>
      <point x="996" y="68"/>
      <point x="996" y="111" type="curve" smooth="yes"/>
      <point x="996" y="154"/>
      <point x="1067" y="175"/>
      <point x="1139" y="175" type="curve" smooth="yes"/>
      <point x="1212" y="175"/>
      <point x="1286" y="153"/>
    </contour>
  </outline>
</glyph>
<glyph name="guilsinglleft" format="2">
  <advance width="324"/>
  <unicode hex="2039"/>
  <outline>
    <contour>
      <point x="260" y="528" type="line"/>
      <point x="24" y="261" type="line"/>
      <point x="260" y="-6" type="line"/>
      <point x="294" y="13" type="line"/>
      <point x="110" y="261" type="line"/>
      <point x="294" y="509" type="line"/>
    </contour>
  </outline>
</glyph>
<glyph name="guilsinglright" format="2">
  <advance width="324"/>
  <unicode hex="203A"/>
  <outline>
    <contour>
      <point x="64" y="528" type="line"/>
      <point x="30" y="509" type="line"/>
      <point x="214" y="261" type="line"/>
      <point x="30" y="13" type="line"/>
      <point x="64" y="-6" type="line"/>
      <point x="300" y="261" type="line"/>
    </contour>
  </outline>
</glyph>
<glyph name="fraction" format="2">
  <advance width="641"/>
  <unicode hex="2044"/>
  <outline>
    <contour>
      <point x="540" y="700" type="line"/>
      <point x="20" y="0" type="line"/>
      <point x="101" y="0" type="line"/>
      <point x="621" y="700" type="line"/>
    </contour>
  </outline>
</glyph>
<glyph name="euro" format="2">
  <advance width="1303"/>
  <unicode hex="20AC"/>
  <outline>
    <contour>
      <point x="736" y="-15" type="curve" smooth="yes"/>
      <point x="907" y="-15"/>
      <point x="1072" y="10"/>
      <point x="1197" y="63" type="curve"/>
      <point x="1219" y="230" type="line"/>
      <point x="1189" y="230" type="line"/>
      <point x="1085" y="91"/>
      <point x="963" y="22"/>
      <point x="812" y="22" type="curve" smooth="yes"/>
      <point x="621" y="22"/>
      <point x="437" y="131"/>
      <point x="437" y="344" type="curve" smooth="yes"/>
      <point x="437" y="563"/>
      <point x="623" y="679"/>
      <point x="816" y="679" type="curve" smooth="yes"/>
      <point x="964" y="679"/>
      <point x="1091" y="611"/>
      <point x="1189" y="470" type="curve"/>
      <point x="1219" y="470" type="line"/>
      <point x="1197" y="637" type="line"/>
      <point x="1072" y="690"/>
      <point x="907" y="715"/>
      <point x="757" y="715" type="curve" smooth="yes"/>
      <point x="441" y="715"/>
      <point x="152" y="578"/>
      <point x="152" y="345" type="curve" smooth="yes"/>
      <point x="152" y="145"/>
      <point x="414" y="-15"/>
    </contour>
    <contour>
      <point x="63" y="250" type="line"/>
      <point x="996" y="250" type="line"/>
      <point x="996" y="285" type="line"/>
      <point x="63" y="284" type="line"/>
    </contour>
    <contour>
      <point x="63" y="417" type="line"/>
      <point x="996" y="417" type="line"/>
      <point x="996" y="452" type="line"/>
      <point x="63" y="452" type="line"/>
    </contour>
  </outline>
</glyph>
<glyph name="trademark" format="2">
  <advance width="1083"/>
  <unicode hex="2122"/>
  <outline>
    <contour>
      <point x="451" y="715" type="line"/>
      <point x="36" y="715" type="line"/>
      <point x="36" y="609" type="line"/>
      <point x="44" y="609" type="line"/>
      <point x="49" y="661"/>
      <point x="82" y="695"/>
      <point x="152" y="695" type="curve" smooth="yes"/>
      <point x="182" y="695" type="line"/>
      <point x="182" y="466" type="line" smooth="yes"/>
      <point x="182" y="425"/>
      <point x="155" y="426"/>
      <point x="119" y="425" type="curve"/>
      <point x="119" y="413" type="line"/>
      <point x="368" y="413" type="line"/>
      <point x="368" y="425" type="line"/>
      <point x="330" y="426"/>
      <point x="302" y="425"/>
      <point x="302" y="466" type="curve" smooth="yes"/>
      <point x="302" y="695" type="line"/>
      <point x="332" y="695" type="line" smooth="yes"/>
      <point x="404" y="695"/>
      <point x="439" y="661"/>
      <point x="441" y="609" type="curve"/>
      <point x="451" y="609" type="line"/>
    </contour>
    <contour>
      <point x="1038" y="704" type="curve"/>
      <point x="1038" y="715" type="line"/>
      <point x="852" y="715" type="line"/>
      <point x="761" y="554" type="line"/>
      <point x="666" y="715" type="line"/>
      <point x="474" y="715" type="line"/>
      <point x="474" y="704" type="line"/>
      <point x="512" y="702"/>
      <point x="540" y="704"/>
      <point x="540" y="662" type="curve" smooth="yes"/>
      <point x="540" y="466" type="line" smooth="yes"/>
      <point x="540" y="425"/>
      <point x="512" y="426"/>
      <point x="474" y="425" type="curve"/>
      <point x="474" y="413" type="line"/>
      <point x="625" y="413" type="line"/>
      <point x="625" y="425" type="line"/>
      <point x="593" y="426"/>
      <point x="560" y="423"/>
      <point x="560" y="466" type="curve" smooth="yes"/>
      <point x="560" y="656" type="line"/>
      <point x="707" y="409" type="line"/>
      <point x="852" y="674" type="line"/>
      <point x="852" y="466" type="line" smooth="yes"/>
      <point x="852" y="425"/>
      <point x="825" y="426"/>
      <point x="787" y="425" type="curve"/>
      <point x="787" y="413" type="line"/>
      <point x="1038" y="413" type="line"/>
      <point x="1038" y="425" type="line"/>
      <point x="1005" y="426"/>
      <point x="973" y="423"/>
      <point x="973" y="466" type="curve" smooth="yes"/>
      <point x="973" y="662" type="line" smooth="yes"/>
      <point x="973" y="706"/>
      <point x="1005" y="702"/>
    </contour>
  </outline>
</glyph>
<glyph name="leftArrow" format="2">
  <advance width="1203"/>
  <unicode hex="2190"/>
  <outline>
    <contour>
      <point x="330" y="-16" type="line"/>
      <point x="364" y="3" type="line"/>
      <point x="153" y="251" type="line"/>
      <point x="364" y="499" type="line"/>
      <point x="330" y="518" type="line"/>
      <point x="44" y="251" type="line"/>
    </contour>
    <contour>
      <point x="122" y="235" type="line"/>
      <point x="1154" y="234" type="line"/>
      <point x="1154" y="269" type="line"/>
      <point x="122" y="270" type="line"/>
    </contour>
  </outline>
</glyph>
<glyph name="upArrow" format="2">
  <advance width="616"/>
  <unicode hex="2191"/>
  <outline>
    <contour>
      <point x="41" y="368" type="line"/>
      <point x="60" y="334" type="line"/>
      <point x="308" y="545" type="line"/>
      <point x="556" y="334" type="line"/>
      <point x="575" y="368" type="line"/>
      <point x="308" y="654" type="line"/>
    </contour>
    <contour>
      <point x="325" y="-182" type="line"/>
      <point x="324" y="576" type="line"/>
      <point x="289" y="576" type="line"/>
      <point x="290" y="-182" type="line"/>
    </contour>
  </outline>
</glyph>
<glyph name="rightArrow" format="2">
  <advance width="1203"/>
  <unicode hex="2192"/>
  <outline>
    <contour>
      <point x="873" y="518" type="line"/>
      <point x="839" y="499" type="line"/>
      <point x="1050" y="251" type="line"/>
      <point x="839" y="3" type="line"/>
      <point x="873" y="-16" type="line"/>
      <point x="1159" y="251" type="line"/>
    </contour>
    <contour>
      <point x="49" y="234" type="line"/>
      <point x="1081" y="235" type="line"/>
      <point x="1081" y="270" type="line"/>
      <point x="49" y="269" type="line"/>
    </contour>
  </outline>
</glyph>
<glyph name="downArrow" format="2">
  <advance width="616"/>
  <unicode hex="2193"/>
  <outline>
    <contour>
      <point x="308" y="-140" type="line"/>
      <point x="575" y="146" type="line"/>
      <point x="556" y="180" type="line"/>
      <point x="308" y="-31" type="line"/>
      <point x="60" y="180" type="line"/>
      <point x="41" y="146" type="line"/>
    </contour>
    <contour>
      <point x="289" y="-62" type="line"/>
      <point x="324" y="-62" type="line"/>
      <point x="325" y="696" type="line"/>
      <point x="290" y="696" type="line"/>
    </contour>
  </outline>
</glyph>
